%
M48
M72
T01C0.0236
T02C0.0400
T03C0.1250
%
T01
X4055Y4055
X6680Y4055
X6680Y6680
X3930Y6680
T02
X3805Y8680
X4805Y8680
X5805Y8680
X6805Y8680
X8680Y6805
X8680Y5805
X8680Y4805
X8680Y3805
X6805Y1930
X5805Y1930
X4805Y1930
X3805Y1930
X1930Y3805
X1930Y4805
X1930Y5805
X1930Y6805
T03
X1930Y1930
X1930Y8680
X8680Y8680
X8680Y1930
M30
