G75*
G70*
%OFA0B0*%
%FSLAX24Y24*%
%IPPOS*%
%LPD*%
%AMOC8*
5,1,8,0,0,1.08239X$1,22.5*
%
%ADD10C,0.0000*%
%ADD11C,0.0080*%
%ADD12C,0.0060*%
%ADD13C,0.0120*%
%ADD14C,0.0040*%
%ADD15R,0.0110X0.0005*%
%ADD16R,0.0210X0.0005*%
%ADD17R,0.0280X0.0005*%
%ADD18R,0.0325X0.0005*%
%ADD19R,0.0365X0.0005*%
%ADD20R,0.0410X0.0005*%
%ADD21R,0.0440X0.0005*%
%ADD22R,0.0470X0.0005*%
%ADD23R,0.0505X0.0005*%
%ADD24R,0.0530X0.0005*%
%ADD25R,0.0555X0.0005*%
%ADD26R,0.0580X0.0005*%
%ADD27R,0.0600X0.0005*%
%ADD28R,0.0625X0.0005*%
%ADD29R,0.0645X0.0005*%
%ADD30R,0.0665X0.0005*%
%ADD31R,0.0685X0.0005*%
%ADD32R,0.0705X0.0005*%
%ADD33R,0.0715X0.0005*%
%ADD34R,0.0735X0.0005*%
%ADD35R,0.0755X0.0005*%
%ADD36R,0.0090X0.0005*%
%ADD37R,0.0770X0.0005*%
%ADD38R,0.0190X0.0005*%
%ADD39R,0.0355X0.0005*%
%ADD40R,0.0360X0.0005*%
%ADD41R,0.0260X0.0005*%
%ADD42R,0.0315X0.0005*%
%ADD43R,0.0320X0.0005*%
%ADD44R,0.0295X0.0005*%
%ADD45R,0.0275X0.0005*%
%ADD46R,0.0400X0.0005*%
%ADD47R,0.0265X0.0005*%
%ADD48R,0.0435X0.0005*%
%ADD49R,0.0255X0.0005*%
%ADD50R,0.0465X0.0005*%
%ADD51R,0.0245X0.0005*%
%ADD52R,0.0495X0.0005*%
%ADD53R,0.0235X0.0005*%
%ADD54R,0.0525X0.0005*%
%ADD55R,0.0230X0.0005*%
%ADD56R,0.0240X0.0005*%
%ADD57R,0.0545X0.0005*%
%ADD58R,0.0820X0.0005*%
%ADD59R,0.0220X0.0005*%
%ADD60R,0.0025X0.0005*%
%ADD61R,0.0795X0.0005*%
%ADD62R,0.0215X0.0005*%
%ADD63R,0.0035X0.0005*%
%ADD64R,0.0040X0.0005*%
%ADD65R,0.0800X0.0005*%
%ADD66R,0.0205X0.0005*%
%ADD67R,0.0050X0.0005*%
%ADD68R,0.0805X0.0005*%
%ADD69R,0.0165X0.0005*%
%ADD70R,0.0055X0.0005*%
%ADD71R,0.0200X0.0005*%
%ADD72R,0.0060X0.0005*%
%ADD73R,0.0300X0.0005*%
%ADD74R,0.0195X0.0005*%
%ADD75R,0.0065X0.0005*%
%ADD76R,0.0345X0.0005*%
%ADD77R,0.0070X0.0005*%
%ADD78R,0.0385X0.0005*%
%ADD79R,0.0080X0.0005*%
%ADD80R,0.0425X0.0005*%
%ADD81R,0.0185X0.0005*%
%ADD82R,0.0085X0.0005*%
%ADD83R,0.0635X0.0005*%
%ADD84R,0.0810X0.0005*%
%ADD85R,0.0095X0.0005*%
%ADD86R,0.0335X0.0005*%
%ADD87R,0.0655X0.0005*%
%ADD88R,0.0105X0.0005*%
%ADD89R,0.0290X0.0005*%
%ADD90R,0.0660X0.0005*%
%ADD91R,0.0115X0.0005*%
%ADD92R,0.0285X0.0005*%
%ADD93R,0.0120X0.0005*%
%ADD94R,0.0270X0.0005*%
%ADD95R,0.0675X0.0005*%
%ADD96R,0.0130X0.0005*%
%ADD97R,0.0680X0.0005*%
%ADD98R,0.0135X0.0005*%
%ADD99R,0.0250X0.0005*%
%ADD100R,0.0140X0.0005*%
%ADD101R,0.0180X0.0005*%
%ADD102R,0.0695X0.0005*%
%ADD103R,0.0150X0.0005*%
%ADD104R,0.0160X0.0005*%
%ADD105R,0.0155X0.0005*%
%ADD106R,0.0145X0.0005*%
%ADD107R,0.0700X0.0005*%
%ADD108R,0.0225X0.0005*%
%ADD109R,0.0170X0.0005*%
%ADD110R,0.0100X0.0005*%
%ADD111R,0.0075X0.0005*%
%ADD112R,0.0720X0.0005*%
%ADD113R,0.0725X0.0005*%
%ADD114R,0.0340X0.0005*%
%ADD115R,0.0305X0.0005*%
%ADD116R,0.0175X0.0005*%
%ADD117R,0.0005X0.0005*%
%ADD118R,0.0010X0.0005*%
%ADD119R,0.0015X0.0005*%
%ADD120R,0.0020X0.0005*%
%ADD121R,0.0030X0.0005*%
%ADD122R,0.0125X0.0005*%
%ADD123R,0.0045X0.0005*%
%ADD124R,0.0370X0.0005*%
%ADD125R,0.0375X0.0005*%
%ADD126R,0.0350X0.0005*%
%ADD127R,0.0330X0.0005*%
%ADD128R,0.0485X0.0005*%
%ADD129R,0.0480X0.0005*%
%ADD130R,0.0460X0.0005*%
%ADD131R,0.0445X0.0005*%
%ADD132R,0.0310X0.0005*%
%ADD133R,0.0380X0.0005*%
%ADD134R,0.0415X0.0005*%
%ADD135R,0.0450X0.0005*%
%ADD136R,0.0490X0.0005*%
%ADD137R,0.0965X0.0005*%
%ADD138R,0.0975X0.0005*%
%ADD139R,0.0980X0.0005*%
%ADD140R,0.0990X0.0005*%
%ADD141R,0.1005X0.0005*%
%ADD142R,0.0615X0.0005*%
%ADD143R,0.0640X0.0005*%
%ADD144R,0.0605X0.0005*%
%ADD145R,0.0620X0.0005*%
%ADD146R,0.0590X0.0005*%
%ADD147R,0.0570X0.0005*%
%ADD148R,0.0540X0.0005*%
%ADD149R,0.0515X0.0005*%
%ADD150R,0.0565X0.0005*%
%ADD151R,0.0535X0.0005*%
%ADD152R,0.0395X0.0005*%
%ADD153R,0.0520X0.0005*%
%ADD154R,0.0500X0.0005*%
%ADD155R,0.0430X0.0005*%
%ADD156C,0.0059*%
D10*
X000680Y001930D02*
X000680Y008680D01*
X000682Y008748D01*
X000687Y008815D01*
X000696Y008882D01*
X000709Y008949D01*
X000726Y009014D01*
X000745Y009079D01*
X000769Y009143D01*
X000796Y009205D01*
X000826Y009266D01*
X000859Y009324D01*
X000895Y009381D01*
X000935Y009436D01*
X000977Y009489D01*
X001023Y009540D01*
X001070Y009587D01*
X001121Y009633D01*
X001174Y009675D01*
X001229Y009715D01*
X001286Y009751D01*
X001344Y009784D01*
X001405Y009814D01*
X001467Y009841D01*
X001531Y009865D01*
X001596Y009884D01*
X001661Y009901D01*
X001728Y009914D01*
X001795Y009923D01*
X001862Y009928D01*
X001930Y009930D01*
X008680Y009930D01*
X008748Y009928D01*
X008815Y009923D01*
X008882Y009914D01*
X008949Y009901D01*
X009014Y009884D01*
X009079Y009865D01*
X009143Y009841D01*
X009205Y009814D01*
X009266Y009784D01*
X009324Y009751D01*
X009381Y009715D01*
X009436Y009675D01*
X009489Y009633D01*
X009540Y009587D01*
X009587Y009540D01*
X009633Y009489D01*
X009675Y009436D01*
X009715Y009381D01*
X009751Y009324D01*
X009784Y009266D01*
X009814Y009205D01*
X009841Y009143D01*
X009865Y009079D01*
X009884Y009014D01*
X009901Y008949D01*
X009914Y008882D01*
X009923Y008815D01*
X009928Y008748D01*
X009930Y008680D01*
X009930Y001930D01*
X009928Y001862D01*
X009923Y001795D01*
X009914Y001728D01*
X009901Y001661D01*
X009884Y001596D01*
X009865Y001531D01*
X009841Y001467D01*
X009814Y001405D01*
X009784Y001344D01*
X009751Y001286D01*
X009715Y001229D01*
X009675Y001174D01*
X009633Y001121D01*
X009587Y001070D01*
X009540Y001023D01*
X009489Y000977D01*
X009436Y000935D01*
X009381Y000895D01*
X009324Y000859D01*
X009266Y000826D01*
X009205Y000796D01*
X009143Y000769D01*
X009079Y000745D01*
X009014Y000726D01*
X008949Y000709D01*
X008882Y000696D01*
X008815Y000687D01*
X008748Y000682D01*
X008680Y000680D01*
X001930Y000680D01*
X001862Y000682D01*
X001795Y000687D01*
X001728Y000696D01*
X001661Y000709D01*
X001596Y000726D01*
X001531Y000745D01*
X001467Y000769D01*
X001405Y000796D01*
X001344Y000826D01*
X001286Y000859D01*
X001229Y000895D01*
X001174Y000935D01*
X001121Y000977D01*
X001070Y001023D01*
X001023Y001070D01*
X000977Y001121D01*
X000935Y001174D01*
X000895Y001229D01*
X000859Y001286D01*
X000826Y001344D01*
X000796Y001405D01*
X000769Y001467D01*
X000745Y001531D01*
X000726Y001596D01*
X000709Y001661D01*
X000696Y001728D01*
X000687Y001795D01*
X000682Y001862D01*
X000680Y001930D01*
X001305Y001930D02*
X001307Y001980D01*
X001313Y002029D01*
X001323Y002078D01*
X001336Y002125D01*
X001354Y002172D01*
X001375Y002217D01*
X001399Y002260D01*
X001427Y002301D01*
X001458Y002340D01*
X001492Y002376D01*
X001529Y002410D01*
X001569Y002440D01*
X001610Y002467D01*
X001654Y002491D01*
X001699Y002511D01*
X001746Y002527D01*
X001794Y002540D01*
X001843Y002549D01*
X001893Y002554D01*
X001942Y002555D01*
X001992Y002552D01*
X002041Y002545D01*
X002090Y002534D01*
X002137Y002520D01*
X002183Y002501D01*
X002228Y002479D01*
X002271Y002454D01*
X002311Y002425D01*
X002349Y002393D01*
X002385Y002359D01*
X002418Y002321D01*
X002447Y002281D01*
X002473Y002239D01*
X002496Y002195D01*
X002515Y002149D01*
X002531Y002102D01*
X002543Y002053D01*
X002551Y002004D01*
X002555Y001955D01*
X002555Y001905D01*
X002551Y001856D01*
X002543Y001807D01*
X002531Y001758D01*
X002515Y001711D01*
X002496Y001665D01*
X002473Y001621D01*
X002447Y001579D01*
X002418Y001539D01*
X002385Y001501D01*
X002349Y001467D01*
X002311Y001435D01*
X002271Y001406D01*
X002228Y001381D01*
X002183Y001359D01*
X002137Y001340D01*
X002090Y001326D01*
X002041Y001315D01*
X001992Y001308D01*
X001942Y001305D01*
X001893Y001306D01*
X001843Y001311D01*
X001794Y001320D01*
X001746Y001333D01*
X001699Y001349D01*
X001654Y001369D01*
X001610Y001393D01*
X001569Y001420D01*
X001529Y001450D01*
X001492Y001484D01*
X001458Y001520D01*
X001427Y001559D01*
X001399Y001600D01*
X001375Y001643D01*
X001354Y001688D01*
X001336Y001735D01*
X001323Y001782D01*
X001313Y001831D01*
X001307Y001880D01*
X001305Y001930D01*
X001305Y008680D02*
X001307Y008730D01*
X001313Y008779D01*
X001323Y008828D01*
X001336Y008875D01*
X001354Y008922D01*
X001375Y008967D01*
X001399Y009010D01*
X001427Y009051D01*
X001458Y009090D01*
X001492Y009126D01*
X001529Y009160D01*
X001569Y009190D01*
X001610Y009217D01*
X001654Y009241D01*
X001699Y009261D01*
X001746Y009277D01*
X001794Y009290D01*
X001843Y009299D01*
X001893Y009304D01*
X001942Y009305D01*
X001992Y009302D01*
X002041Y009295D01*
X002090Y009284D01*
X002137Y009270D01*
X002183Y009251D01*
X002228Y009229D01*
X002271Y009204D01*
X002311Y009175D01*
X002349Y009143D01*
X002385Y009109D01*
X002418Y009071D01*
X002447Y009031D01*
X002473Y008989D01*
X002496Y008945D01*
X002515Y008899D01*
X002531Y008852D01*
X002543Y008803D01*
X002551Y008754D01*
X002555Y008705D01*
X002555Y008655D01*
X002551Y008606D01*
X002543Y008557D01*
X002531Y008508D01*
X002515Y008461D01*
X002496Y008415D01*
X002473Y008371D01*
X002447Y008329D01*
X002418Y008289D01*
X002385Y008251D01*
X002349Y008217D01*
X002311Y008185D01*
X002271Y008156D01*
X002228Y008131D01*
X002183Y008109D01*
X002137Y008090D01*
X002090Y008076D01*
X002041Y008065D01*
X001992Y008058D01*
X001942Y008055D01*
X001893Y008056D01*
X001843Y008061D01*
X001794Y008070D01*
X001746Y008083D01*
X001699Y008099D01*
X001654Y008119D01*
X001610Y008143D01*
X001569Y008170D01*
X001529Y008200D01*
X001492Y008234D01*
X001458Y008270D01*
X001427Y008309D01*
X001399Y008350D01*
X001375Y008393D01*
X001354Y008438D01*
X001336Y008485D01*
X001323Y008532D01*
X001313Y008581D01*
X001307Y008630D01*
X001305Y008680D01*
X008055Y008680D02*
X008057Y008730D01*
X008063Y008779D01*
X008073Y008828D01*
X008086Y008875D01*
X008104Y008922D01*
X008125Y008967D01*
X008149Y009010D01*
X008177Y009051D01*
X008208Y009090D01*
X008242Y009126D01*
X008279Y009160D01*
X008319Y009190D01*
X008360Y009217D01*
X008404Y009241D01*
X008449Y009261D01*
X008496Y009277D01*
X008544Y009290D01*
X008593Y009299D01*
X008643Y009304D01*
X008692Y009305D01*
X008742Y009302D01*
X008791Y009295D01*
X008840Y009284D01*
X008887Y009270D01*
X008933Y009251D01*
X008978Y009229D01*
X009021Y009204D01*
X009061Y009175D01*
X009099Y009143D01*
X009135Y009109D01*
X009168Y009071D01*
X009197Y009031D01*
X009223Y008989D01*
X009246Y008945D01*
X009265Y008899D01*
X009281Y008852D01*
X009293Y008803D01*
X009301Y008754D01*
X009305Y008705D01*
X009305Y008655D01*
X009301Y008606D01*
X009293Y008557D01*
X009281Y008508D01*
X009265Y008461D01*
X009246Y008415D01*
X009223Y008371D01*
X009197Y008329D01*
X009168Y008289D01*
X009135Y008251D01*
X009099Y008217D01*
X009061Y008185D01*
X009021Y008156D01*
X008978Y008131D01*
X008933Y008109D01*
X008887Y008090D01*
X008840Y008076D01*
X008791Y008065D01*
X008742Y008058D01*
X008692Y008055D01*
X008643Y008056D01*
X008593Y008061D01*
X008544Y008070D01*
X008496Y008083D01*
X008449Y008099D01*
X008404Y008119D01*
X008360Y008143D01*
X008319Y008170D01*
X008279Y008200D01*
X008242Y008234D01*
X008208Y008270D01*
X008177Y008309D01*
X008149Y008350D01*
X008125Y008393D01*
X008104Y008438D01*
X008086Y008485D01*
X008073Y008532D01*
X008063Y008581D01*
X008057Y008630D01*
X008055Y008680D01*
X008055Y001930D02*
X008057Y001980D01*
X008063Y002029D01*
X008073Y002078D01*
X008086Y002125D01*
X008104Y002172D01*
X008125Y002217D01*
X008149Y002260D01*
X008177Y002301D01*
X008208Y002340D01*
X008242Y002376D01*
X008279Y002410D01*
X008319Y002440D01*
X008360Y002467D01*
X008404Y002491D01*
X008449Y002511D01*
X008496Y002527D01*
X008544Y002540D01*
X008593Y002549D01*
X008643Y002554D01*
X008692Y002555D01*
X008742Y002552D01*
X008791Y002545D01*
X008840Y002534D01*
X008887Y002520D01*
X008933Y002501D01*
X008978Y002479D01*
X009021Y002454D01*
X009061Y002425D01*
X009099Y002393D01*
X009135Y002359D01*
X009168Y002321D01*
X009197Y002281D01*
X009223Y002239D01*
X009246Y002195D01*
X009265Y002149D01*
X009281Y002102D01*
X009293Y002053D01*
X009301Y002004D01*
X009305Y001955D01*
X009305Y001905D01*
X009301Y001856D01*
X009293Y001807D01*
X009281Y001758D01*
X009265Y001711D01*
X009246Y001665D01*
X009223Y001621D01*
X009197Y001579D01*
X009168Y001539D01*
X009135Y001501D01*
X009099Y001467D01*
X009061Y001435D01*
X009021Y001406D01*
X008978Y001381D01*
X008933Y001359D01*
X008887Y001340D01*
X008840Y001326D01*
X008791Y001315D01*
X008742Y001308D01*
X008692Y001305D01*
X008643Y001306D01*
X008593Y001311D01*
X008544Y001320D01*
X008496Y001333D01*
X008449Y001349D01*
X008404Y001369D01*
X008360Y001393D01*
X008319Y001420D01*
X008279Y001450D01*
X008242Y001484D01*
X008208Y001520D01*
X008177Y001559D01*
X008149Y001600D01*
X008125Y001643D01*
X008104Y001688D01*
X008086Y001735D01*
X008073Y001782D01*
X008063Y001831D01*
X008057Y001880D01*
X008055Y001930D01*
D11*
X006454Y007455D02*
X006384Y007455D01*
X006314Y007525D01*
X006314Y007875D01*
X006524Y007875D01*
X006594Y007805D01*
X006594Y007665D01*
X006524Y007595D01*
X006314Y007595D01*
X006134Y007595D02*
X005994Y007595D01*
X006064Y007595D02*
X006064Y007875D01*
X006134Y007875D01*
X006064Y008015D02*
X006064Y008085D01*
X005827Y007805D02*
X005827Y007665D01*
X005757Y007595D01*
X005547Y007595D01*
X005757Y007875D02*
X005827Y007805D01*
X005757Y007875D02*
X005547Y007875D01*
X005140Y007875D02*
X005070Y007805D01*
X004930Y007805D01*
X004860Y007735D01*
X004860Y007665D01*
X004930Y007595D01*
X005070Y007595D01*
X005140Y007665D01*
X005140Y007875D02*
X005140Y007945D01*
X005070Y008015D01*
X004930Y008015D01*
X004860Y007945D01*
X004680Y007875D02*
X004610Y007875D01*
X004539Y007805D01*
X004469Y007875D01*
X004399Y007805D01*
X004399Y007595D01*
X004539Y007595D02*
X004539Y007805D01*
X004680Y007875D02*
X004680Y007595D01*
X004219Y007665D02*
X004149Y007595D01*
X004009Y007595D01*
X003939Y007665D01*
X003939Y007805D01*
X004009Y007875D01*
X004149Y007875D01*
X004219Y007805D01*
X004219Y007665D01*
X003759Y007595D02*
X003759Y008015D01*
X003549Y007875D02*
X003759Y007735D01*
X003549Y007595D01*
X003375Y007665D02*
X003375Y007805D01*
X003305Y007875D01*
X003165Y007875D01*
X003095Y007805D01*
X003095Y007735D01*
X003375Y007735D01*
X003375Y007665D02*
X003305Y007595D01*
X003165Y007595D01*
X006774Y007595D02*
X006985Y007595D01*
X007055Y007665D01*
X006985Y007735D01*
X006774Y007735D01*
X006774Y007805D02*
X006774Y007595D01*
X006774Y007805D02*
X006844Y007875D01*
X006985Y007875D01*
X007235Y008015D02*
X007235Y007595D01*
X007515Y007595D02*
X007515Y008015D01*
X007375Y007875D01*
X007235Y008015D01*
D12*
X007292Y007300D02*
X007406Y007300D01*
X007463Y007244D01*
X007463Y007017D01*
X007406Y006960D01*
X007292Y006960D01*
X007236Y007017D01*
X007236Y007244D02*
X007292Y007300D01*
X007849Y007300D02*
X007963Y007300D01*
X007906Y007300D02*
X007906Y006960D01*
X007963Y006960D02*
X007849Y006960D01*
X006726Y007017D02*
X006669Y006960D01*
X006556Y006960D01*
X006499Y007017D01*
X006499Y007073D01*
X006556Y007130D01*
X006669Y007130D01*
X006726Y007187D01*
X006726Y007244D01*
X006669Y007300D01*
X006556Y007300D01*
X006499Y007244D01*
X006358Y007187D02*
X006187Y007187D01*
X006131Y007130D01*
X006131Y007017D01*
X006187Y006960D01*
X006358Y006960D01*
X006358Y006847D02*
X006358Y007187D01*
X005989Y007300D02*
X005933Y007300D01*
X005933Y006960D01*
X005989Y006960D02*
X005876Y006960D01*
X005744Y006960D02*
X005630Y006960D01*
X005687Y006960D02*
X005687Y007187D01*
X005744Y007187D01*
X005687Y007300D02*
X005687Y007357D01*
X005498Y007187D02*
X005385Y007187D01*
X005441Y007244D02*
X005441Y007017D01*
X005385Y006960D01*
X005196Y007017D02*
X005139Y006960D01*
X005196Y007017D02*
X005196Y007244D01*
X005253Y007187D02*
X005139Y007187D01*
X005007Y007130D02*
X005007Y007017D01*
X004950Y006960D01*
X004837Y006960D01*
X004780Y007073D02*
X005007Y007073D01*
X005007Y007130D02*
X004950Y007187D01*
X004837Y007187D01*
X004780Y007130D01*
X004780Y007073D01*
X004639Y007073D02*
X004525Y007187D01*
X004469Y007187D01*
X004639Y007187D02*
X004639Y006960D01*
X003964Y006960D02*
X003850Y006960D01*
X003907Y006960D02*
X003907Y007300D01*
X003964Y007300D02*
X003850Y007300D01*
X003718Y007300D02*
X003491Y006960D01*
X003350Y007017D02*
X003123Y007244D01*
X003123Y007017D01*
X003180Y006960D01*
X003293Y006960D01*
X003350Y007017D01*
X003350Y007244D01*
X003293Y007300D01*
X003180Y007300D01*
X003123Y007244D01*
X002981Y007187D02*
X002868Y007300D01*
X002868Y006960D01*
X002981Y006960D02*
X002754Y006960D01*
X003491Y007300D02*
X003718Y006960D01*
X003790Y002738D02*
X003733Y002681D01*
X003733Y002624D01*
X003790Y002568D01*
X003733Y002511D01*
X003733Y002454D01*
X003790Y002398D01*
X003903Y002398D01*
X003960Y002454D01*
X003847Y002568D02*
X003790Y002568D01*
X003790Y002738D02*
X003903Y002738D01*
X003960Y002681D01*
X003592Y002454D02*
X003592Y002398D01*
X003535Y002398D01*
X003535Y002454D01*
X003592Y002454D01*
X003408Y002454D02*
X003181Y002681D01*
X003181Y002454D01*
X003238Y002398D01*
X003351Y002398D01*
X003408Y002454D01*
X003408Y002681D01*
X003351Y002738D01*
X003238Y002738D01*
X003181Y002681D01*
X004470Y002624D02*
X004470Y002398D01*
X004470Y002568D02*
X004697Y002568D01*
X004697Y002624D02*
X004583Y002738D01*
X004470Y002624D01*
X004697Y002624D02*
X004697Y002398D01*
X004838Y002454D02*
X004895Y002398D01*
X005008Y002398D01*
X005065Y002454D01*
X005008Y002568D02*
X004895Y002568D01*
X004838Y002511D01*
X004838Y002454D01*
X005008Y002568D02*
X005065Y002624D01*
X005065Y002681D01*
X005008Y002738D01*
X004895Y002738D01*
X004838Y002681D01*
X005207Y002568D02*
X005433Y002568D01*
X005575Y002681D02*
X005575Y002738D01*
X005575Y002681D02*
X005688Y002568D01*
X005688Y002398D01*
X005688Y002568D02*
X005802Y002681D01*
X005802Y002738D01*
X005943Y002681D02*
X005943Y002624D01*
X006000Y002568D01*
X006170Y002568D01*
X006170Y002738D02*
X006000Y002738D01*
X005943Y002681D01*
X006000Y002568D02*
X005943Y002511D01*
X005943Y002454D01*
X006000Y002398D01*
X006170Y002398D01*
X006170Y002738D01*
X006680Y002681D02*
X006737Y002738D01*
X006850Y002738D01*
X006907Y002681D01*
X006907Y002454D01*
X006850Y002398D01*
X006737Y002398D01*
X006680Y002454D01*
X007048Y002454D02*
X007105Y002398D01*
X007218Y002398D01*
X007275Y002454D01*
X007275Y002681D01*
X007218Y002738D01*
X007105Y002738D01*
X007048Y002681D01*
D13*
X007055Y001180D02*
X006555Y001180D01*
X006805Y000930D01*
X007055Y001180D01*
X006055Y001180D02*
X005805Y000930D01*
X005555Y001180D01*
X006055Y001180D01*
X009430Y005555D02*
X009430Y006055D01*
X009680Y005805D01*
X009430Y005555D01*
X009430Y006555D02*
X009430Y007055D01*
X009680Y006805D01*
X009430Y006555D01*
X005055Y009430D02*
X004555Y009430D01*
X004805Y009680D01*
X005055Y009430D01*
X004055Y009430D02*
X003555Y009430D01*
X003805Y009680D01*
X004055Y009430D01*
X001180Y006805D02*
X000930Y006555D01*
X000930Y007055D01*
X001180Y006805D01*
X000930Y006055D02*
X000930Y005555D01*
X001180Y005805D01*
X000930Y006055D01*
D14*
X007589Y007200D02*
X007723Y007200D01*
X007589Y007333D01*
X007589Y007367D01*
X007622Y007400D01*
X007689Y007400D01*
X007723Y007367D01*
D15*
X005556Y005486D03*
X005556Y005481D03*
X005396Y005461D03*
X005396Y005456D03*
X004991Y005146D03*
X004871Y005301D03*
X004871Y005306D03*
X004866Y005311D03*
X004866Y005316D03*
X005166Y004886D03*
X005161Y004881D03*
X005156Y004876D03*
X005146Y004871D03*
X005141Y004866D03*
X005126Y004856D03*
X005111Y004846D03*
X005106Y004841D03*
X005091Y004831D03*
X005046Y004801D03*
X005031Y004791D03*
X005026Y004786D03*
X005021Y004781D03*
X005006Y004771D03*
X005176Y004891D03*
X005181Y004896D03*
X005191Y004901D03*
X005196Y004906D03*
X005211Y004916D03*
X005586Y004816D03*
X005616Y005011D03*
X005111Y004496D03*
X005241Y006021D03*
X005241Y006026D03*
D16*
X005111Y006221D03*
X005521Y006416D03*
X006461Y005911D03*
X006461Y005371D03*
X006456Y005366D03*
X006201Y004846D03*
X005471Y004666D03*
X005111Y004501D03*
X004006Y004771D03*
X003921Y005801D03*
X004206Y005951D03*
D17*
X004171Y005931D03*
X004836Y004621D03*
X005111Y004506D03*
X006366Y005961D03*
X005521Y006411D03*
D18*
X005519Y006406D03*
X005099Y006251D03*
X004139Y004711D03*
X005109Y004511D03*
D19*
X005109Y004516D03*
X004114Y005886D03*
D20*
X005111Y004521D03*
X006206Y006016D03*
D21*
X006216Y006006D03*
X005111Y004526D03*
D22*
X005111Y004531D03*
X006226Y005991D03*
D23*
X005509Y006376D03*
X005109Y004536D03*
D24*
X005111Y004541D03*
D25*
X005109Y004546D03*
X005484Y006356D03*
D26*
X005466Y006341D03*
X005111Y004551D03*
D27*
X005111Y004556D03*
X005456Y006331D03*
D28*
X005109Y004561D03*
D29*
X005109Y004566D03*
X005754Y004711D03*
D30*
X005784Y004726D03*
X005109Y004571D03*
D31*
X005109Y004576D03*
X005809Y004741D03*
D32*
X005839Y004761D03*
X005109Y004581D03*
D33*
X005109Y004586D03*
X005844Y004766D03*
X005849Y004771D03*
D34*
X005109Y004591D03*
D35*
X005109Y004596D03*
D36*
X004926Y004706D03*
X004991Y005121D03*
X004856Y005351D03*
X004851Y005361D03*
X004851Y005366D03*
X005396Y005481D03*
X005561Y005456D03*
X005616Y004986D03*
X005581Y004821D03*
X004376Y004596D03*
X005236Y006051D03*
D37*
X005111Y004601D03*
D38*
X005191Y004931D03*
X004376Y004601D03*
X003901Y005256D03*
X003896Y005261D03*
X003891Y005271D03*
X003886Y005276D03*
X003881Y005281D03*
X003876Y005286D03*
X003871Y005761D03*
X003876Y005766D03*
X003881Y005771D03*
X004216Y005956D03*
X004341Y006176D03*
X004346Y006181D03*
X004351Y006186D03*
X006241Y004876D03*
X006246Y004881D03*
X006331Y005271D03*
X006491Y005396D03*
X006496Y005401D03*
X006496Y005881D03*
X006491Y005886D03*
D39*
X005324Y004606D03*
X004374Y004616D03*
X004129Y005896D03*
D40*
X004121Y005891D03*
X004071Y005861D03*
X005306Y006311D03*
X006186Y006036D03*
X006306Y005976D03*
X004896Y004606D03*
D41*
X004376Y004606D03*
X004076Y004731D03*
X004181Y005936D03*
X004461Y006256D03*
X005106Y006236D03*
X006131Y004806D03*
D42*
X005354Y004611D03*
X004864Y004611D03*
X005274Y006306D03*
D43*
X006331Y005971D03*
X004376Y004611D03*
X004041Y005856D03*
X004151Y005916D03*
D44*
X004164Y005926D03*
X004024Y005851D03*
X004849Y004616D03*
X005369Y004616D03*
X006349Y005966D03*
D45*
X006154Y006061D03*
X005184Y004956D03*
X005384Y004621D03*
X005639Y004786D03*
X006114Y004801D03*
D46*
X006201Y006021D03*
X004376Y004621D03*
D47*
X004639Y004721D03*
X004819Y004626D03*
X005174Y004946D03*
X005399Y004626D03*
X006379Y005956D03*
X003994Y005841D03*
D48*
X004374Y004626D03*
D49*
X004809Y004631D03*
X005174Y004941D03*
X005409Y004631D03*
X006139Y004811D03*
X006389Y005951D03*
X003984Y005836D03*
D50*
X004374Y004631D03*
X005534Y006391D03*
D51*
X006369Y005311D03*
X006364Y005306D03*
X006404Y005336D03*
X006149Y004816D03*
X005419Y004636D03*
X004799Y004636D03*
X003974Y005831D03*
X004439Y006246D03*
D52*
X004374Y004636D03*
D53*
X004789Y004641D03*
X005429Y004641D03*
X005834Y004681D03*
X006169Y004826D03*
X006354Y005296D03*
X006359Y005301D03*
X006419Y005936D03*
X004429Y006241D03*
X003954Y005821D03*
D54*
X004374Y004641D03*
D55*
X004046Y004746D03*
X004036Y004751D03*
X003946Y005816D03*
X004196Y005946D03*
X004421Y006236D03*
X005436Y004646D03*
X005446Y004651D03*
X006421Y005346D03*
X006431Y005351D03*
X006431Y005931D03*
D56*
X006411Y005941D03*
X006411Y005341D03*
X006161Y004821D03*
X005171Y004961D03*
X004781Y004646D03*
X004646Y004726D03*
X004056Y004741D03*
X003961Y005826D03*
X005106Y006231D03*
D57*
X005489Y006361D03*
X004374Y004646D03*
D58*
X004496Y004651D03*
D59*
X004021Y004761D03*
X003936Y005811D03*
X004406Y006226D03*
X004411Y006231D03*
X005456Y004656D03*
X006186Y004836D03*
X006446Y005921D03*
D60*
X005579Y005371D03*
X005579Y005366D03*
X005404Y005546D03*
X004804Y005521D03*
X004804Y005516D03*
X005004Y005021D03*
X005004Y005016D03*
X004899Y004656D03*
X005624Y004916D03*
X005224Y006136D03*
X005224Y006141D03*
D61*
X004474Y004656D03*
X004464Y004661D03*
D62*
X004654Y004731D03*
X005159Y004966D03*
X005464Y004661D03*
X006194Y004841D03*
X006344Y005286D03*
X006449Y005361D03*
X006454Y005916D03*
X004399Y006221D03*
X003929Y005806D03*
X004014Y004766D03*
D63*
X004814Y005486D03*
X004809Y005496D03*
X004809Y005501D03*
X005404Y005536D03*
X005404Y005541D03*
X005579Y005381D03*
X005579Y004831D03*
X004904Y004661D03*
X005229Y006121D03*
D64*
X005226Y006116D03*
X005401Y005531D03*
X005576Y005391D03*
X005576Y005386D03*
X005621Y004936D03*
X005621Y004931D03*
X005001Y005041D03*
X005001Y005046D03*
X004676Y004776D03*
X004906Y004666D03*
X004816Y005476D03*
X004816Y005481D03*
X004811Y005491D03*
D65*
X004426Y004681D03*
X004436Y004676D03*
X004456Y004666D03*
D66*
X003999Y004776D03*
X003994Y004781D03*
X003914Y005796D03*
X004384Y006211D03*
X004389Y006216D03*
X005484Y004676D03*
X005479Y004671D03*
X006209Y004851D03*
X006339Y005281D03*
X006469Y005376D03*
X006469Y005906D03*
D67*
X005571Y005406D03*
X005401Y005521D03*
X004821Y005461D03*
X004821Y005456D03*
X005231Y006101D03*
X005621Y004951D03*
X005621Y004946D03*
X005621Y004941D03*
X004906Y004671D03*
D68*
X004444Y004671D03*
X004419Y004686D03*
X004409Y004691D03*
X004404Y004696D03*
X004394Y004701D03*
D69*
X003914Y004861D03*
X003909Y004866D03*
X003909Y004871D03*
X003904Y004876D03*
X003899Y005201D03*
X003904Y005211D03*
X003909Y005216D03*
X003909Y005221D03*
X003914Y005231D03*
X003914Y005236D03*
X003814Y005356D03*
X003809Y005361D03*
X003804Y005371D03*
X003809Y005686D03*
X003814Y005696D03*
X003819Y005701D03*
X004229Y005961D03*
X004284Y006106D03*
X004289Y006111D03*
X004289Y006116D03*
X004294Y006121D03*
X004299Y006126D03*
X004959Y004756D03*
X005834Y004676D03*
X006299Y004941D03*
X006304Y004946D03*
X006304Y004951D03*
X006309Y004956D03*
X006314Y004966D03*
X006324Y005261D03*
X006549Y005456D03*
X006554Y005466D03*
X006559Y005471D03*
X006564Y005476D03*
X006569Y005486D03*
X006569Y005796D03*
X006564Y005806D03*
X006559Y005811D03*
X006554Y005816D03*
X006549Y005826D03*
D70*
X005739Y006406D03*
X005739Y006411D03*
X005719Y006286D03*
X005719Y006281D03*
X005714Y006256D03*
X005714Y006251D03*
X005709Y006226D03*
X005709Y006221D03*
X005704Y006196D03*
X005699Y006166D03*
X005694Y006136D03*
X005689Y006106D03*
X005229Y006096D03*
X005399Y005516D03*
X005574Y005411D03*
X004999Y005066D03*
X004999Y005061D03*
X004909Y004676D03*
X004829Y005436D03*
X004829Y005441D03*
X004824Y005446D03*
X004824Y005451D03*
D71*
X004656Y004736D03*
X003986Y004786D03*
X003901Y005786D03*
X003906Y005791D03*
X004376Y006206D03*
X005651Y006311D03*
X006121Y006076D03*
X006476Y005901D03*
X006481Y005896D03*
X006481Y005386D03*
X006476Y005381D03*
X006336Y005276D03*
X006221Y004861D03*
X006216Y004856D03*
X005611Y004796D03*
X005491Y004681D03*
D72*
X005621Y004956D03*
X005621Y004961D03*
X005661Y005066D03*
X005671Y005091D03*
X005681Y005116D03*
X005691Y005141D03*
X005716Y005206D03*
X005726Y005231D03*
X005736Y005256D03*
X005746Y005281D03*
X005771Y005346D03*
X005781Y005371D03*
X005791Y005396D03*
X005801Y005421D03*
X005826Y005486D03*
X005836Y005511D03*
X005846Y005536D03*
X005856Y005561D03*
X005891Y005651D03*
X005901Y005676D03*
X005911Y005701D03*
X005921Y005726D03*
X005946Y005791D03*
X005956Y005816D03*
X005966Y005841D03*
X005976Y005866D03*
X005986Y005891D03*
X005996Y005916D03*
X006001Y005931D03*
X006011Y005956D03*
X005676Y006021D03*
X005676Y006026D03*
X005676Y006031D03*
X005676Y006036D03*
X005676Y006041D03*
X005676Y006046D03*
X005681Y006051D03*
X005681Y006056D03*
X005681Y006061D03*
X005681Y006066D03*
X005681Y006071D03*
X005681Y006076D03*
X005686Y006081D03*
X005686Y006086D03*
X005686Y006091D03*
X005686Y006096D03*
X005686Y006101D03*
X005691Y006111D03*
X005691Y006116D03*
X005691Y006121D03*
X005691Y006126D03*
X005691Y006131D03*
X005696Y006141D03*
X005696Y006146D03*
X005696Y006151D03*
X005696Y006156D03*
X005696Y006161D03*
X005701Y006171D03*
X005701Y006176D03*
X005701Y006181D03*
X005701Y006186D03*
X005701Y006191D03*
X005706Y006201D03*
X005706Y006206D03*
X005706Y006211D03*
X005706Y006216D03*
X005711Y006231D03*
X005711Y006236D03*
X005711Y006241D03*
X005711Y006246D03*
X005716Y006261D03*
X005716Y006266D03*
X005716Y006271D03*
X005716Y006276D03*
X005741Y006416D03*
X005741Y006421D03*
X005671Y006016D03*
X005671Y006011D03*
X005671Y006006D03*
X005671Y006001D03*
X005671Y005996D03*
X005671Y005991D03*
X005666Y005981D03*
X005666Y005976D03*
X005666Y005971D03*
X005666Y005966D03*
X005666Y005961D03*
X005661Y005951D03*
X005661Y005946D03*
X005661Y005941D03*
X005661Y005936D03*
X005656Y005926D03*
X005656Y005921D03*
X005656Y005916D03*
X005656Y005911D03*
X005656Y005906D03*
X005651Y005896D03*
X005651Y005891D03*
X005651Y005886D03*
X005651Y005881D03*
X005651Y005876D03*
X005646Y005866D03*
X005646Y005861D03*
X005646Y005856D03*
X005646Y005851D03*
X005646Y005846D03*
X005641Y005836D03*
X005641Y005831D03*
X005641Y005826D03*
X005641Y005821D03*
X005636Y005811D03*
X005636Y005806D03*
X005636Y005801D03*
X005636Y005796D03*
X005636Y005791D03*
X005631Y005781D03*
X005631Y005776D03*
X005631Y005771D03*
X005631Y005766D03*
X005631Y005761D03*
X005626Y005751D03*
X005626Y005746D03*
X005626Y005741D03*
X005626Y005736D03*
X005626Y005731D03*
X005621Y005721D03*
X005621Y005716D03*
X005621Y005711D03*
X005621Y005706D03*
X005621Y005701D03*
X005616Y005691D03*
X005616Y005686D03*
X005616Y005681D03*
X005616Y005676D03*
X005611Y005666D03*
X005611Y005661D03*
X005611Y005656D03*
X005611Y005651D03*
X005611Y005646D03*
X005606Y005636D03*
X005606Y005631D03*
X005606Y005626D03*
X005606Y005621D03*
X005606Y005616D03*
X005601Y005606D03*
X005601Y005601D03*
X005601Y005596D03*
X005601Y005591D03*
X005601Y005586D03*
X005596Y005576D03*
X005596Y005571D03*
X005596Y005566D03*
X005596Y005561D03*
X005591Y005551D03*
X005591Y005546D03*
X005591Y005541D03*
X005591Y005536D03*
X005591Y005531D03*
X005571Y005416D03*
X005451Y005376D03*
X005461Y005351D03*
X005471Y005326D03*
X005441Y005401D03*
X005401Y005511D03*
X005116Y005586D03*
X005111Y005566D03*
X005106Y005546D03*
X005101Y005521D03*
X005096Y005501D03*
X005091Y005481D03*
X005086Y005456D03*
X005081Y005436D03*
X005076Y005416D03*
X005071Y005391D03*
X005066Y005371D03*
X005061Y005351D03*
X005056Y005326D03*
X005051Y005306D03*
X005046Y005286D03*
X005041Y005261D03*
X005036Y005246D03*
X005036Y005241D03*
X005031Y005231D03*
X005031Y005226D03*
X005031Y005221D03*
X005026Y005206D03*
X005026Y005201D03*
X005026Y005196D03*
X005021Y005186D03*
X005021Y005181D03*
X004996Y005076D03*
X004996Y005071D03*
X004881Y005011D03*
X004881Y005006D03*
X004881Y005001D03*
X004881Y004996D03*
X004881Y004991D03*
X004881Y004986D03*
X004881Y004981D03*
X004881Y004976D03*
X004881Y004971D03*
X004886Y004966D03*
X004886Y004961D03*
X004886Y004956D03*
X004886Y004951D03*
X004886Y004946D03*
X004886Y004941D03*
X004886Y004936D03*
X004886Y004931D03*
X004886Y004926D03*
X004886Y004921D03*
X004891Y004916D03*
X004891Y004911D03*
X004891Y004906D03*
X004891Y004901D03*
X004891Y004896D03*
X004891Y004891D03*
X004891Y004886D03*
X004891Y004881D03*
X004891Y004876D03*
X004891Y004871D03*
X004896Y004866D03*
X004896Y004861D03*
X004896Y004856D03*
X004896Y004851D03*
X004896Y004846D03*
X004896Y004841D03*
X004896Y004836D03*
X004896Y004831D03*
X004896Y004826D03*
X004896Y004821D03*
X004901Y004816D03*
X004901Y004811D03*
X004901Y004806D03*
X004901Y004801D03*
X004901Y004796D03*
X004901Y004791D03*
X004901Y004786D03*
X004901Y004781D03*
X004901Y004776D03*
X004901Y004771D03*
X004906Y004766D03*
X004911Y004681D03*
X004876Y005021D03*
X004876Y005026D03*
X004876Y005031D03*
X004876Y005036D03*
X004871Y005071D03*
X004871Y005076D03*
X004871Y005081D03*
X004866Y005121D03*
X004866Y005126D03*
X004861Y005151D03*
X004861Y005156D03*
X004861Y005161D03*
X004861Y005166D03*
X004861Y005171D03*
X004856Y005181D03*
X004856Y005186D03*
X004856Y005191D03*
X004856Y005196D03*
X004856Y005201D03*
X004856Y005206D03*
X004856Y005211D03*
X004856Y005216D03*
X004851Y005226D03*
X004851Y005231D03*
X004851Y005236D03*
X004851Y005241D03*
X004851Y005246D03*
X004851Y005251D03*
X004831Y005426D03*
X004831Y005431D03*
X005121Y005611D03*
X005126Y005631D03*
X005131Y005651D03*
X005136Y005676D03*
X005141Y005696D03*
X005146Y005716D03*
X005151Y005741D03*
X005156Y005761D03*
X005161Y005781D03*
X005166Y005806D03*
X005171Y005826D03*
X005176Y005846D03*
X005181Y005871D03*
X005186Y005891D03*
X005191Y005911D03*
X005196Y005931D03*
X005196Y005936D03*
X005201Y005956D03*
X005206Y005976D03*
X005231Y006086D03*
X005231Y006091D03*
D73*
X005101Y006246D03*
X004756Y006376D03*
X004116Y004716D03*
X005836Y004686D03*
D74*
X006229Y004866D03*
X006234Y004871D03*
X006489Y005391D03*
X006484Y005891D03*
X005509Y004696D03*
X005504Y004691D03*
X005499Y004686D03*
X003979Y004791D03*
X003974Y004796D03*
X003969Y004801D03*
X003889Y005776D03*
X003894Y005781D03*
X004359Y006191D03*
X004364Y006196D03*
X004369Y006201D03*
D75*
X005119Y006176D03*
X005234Y006081D03*
X005234Y006076D03*
X005209Y005991D03*
X005209Y005986D03*
X005209Y005981D03*
X005204Y005971D03*
X005204Y005966D03*
X005204Y005961D03*
X005199Y005951D03*
X005199Y005946D03*
X005199Y005941D03*
X005194Y005926D03*
X005194Y005921D03*
X005194Y005916D03*
X005189Y005906D03*
X005189Y005901D03*
X005189Y005896D03*
X005184Y005886D03*
X005184Y005881D03*
X005184Y005876D03*
X005179Y005866D03*
X005179Y005861D03*
X005179Y005856D03*
X005179Y005851D03*
X005174Y005841D03*
X005174Y005836D03*
X005174Y005831D03*
X005169Y005821D03*
X005169Y005816D03*
X005169Y005811D03*
X005164Y005801D03*
X005164Y005796D03*
X005164Y005791D03*
X005164Y005786D03*
X005159Y005776D03*
X005159Y005771D03*
X005159Y005766D03*
X005154Y005756D03*
X005154Y005751D03*
X005154Y005746D03*
X005149Y005736D03*
X005149Y005731D03*
X005149Y005726D03*
X005149Y005721D03*
X005144Y005711D03*
X005144Y005706D03*
X005144Y005701D03*
X005139Y005691D03*
X005139Y005686D03*
X005139Y005681D03*
X005134Y005671D03*
X005134Y005666D03*
X005134Y005661D03*
X005134Y005656D03*
X005129Y005646D03*
X005129Y005641D03*
X005129Y005636D03*
X005124Y005626D03*
X005124Y005621D03*
X005124Y005616D03*
X005119Y005606D03*
X005119Y005601D03*
X005119Y005596D03*
X005119Y005591D03*
X005114Y005581D03*
X005114Y005576D03*
X005114Y005571D03*
X005109Y005561D03*
X005109Y005556D03*
X005109Y005551D03*
X005104Y005541D03*
X005104Y005536D03*
X005104Y005531D03*
X005104Y005526D03*
X005099Y005516D03*
X005099Y005511D03*
X005099Y005506D03*
X005094Y005496D03*
X005094Y005491D03*
X005094Y005486D03*
X005089Y005476D03*
X005089Y005471D03*
X005089Y005466D03*
X005089Y005461D03*
X005084Y005451D03*
X005084Y005446D03*
X005084Y005441D03*
X005079Y005431D03*
X005079Y005426D03*
X005079Y005421D03*
X005074Y005411D03*
X005074Y005406D03*
X005074Y005401D03*
X005074Y005396D03*
X005069Y005386D03*
X005069Y005381D03*
X005069Y005376D03*
X005064Y005366D03*
X005064Y005361D03*
X005064Y005356D03*
X005059Y005346D03*
X005059Y005341D03*
X005059Y005336D03*
X005059Y005331D03*
X005054Y005321D03*
X005054Y005316D03*
X005054Y005311D03*
X005049Y005301D03*
X005049Y005296D03*
X005049Y005291D03*
X005044Y005281D03*
X005044Y005276D03*
X005044Y005271D03*
X005044Y005266D03*
X005039Y005256D03*
X005039Y005251D03*
X005034Y005236D03*
X005029Y005216D03*
X005029Y005211D03*
X005024Y005191D03*
X004954Y005181D03*
X004949Y005191D03*
X004944Y005201D03*
X004939Y005211D03*
X004934Y005221D03*
X004929Y005231D03*
X004924Y005241D03*
X004919Y005251D03*
X004854Y005221D03*
X004859Y005176D03*
X004864Y005146D03*
X004864Y005141D03*
X004864Y005136D03*
X004864Y005131D03*
X004869Y005116D03*
X004869Y005111D03*
X004869Y005106D03*
X004869Y005101D03*
X004869Y005096D03*
X004869Y005091D03*
X004869Y005086D03*
X004874Y005066D03*
X004874Y005061D03*
X004874Y005056D03*
X004874Y005051D03*
X004874Y005046D03*
X004874Y005041D03*
X004879Y005016D03*
X004999Y005081D03*
X004914Y004686D03*
X005514Y005216D03*
X005519Y005206D03*
X005524Y005196D03*
X005524Y005191D03*
X005529Y005181D03*
X005534Y005171D03*
X005534Y005166D03*
X005539Y005156D03*
X005544Y005146D03*
X005544Y005141D03*
X005549Y005131D03*
X005554Y005121D03*
X005559Y005106D03*
X005564Y005096D03*
X005574Y005071D03*
X005654Y005051D03*
X005659Y005056D03*
X005659Y005061D03*
X005664Y005071D03*
X005664Y005076D03*
X005669Y005081D03*
X005669Y005086D03*
X005674Y005096D03*
X005674Y005101D03*
X005679Y005106D03*
X005679Y005111D03*
X005684Y005121D03*
X005684Y005126D03*
X005689Y005131D03*
X005689Y005136D03*
X005694Y005146D03*
X005694Y005151D03*
X005699Y005156D03*
X005699Y005161D03*
X005699Y005166D03*
X005704Y005171D03*
X005704Y005176D03*
X005709Y005181D03*
X005709Y005186D03*
X005709Y005191D03*
X005714Y005196D03*
X005714Y005201D03*
X005719Y005211D03*
X005719Y005216D03*
X005724Y005221D03*
X005724Y005226D03*
X005729Y005236D03*
X005729Y005241D03*
X005734Y005246D03*
X005734Y005251D03*
X005739Y005261D03*
X005739Y005266D03*
X005744Y005271D03*
X005744Y005276D03*
X005749Y005286D03*
X005749Y005291D03*
X005754Y005296D03*
X005754Y005301D03*
X005754Y005306D03*
X005759Y005311D03*
X005759Y005316D03*
X005764Y005321D03*
X005764Y005326D03*
X005764Y005331D03*
X005769Y005336D03*
X005769Y005341D03*
X005774Y005351D03*
X005774Y005356D03*
X005779Y005361D03*
X005779Y005366D03*
X005784Y005376D03*
X005784Y005381D03*
X005789Y005386D03*
X005789Y005391D03*
X005794Y005401D03*
X005794Y005406D03*
X005799Y005411D03*
X005799Y005416D03*
X005804Y005426D03*
X005804Y005431D03*
X005809Y005436D03*
X005809Y005441D03*
X005809Y005446D03*
X005814Y005451D03*
X005814Y005456D03*
X005819Y005461D03*
X005819Y005466D03*
X005819Y005471D03*
X005824Y005476D03*
X005824Y005481D03*
X005829Y005491D03*
X005829Y005496D03*
X005834Y005501D03*
X005834Y005506D03*
X005839Y005516D03*
X005839Y005521D03*
X005844Y005526D03*
X005844Y005531D03*
X005849Y005541D03*
X005849Y005546D03*
X005854Y005551D03*
X005854Y005556D03*
X005859Y005566D03*
X005859Y005571D03*
X005864Y005576D03*
X005864Y005581D03*
X005864Y005586D03*
X005869Y005591D03*
X005869Y005596D03*
X005874Y005601D03*
X005874Y005606D03*
X005874Y005611D03*
X005879Y005616D03*
X005879Y005621D03*
X005884Y005626D03*
X005884Y005631D03*
X005884Y005636D03*
X005889Y005641D03*
X005889Y005646D03*
X005894Y005656D03*
X005894Y005661D03*
X005899Y005666D03*
X005899Y005671D03*
X005904Y005681D03*
X005904Y005686D03*
X005909Y005691D03*
X005909Y005696D03*
X005914Y005706D03*
X005914Y005711D03*
X005919Y005716D03*
X005919Y005721D03*
X005924Y005731D03*
X005924Y005736D03*
X005929Y005741D03*
X005929Y005746D03*
X005929Y005751D03*
X005934Y005756D03*
X005934Y005761D03*
X005939Y005766D03*
X005939Y005771D03*
X005939Y005776D03*
X005944Y005781D03*
X005944Y005786D03*
X005949Y005796D03*
X005949Y005801D03*
X005954Y005806D03*
X005954Y005811D03*
X005959Y005821D03*
X005959Y005826D03*
X005964Y005831D03*
X005964Y005836D03*
X005969Y005846D03*
X005969Y005851D03*
X005974Y005856D03*
X005974Y005861D03*
X005979Y005871D03*
X005979Y005876D03*
X005984Y005881D03*
X005984Y005886D03*
X005989Y005896D03*
X005989Y005901D03*
X005994Y005906D03*
X005994Y005911D03*
X005999Y005921D03*
X005999Y005926D03*
X006004Y005936D03*
X006004Y005941D03*
X006009Y005946D03*
X006009Y005951D03*
X006014Y005961D03*
X006014Y005966D03*
X006019Y005971D03*
X006064Y006091D03*
X006064Y006096D03*
X006069Y006106D03*
X006074Y006121D03*
X006079Y006131D03*
X006084Y006146D03*
X006089Y006156D03*
X006094Y006171D03*
X006104Y006196D03*
X006114Y006221D03*
X006119Y006236D03*
X006124Y006246D03*
X006129Y006261D03*
X006134Y006271D03*
X006139Y006286D03*
X006144Y006296D03*
X006149Y006311D03*
X006154Y006321D03*
X006159Y006336D03*
X006164Y006346D03*
X006169Y006361D03*
X006174Y006371D03*
X006174Y006376D03*
X006179Y006386D03*
X006184Y006396D03*
X006184Y006401D03*
X006184Y006406D03*
X006189Y006411D03*
X006189Y006416D03*
X006194Y006421D03*
X005669Y005986D03*
X005664Y005956D03*
X005659Y005931D03*
X005654Y005901D03*
X005649Y005871D03*
X005644Y005841D03*
X005639Y005816D03*
X005634Y005786D03*
X005629Y005756D03*
X005624Y005726D03*
X005619Y005696D03*
X005614Y005671D03*
X005609Y005641D03*
X005604Y005611D03*
X005599Y005581D03*
X005594Y005556D03*
X005589Y005526D03*
X005569Y005421D03*
X005449Y005386D03*
X005449Y005381D03*
X005454Y005371D03*
X005454Y005366D03*
X005459Y005361D03*
X005459Y005356D03*
X005464Y005346D03*
X005464Y005341D03*
X005469Y005336D03*
X005469Y005331D03*
X005474Y005321D03*
X005474Y005316D03*
X005479Y005311D03*
X005479Y005306D03*
X005479Y005301D03*
X005484Y005296D03*
X005484Y005291D03*
X005489Y005286D03*
X005489Y005281D03*
X005489Y005276D03*
X005494Y005266D03*
X005499Y005256D03*
X005499Y005251D03*
X005504Y005241D03*
X005509Y005231D03*
X005509Y005226D03*
X005444Y005391D03*
X005444Y005396D03*
X005439Y005406D03*
X005439Y005411D03*
X005434Y005416D03*
X005434Y005421D03*
X005434Y005426D03*
X005399Y005506D03*
X005449Y005656D03*
X005444Y005666D03*
X005439Y005676D03*
X005434Y005686D03*
X005429Y005696D03*
X005424Y005706D03*
X005419Y005716D03*
X005414Y005726D03*
X005409Y005736D03*
X005404Y005746D03*
X005399Y005751D03*
X005399Y005756D03*
X005394Y005761D03*
X005394Y005766D03*
X005389Y005771D03*
X005389Y005776D03*
X005384Y005781D03*
X005384Y005786D03*
X005379Y005791D03*
X005374Y005801D03*
X005369Y005811D03*
X005364Y005821D03*
X005359Y005831D03*
X005354Y005841D03*
X005349Y005851D03*
X005344Y005861D03*
X005339Y005871D03*
X005334Y005881D03*
X005329Y005891D03*
X005324Y005901D03*
X005319Y005911D03*
X005314Y005921D03*
X005309Y005931D03*
X005304Y005941D03*
X005299Y005951D03*
X005294Y005961D03*
X005289Y005971D03*
X005284Y005981D03*
X005279Y005991D03*
X004834Y005421D03*
X004834Y005416D03*
X005584Y004826D03*
D76*
X005834Y004691D03*
D77*
X005621Y004966D03*
X005621Y004971D03*
X005581Y005051D03*
X005581Y005056D03*
X005576Y005061D03*
X005576Y005066D03*
X005571Y005076D03*
X005571Y005081D03*
X005566Y005086D03*
X005566Y005091D03*
X005561Y005101D03*
X005556Y005111D03*
X005556Y005116D03*
X005551Y005126D03*
X005546Y005136D03*
X005541Y005151D03*
X005536Y005161D03*
X005531Y005176D03*
X005526Y005186D03*
X005521Y005201D03*
X005516Y005211D03*
X005511Y005221D03*
X005506Y005236D03*
X005501Y005246D03*
X005496Y005261D03*
X005491Y005271D03*
X005321Y005361D03*
X005306Y005336D03*
X005301Y005326D03*
X005291Y005311D03*
X005286Y005301D03*
X005281Y005291D03*
X005276Y005286D03*
X005271Y005276D03*
X005266Y005266D03*
X005261Y005261D03*
X005256Y005251D03*
X005251Y005241D03*
X005246Y005231D03*
X005241Y005226D03*
X005241Y005221D03*
X005236Y005216D03*
X005236Y005211D03*
X005231Y005206D03*
X005226Y005201D03*
X005226Y005196D03*
X005221Y005191D03*
X005221Y005186D03*
X005216Y005181D03*
X005211Y005176D03*
X005211Y005171D03*
X005206Y005166D03*
X005206Y005161D03*
X005201Y005156D03*
X005196Y005151D03*
X005196Y005146D03*
X005191Y005141D03*
X005191Y005136D03*
X005186Y005131D03*
X005181Y005126D03*
X005181Y005121D03*
X005176Y005116D03*
X005176Y005111D03*
X005171Y005106D03*
X005166Y005101D03*
X005166Y005096D03*
X005161Y005091D03*
X005161Y005086D03*
X005156Y005081D03*
X005151Y005076D03*
X005151Y005071D03*
X005146Y005066D03*
X005146Y005061D03*
X005141Y005056D03*
X005136Y005051D03*
X005136Y005046D03*
X005131Y005041D03*
X005131Y005036D03*
X005126Y005031D03*
X005121Y005026D03*
X005121Y005021D03*
X005116Y005016D03*
X005116Y005011D03*
X005111Y005006D03*
X005106Y005001D03*
X005106Y004996D03*
X005101Y004991D03*
X004996Y005086D03*
X004996Y005091D03*
X004951Y005186D03*
X004946Y005196D03*
X004941Y005206D03*
X004936Y005216D03*
X004931Y005226D03*
X004926Y005236D03*
X004921Y005246D03*
X004836Y005411D03*
X005336Y005386D03*
X005401Y005501D03*
X005501Y005551D03*
X005501Y005556D03*
X005496Y005561D03*
X005496Y005566D03*
X005491Y005571D03*
X005491Y005576D03*
X005486Y005581D03*
X005486Y005586D03*
X005481Y005591D03*
X005481Y005596D03*
X005476Y005601D03*
X005476Y005606D03*
X005471Y005611D03*
X005471Y005616D03*
X005466Y005621D03*
X005466Y005626D03*
X005461Y005631D03*
X005461Y005636D03*
X005456Y005641D03*
X005456Y005646D03*
X005451Y005651D03*
X005446Y005661D03*
X005441Y005671D03*
X005436Y005681D03*
X005431Y005691D03*
X005426Y005701D03*
X005421Y005711D03*
X005416Y005721D03*
X005411Y005731D03*
X005406Y005741D03*
X005376Y005796D03*
X005371Y005806D03*
X005366Y005816D03*
X005361Y005826D03*
X005356Y005836D03*
X005351Y005846D03*
X005346Y005856D03*
X005341Y005866D03*
X005336Y005876D03*
X005331Y005886D03*
X005326Y005896D03*
X005321Y005906D03*
X005316Y005916D03*
X005311Y005926D03*
X005306Y005936D03*
X005301Y005946D03*
X005296Y005956D03*
X005291Y005966D03*
X005286Y005976D03*
X005281Y005986D03*
X005506Y005546D03*
X005511Y005536D03*
X005516Y005526D03*
X005566Y005431D03*
X005566Y005426D03*
X006066Y006101D03*
X006071Y006111D03*
X006071Y006116D03*
X006076Y006126D03*
X006081Y006136D03*
X006081Y006141D03*
X006086Y006151D03*
X006091Y006161D03*
X006091Y006166D03*
X006096Y006176D03*
X006096Y006181D03*
X006101Y006186D03*
X006101Y006191D03*
X006106Y006201D03*
X006106Y006206D03*
X006111Y006211D03*
X006111Y006216D03*
X006116Y006226D03*
X006116Y006231D03*
X006121Y006241D03*
X006126Y006251D03*
X006126Y006256D03*
X006131Y006266D03*
X006136Y006276D03*
X006136Y006281D03*
X006141Y006291D03*
X006146Y006301D03*
X006146Y006306D03*
X006151Y006316D03*
X006156Y006326D03*
X006156Y006331D03*
X006161Y006341D03*
X006166Y006351D03*
X006166Y006356D03*
X006171Y006366D03*
X006176Y006381D03*
X006181Y006391D03*
X004916Y004691D03*
D78*
X005834Y004696D03*
X006199Y006026D03*
D79*
X005566Y005441D03*
X005566Y005436D03*
X005621Y004981D03*
X005106Y004986D03*
X004921Y004696D03*
X004846Y005381D03*
X004846Y005386D03*
X005236Y006061D03*
X005236Y006066D03*
D80*
X004754Y006361D03*
X006209Y006011D03*
X005834Y004701D03*
D81*
X005514Y004701D03*
X006249Y004886D03*
X006254Y004891D03*
X006504Y005406D03*
X006509Y005411D03*
X006514Y005416D03*
X006514Y005866D03*
X006509Y005871D03*
X006504Y005876D03*
X005114Y006216D03*
X003864Y005756D03*
X003859Y005751D03*
X003854Y005306D03*
X003859Y005301D03*
X003864Y005296D03*
X003869Y005291D03*
X003894Y005266D03*
X003904Y005251D03*
X003954Y004816D03*
X003959Y004811D03*
X003964Y004806D03*
D82*
X004849Y005371D03*
X004849Y005376D03*
X004994Y005116D03*
X004994Y005111D03*
X004994Y005106D03*
X005399Y005486D03*
X005564Y005451D03*
X005564Y005446D03*
X005239Y006056D03*
X005119Y006181D03*
X004924Y004701D03*
D83*
X005744Y004706D03*
D84*
X004386Y004706D03*
D85*
X004929Y004711D03*
X004994Y005126D03*
X004859Y005341D03*
X004859Y005346D03*
X004854Y005356D03*
X005399Y005476D03*
X005559Y005461D03*
X005619Y004991D03*
X005239Y006041D03*
X005239Y006046D03*
X005704Y006296D03*
D86*
X004139Y005906D03*
X004619Y004711D03*
D87*
X005769Y004716D03*
D88*
X005619Y005006D03*
X005559Y005471D03*
X005559Y005476D03*
X005239Y006031D03*
X005239Y006036D03*
X005519Y006421D03*
X006079Y006086D03*
X004989Y005141D03*
X004864Y005321D03*
X004864Y005326D03*
X005134Y004861D03*
X005119Y004851D03*
X005099Y004836D03*
X005084Y004826D03*
X005079Y004821D03*
X005069Y004816D03*
X005014Y004776D03*
X004999Y004766D03*
X004934Y004716D03*
D89*
X004631Y004716D03*
X006101Y004796D03*
X006161Y006056D03*
D90*
X005776Y004721D03*
X004756Y006316D03*
D91*
X005554Y005491D03*
X005619Y005016D03*
X005204Y004911D03*
X005119Y004981D03*
X005059Y004811D03*
X005054Y004806D03*
X005039Y004796D03*
X004934Y004721D03*
X004674Y004761D03*
X004989Y005151D03*
X004989Y005156D03*
X004989Y005161D03*
X004874Y005291D03*
X004874Y005296D03*
D92*
X004104Y004721D03*
X004009Y005846D03*
X004489Y006266D03*
X005104Y006241D03*
D93*
X005116Y006191D03*
X005241Y006016D03*
X005241Y006011D03*
X005691Y006301D03*
X005556Y005496D03*
X005396Y005451D03*
X005616Y005026D03*
X005616Y005021D03*
X005211Y004921D03*
X004986Y005166D03*
X004876Y005281D03*
X004876Y005286D03*
X004936Y004726D03*
D94*
X005181Y004951D03*
X004091Y004726D03*
X004471Y006261D03*
D95*
X005794Y004731D03*
D96*
X005591Y004811D03*
X005616Y005036D03*
X005551Y005511D03*
X005551Y005516D03*
X005246Y005996D03*
X005116Y006196D03*
X004881Y005266D03*
X004886Y005256D03*
X004986Y005176D03*
X004941Y004731D03*
X004671Y004756D03*
D97*
X005801Y004736D03*
X004756Y006311D03*
D98*
X005394Y005436D03*
X005394Y005431D03*
X005549Y005521D03*
X005619Y005041D03*
X004944Y004736D03*
D99*
X004066Y004736D03*
X004186Y005941D03*
X004451Y006251D03*
X004756Y006381D03*
X006146Y006066D03*
X006401Y005946D03*
X006396Y005331D03*
X006386Y005326D03*
X006381Y005321D03*
X006376Y005316D03*
D100*
X005616Y005046D03*
X004946Y004741D03*
D101*
X005146Y004971D03*
X005601Y004801D03*
X006261Y004896D03*
X006266Y004901D03*
X006271Y004906D03*
X006516Y005861D03*
X004756Y006386D03*
X004336Y006171D03*
X004331Y006166D03*
X004326Y006161D03*
X004321Y006156D03*
X003856Y005746D03*
X003851Y005741D03*
X003846Y005736D03*
X003851Y005311D03*
X003906Y005246D03*
X003946Y004821D03*
X004661Y004741D03*
D102*
X005819Y004746D03*
X005824Y004751D03*
D103*
X005596Y004806D03*
X004951Y004746D03*
X003871Y004941D03*
X003866Y004951D03*
X003866Y004956D03*
X003866Y004961D03*
X003861Y004971D03*
X003861Y004976D03*
X003861Y004981D03*
X003856Y004991D03*
X003856Y004996D03*
X003856Y005001D03*
X003856Y005006D03*
X003856Y005011D03*
X003851Y005051D03*
X003851Y005056D03*
X003851Y005061D03*
X003856Y005081D03*
X003856Y005086D03*
X003856Y005091D03*
X003856Y005096D03*
X003856Y005101D03*
X003861Y005106D03*
X003861Y005111D03*
X003861Y005116D03*
X003861Y005121D03*
X003866Y005126D03*
X003866Y005131D03*
X003871Y005146D03*
X003781Y005416D03*
X003776Y005431D03*
X003771Y005441D03*
X003771Y005446D03*
X003771Y005451D03*
X003766Y005461D03*
X003766Y005466D03*
X003766Y005471D03*
X003766Y005476D03*
X003761Y005491D03*
X003761Y005496D03*
X003761Y005501D03*
X003761Y005506D03*
X003761Y005511D03*
X003761Y005516D03*
X003761Y005521D03*
X003761Y005526D03*
X003761Y005531D03*
X003761Y005536D03*
X003761Y005541D03*
X003761Y005546D03*
X003761Y005551D03*
X003761Y005556D03*
X003766Y005576D03*
X003766Y005581D03*
X003766Y005586D03*
X003766Y005591D03*
X003771Y005596D03*
X003771Y005601D03*
X003771Y005606D03*
X003776Y005616D03*
X003776Y005621D03*
X004236Y005966D03*
X004236Y005971D03*
X004236Y005976D03*
X004241Y005991D03*
X004241Y005996D03*
X004241Y006001D03*
X004241Y006006D03*
X004246Y006016D03*
X004246Y006021D03*
X004246Y006026D03*
X004251Y006036D03*
X004256Y006051D03*
X006341Y005216D03*
X006346Y005206D03*
X006346Y005201D03*
X006346Y005196D03*
X006351Y005186D03*
X006351Y005181D03*
X006351Y005176D03*
X006351Y005171D03*
X006356Y005161D03*
X006356Y005156D03*
X006356Y005151D03*
X006356Y005146D03*
X006356Y005141D03*
X006356Y005136D03*
X006356Y005131D03*
X006356Y005126D03*
X006356Y005121D03*
X006356Y005116D03*
X006356Y005111D03*
X006356Y005106D03*
X006356Y005101D03*
X006356Y005096D03*
X006356Y005091D03*
X006356Y005086D03*
X006356Y005081D03*
X006351Y005066D03*
X006351Y005061D03*
X006351Y005056D03*
X006351Y005051D03*
X006346Y005046D03*
X006346Y005041D03*
X006346Y005036D03*
X006341Y005026D03*
X006596Y005546D03*
X006601Y005561D03*
X006601Y005566D03*
X006601Y005571D03*
X006606Y005576D03*
X006606Y005581D03*
X006606Y005586D03*
X006606Y005591D03*
X006611Y005601D03*
X006611Y005606D03*
X006611Y005611D03*
X006611Y005616D03*
X006611Y005621D03*
X006611Y005626D03*
X006611Y005631D03*
X006611Y005636D03*
X006611Y005641D03*
X006611Y005646D03*
X006611Y005651D03*
X006611Y005656D03*
X006611Y005661D03*
X006611Y005666D03*
X006611Y005671D03*
X006611Y005676D03*
X006606Y005691D03*
X006606Y005696D03*
X006606Y005701D03*
X006606Y005706D03*
X006601Y005711D03*
X006601Y005716D03*
X006601Y005721D03*
X006596Y005731D03*
X006596Y005736D03*
D104*
X006586Y005761D03*
X006581Y005771D03*
X006576Y005781D03*
X006571Y005791D03*
X006566Y005801D03*
X006586Y005521D03*
X006581Y005511D03*
X006576Y005501D03*
X006571Y005491D03*
X006566Y005481D03*
X006326Y005251D03*
X006331Y005241D03*
X006326Y004986D03*
X006321Y004976D03*
X006316Y004971D03*
X006311Y004961D03*
X005116Y006206D03*
X004281Y006101D03*
X004276Y006096D03*
X004276Y006091D03*
X004271Y006086D03*
X004271Y006081D03*
X003811Y005691D03*
X003806Y005681D03*
X003801Y005676D03*
X003801Y005671D03*
X003796Y005666D03*
X003791Y005656D03*
X003796Y005386D03*
X003796Y005381D03*
X003801Y005376D03*
X003806Y005366D03*
X003911Y005226D03*
X003901Y005206D03*
X003896Y005196D03*
X003891Y005191D03*
X003886Y005181D03*
X003881Y005171D03*
X003881Y004916D03*
X003886Y004906D03*
X003891Y004896D03*
X003896Y004891D03*
X003896Y004886D03*
X003901Y004881D03*
X004666Y004746D03*
D105*
X004954Y004751D03*
X005204Y004926D03*
X006324Y004981D03*
X006329Y004991D03*
X006329Y004996D03*
X006334Y005001D03*
X006334Y005006D03*
X006339Y005011D03*
X006339Y005016D03*
X006339Y005021D03*
X006344Y005031D03*
X006349Y005191D03*
X006344Y005211D03*
X006339Y005221D03*
X006339Y005226D03*
X006334Y005231D03*
X006334Y005236D03*
X006329Y005246D03*
X006324Y005256D03*
X006574Y005496D03*
X006579Y005506D03*
X006584Y005516D03*
X006589Y005526D03*
X006589Y005531D03*
X006594Y005536D03*
X006594Y005541D03*
X006599Y005551D03*
X006599Y005556D03*
X006599Y005726D03*
X006594Y005741D03*
X006594Y005746D03*
X006589Y005751D03*
X006589Y005756D03*
X006584Y005766D03*
X006579Y005776D03*
X006574Y005786D03*
X004269Y006076D03*
X004264Y006071D03*
X004264Y006066D03*
X004259Y006061D03*
X004259Y006056D03*
X004254Y006046D03*
X004254Y006041D03*
X004249Y006031D03*
X003794Y005661D03*
X003789Y005651D03*
X003789Y005646D03*
X003784Y005641D03*
X003784Y005636D03*
X003779Y005631D03*
X003779Y005626D03*
X003774Y005611D03*
X003769Y005456D03*
X003774Y005436D03*
X003779Y005426D03*
X003779Y005421D03*
X003784Y005411D03*
X003784Y005406D03*
X003789Y005401D03*
X003789Y005396D03*
X003794Y005391D03*
X003889Y005186D03*
X003884Y005176D03*
X003879Y005166D03*
X003879Y005161D03*
X003874Y005156D03*
X003874Y005151D03*
X003869Y005141D03*
X003869Y005136D03*
X003864Y004966D03*
X003869Y004946D03*
X003874Y004936D03*
X003874Y004931D03*
X003879Y004926D03*
X003879Y004921D03*
X003884Y004911D03*
X003889Y004901D03*
D106*
X003859Y004986D03*
X003854Y005016D03*
X003854Y005021D03*
X003854Y005026D03*
X003854Y005031D03*
X003854Y005036D03*
X003854Y005041D03*
X003854Y005046D03*
X003854Y005066D03*
X003854Y005071D03*
X003854Y005076D03*
X003764Y005481D03*
X003764Y005486D03*
X003764Y005561D03*
X003764Y005566D03*
X003764Y005571D03*
X004239Y005981D03*
X004239Y005986D03*
X004244Y006011D03*
X005114Y006201D03*
X005679Y006306D03*
X006609Y005686D03*
X006609Y005681D03*
X006609Y005596D03*
X006354Y005166D03*
X006354Y005076D03*
X006354Y005071D03*
X005134Y004976D03*
X004669Y004751D03*
D107*
X005831Y004756D03*
X004756Y006306D03*
D108*
X005109Y006226D03*
X006134Y006071D03*
X006439Y005926D03*
X006439Y005356D03*
X006349Y005291D03*
X006179Y004831D03*
X005619Y004791D03*
X005184Y004936D03*
X004029Y004756D03*
D109*
X003926Y004846D03*
X003921Y004851D03*
X003916Y004856D03*
X003836Y005326D03*
X003831Y005331D03*
X003826Y005336D03*
X003826Y005341D03*
X003821Y005346D03*
X003816Y005351D03*
X003821Y005706D03*
X003826Y005711D03*
X003831Y005716D03*
X003831Y005721D03*
X004301Y006131D03*
X004306Y006136D03*
X004961Y004761D03*
X006286Y004926D03*
X006291Y004931D03*
X006296Y004936D03*
X006536Y005441D03*
X006541Y005446D03*
X006546Y005451D03*
X006551Y005461D03*
X006551Y005821D03*
X006546Y005831D03*
X006541Y005836D03*
X006536Y005841D03*
X006111Y006081D03*
D110*
X005561Y005466D03*
X005396Y005466D03*
X005396Y005471D03*
X004991Y005136D03*
X004991Y005131D03*
X004861Y005331D03*
X004861Y005336D03*
X004676Y004766D03*
X005616Y004996D03*
X005616Y005001D03*
X005116Y006186D03*
D111*
X005234Y006071D03*
X005714Y006291D03*
X006024Y005976D03*
X005509Y005541D03*
X005514Y005531D03*
X005399Y005496D03*
X005399Y005491D03*
X005359Y005426D03*
X005359Y005421D03*
X005354Y005416D03*
X005349Y005411D03*
X005349Y005406D03*
X005344Y005401D03*
X005344Y005396D03*
X005339Y005391D03*
X005334Y005381D03*
X005329Y005376D03*
X005329Y005371D03*
X005324Y005366D03*
X005319Y005356D03*
X005314Y005351D03*
X005314Y005346D03*
X005309Y005341D03*
X005304Y005331D03*
X005299Y005321D03*
X005294Y005316D03*
X005289Y005306D03*
X005284Y005296D03*
X005274Y005281D03*
X005269Y005271D03*
X005259Y005256D03*
X005254Y005246D03*
X005249Y005236D03*
X004994Y005101D03*
X004994Y005096D03*
X004844Y005391D03*
X004844Y005396D03*
X004839Y005401D03*
X004839Y005406D03*
X004674Y004771D03*
X005619Y004976D03*
D112*
X005856Y004776D03*
D113*
X005864Y004781D03*
D114*
X006061Y004786D03*
X006181Y006041D03*
D115*
X006089Y004791D03*
X004504Y006271D03*
X004159Y005921D03*
D116*
X004309Y006141D03*
X004314Y006146D03*
X004319Y006151D03*
X003844Y005731D03*
X003839Y005726D03*
X003839Y005321D03*
X003844Y005316D03*
X003909Y005241D03*
X003929Y004841D03*
X003934Y004836D03*
X003939Y004831D03*
X003944Y004826D03*
X005114Y006211D03*
X006329Y005266D03*
X006519Y005421D03*
X006524Y005426D03*
X006529Y005431D03*
X006534Y005436D03*
X006534Y005846D03*
X006529Y005851D03*
X006524Y005856D03*
X006284Y004921D03*
X006279Y004916D03*
X006274Y004911D03*
D117*
X005624Y004891D03*
X005584Y005336D03*
X005584Y005341D03*
X005004Y004991D03*
X004789Y005566D03*
X004789Y005571D03*
X005119Y006171D03*
D118*
X005221Y006161D03*
X005221Y006156D03*
X005406Y005566D03*
X005406Y005561D03*
X005581Y005346D03*
X005621Y004896D03*
X005006Y004996D03*
X005006Y005001D03*
X004791Y005556D03*
X004791Y005561D03*
D119*
X004794Y005551D03*
X004794Y005546D03*
X005004Y005011D03*
X005004Y005006D03*
X005584Y005351D03*
X005404Y005556D03*
X005224Y006146D03*
X005224Y006151D03*
X004759Y006391D03*
X005624Y004901D03*
D120*
X005621Y004906D03*
X005621Y004911D03*
X005581Y005356D03*
X005581Y005361D03*
X005406Y005551D03*
X004801Y005531D03*
X004801Y005526D03*
X004796Y005536D03*
X004796Y005541D03*
D121*
X004806Y005511D03*
X004806Y005506D03*
X005001Y005036D03*
X005001Y005031D03*
X005001Y005026D03*
X005621Y004926D03*
X005621Y004921D03*
X005576Y005376D03*
X005226Y006126D03*
X005226Y006131D03*
D122*
X005244Y006006D03*
X005244Y006001D03*
X005394Y005446D03*
X005394Y005441D03*
X005554Y005501D03*
X005554Y005506D03*
X005619Y005031D03*
X004989Y005171D03*
X004884Y005261D03*
X004879Y005271D03*
X004879Y005276D03*
D123*
X004819Y005466D03*
X004819Y005471D03*
X004999Y005056D03*
X004999Y005051D03*
X005404Y005526D03*
X005574Y005401D03*
X005574Y005396D03*
X005229Y006106D03*
X005229Y006111D03*
D124*
X004106Y005881D03*
X004091Y005871D03*
X004081Y005866D03*
D125*
X004099Y005876D03*
X006194Y006031D03*
D126*
X005096Y006256D03*
X004756Y006371D03*
X004131Y005901D03*
D127*
X004146Y005911D03*
X004521Y006276D03*
X006176Y006046D03*
D128*
X006234Y005981D03*
X005524Y006386D03*
D129*
X006231Y005986D03*
D130*
X006221Y005996D03*
X004756Y006356D03*
D131*
X006219Y006001D03*
D132*
X006171Y006051D03*
D133*
X005091Y006261D03*
D134*
X005089Y006266D03*
D135*
X005081Y006271D03*
X005541Y006396D03*
D136*
X005071Y006276D03*
X004756Y006351D03*
D137*
X004849Y006281D03*
D138*
X004859Y006286D03*
D139*
X004871Y006291D03*
D140*
X004886Y006296D03*
D141*
X004904Y006301D03*
D142*
X005444Y006316D03*
X005449Y006321D03*
D143*
X004756Y006321D03*
D144*
X005454Y006326D03*
D145*
X004756Y006326D03*
D146*
X004756Y006331D03*
X005461Y006336D03*
D147*
X005471Y006346D03*
X004756Y006336D03*
D148*
X004756Y006341D03*
D149*
X004754Y006346D03*
D150*
X005479Y006351D03*
D151*
X005494Y006366D03*
D152*
X004754Y006366D03*
D153*
X005501Y006371D03*
D154*
X005516Y006381D03*
D155*
X005551Y006401D03*
D156*
X005377Y004016D02*
X005233Y004016D01*
X005214Y003826D01*
X005150Y003805D01*
X005090Y003774D01*
X004941Y003895D01*
X004840Y003794D01*
X004961Y003645D01*
X004930Y003585D01*
X004909Y003521D01*
X004719Y003502D01*
X004719Y003358D01*
X004909Y003339D01*
X004930Y003275D01*
X004961Y003215D01*
X004840Y003066D01*
X004941Y002965D01*
X005090Y003086D01*
X005150Y003055D01*
X005234Y003259D01*
X005196Y003281D01*
X005164Y003311D01*
X005140Y003348D01*
X005125Y003390D01*
X005121Y003434D01*
X005127Y003478D01*
X005143Y003519D01*
X005169Y003555D01*
X005203Y003583D01*
X005242Y003603D01*
X005285Y003613D01*
X005329Y003613D01*
X005372Y003602D01*
X005411Y003581D01*
X005444Y003552D01*
X005469Y003515D01*
X005484Y003474D01*
X005490Y003430D01*
X005484Y003387D01*
X005469Y003346D01*
X005445Y003310D01*
X005413Y003281D01*
X005376Y003259D01*
X005460Y003055D01*
X005520Y003086D01*
X005669Y002965D01*
X005770Y003066D01*
X005649Y003215D01*
X005680Y003275D01*
X005701Y003339D01*
X005891Y003358D01*
X005891Y003502D01*
X005701Y003521D01*
X005680Y003585D01*
X005649Y003645D01*
X005770Y003794D01*
X005669Y003895D01*
X005520Y003774D01*
X005460Y003805D01*
X005396Y003826D01*
X005377Y004016D01*
X005383Y003961D02*
X005227Y003961D01*
X005222Y003903D02*
X005388Y003903D01*
X005394Y003846D02*
X005216Y003846D01*
X005116Y003788D02*
X005494Y003788D01*
X005537Y003788D02*
X005766Y003788D01*
X005719Y003730D02*
X004891Y003730D01*
X004938Y003673D02*
X005672Y003673D01*
X005665Y003615D02*
X004945Y003615D01*
X004921Y003558D02*
X005173Y003558D01*
X005136Y003500D02*
X004719Y003500D01*
X004719Y003443D02*
X005122Y003443D01*
X005127Y003385D02*
X004719Y003385D01*
X004913Y003328D02*
X005153Y003328D01*
X005216Y003270D02*
X004932Y003270D01*
X004959Y003212D02*
X005215Y003212D01*
X005191Y003155D02*
X004912Y003155D01*
X004865Y003097D02*
X005167Y003097D01*
X005034Y003040D02*
X004866Y003040D01*
X004924Y002982D02*
X004963Y002982D01*
X005395Y003212D02*
X005651Y003212D01*
X005678Y003270D02*
X005394Y003270D01*
X005457Y003328D02*
X005697Y003328D01*
X005698Y003155D02*
X005419Y003155D01*
X005443Y003097D02*
X005745Y003097D01*
X005744Y003040D02*
X005576Y003040D01*
X005647Y002982D02*
X005686Y002982D01*
X005484Y003385D02*
X005891Y003385D01*
X005891Y003443D02*
X005488Y003443D01*
X005474Y003500D02*
X005891Y003500D01*
X005689Y003558D02*
X005437Y003558D01*
X005607Y003846D02*
X005718Y003846D01*
X005073Y003788D02*
X004844Y003788D01*
X004892Y003846D02*
X005003Y003846D01*
M02*
