G75*
G70*
%OFA0B0*%
%FSLAX24Y24*%
%IPPOS*%
%LPD*%
%AMOC8*
5,1,8,0,0,1.08239X$1,22.5*
%
%ADD10C,0.0000*%
%ADD11R,0.0740X0.0740*%
%ADD12C,0.0740*%
%ADD13C,0.0160*%
%ADD14R,0.0356X0.0356*%
D10*
X000680Y001930D02*
X000680Y008680D01*
X000682Y008748D01*
X000687Y008815D01*
X000696Y008882D01*
X000709Y008949D01*
X000726Y009014D01*
X000745Y009079D01*
X000769Y009143D01*
X000796Y009205D01*
X000826Y009266D01*
X000859Y009324D01*
X000895Y009381D01*
X000935Y009436D01*
X000977Y009489D01*
X001023Y009540D01*
X001070Y009587D01*
X001121Y009633D01*
X001174Y009675D01*
X001229Y009715D01*
X001286Y009751D01*
X001344Y009784D01*
X001405Y009814D01*
X001467Y009841D01*
X001531Y009865D01*
X001596Y009884D01*
X001661Y009901D01*
X001728Y009914D01*
X001795Y009923D01*
X001862Y009928D01*
X001930Y009930D01*
X008680Y009930D01*
X008748Y009928D01*
X008815Y009923D01*
X008882Y009914D01*
X008949Y009901D01*
X009014Y009884D01*
X009079Y009865D01*
X009143Y009841D01*
X009205Y009814D01*
X009266Y009784D01*
X009324Y009751D01*
X009381Y009715D01*
X009436Y009675D01*
X009489Y009633D01*
X009540Y009587D01*
X009587Y009540D01*
X009633Y009489D01*
X009675Y009436D01*
X009715Y009381D01*
X009751Y009324D01*
X009784Y009266D01*
X009814Y009205D01*
X009841Y009143D01*
X009865Y009079D01*
X009884Y009014D01*
X009901Y008949D01*
X009914Y008882D01*
X009923Y008815D01*
X009928Y008748D01*
X009930Y008680D01*
X009930Y001930D01*
X009928Y001862D01*
X009923Y001795D01*
X009914Y001728D01*
X009901Y001661D01*
X009884Y001596D01*
X009865Y001531D01*
X009841Y001467D01*
X009814Y001405D01*
X009784Y001344D01*
X009751Y001286D01*
X009715Y001229D01*
X009675Y001174D01*
X009633Y001121D01*
X009587Y001070D01*
X009540Y001023D01*
X009489Y000977D01*
X009436Y000935D01*
X009381Y000895D01*
X009324Y000859D01*
X009266Y000826D01*
X009205Y000796D01*
X009143Y000769D01*
X009079Y000745D01*
X009014Y000726D01*
X008949Y000709D01*
X008882Y000696D01*
X008815Y000687D01*
X008748Y000682D01*
X008680Y000680D01*
X001930Y000680D01*
X001862Y000682D01*
X001795Y000687D01*
X001728Y000696D01*
X001661Y000709D01*
X001596Y000726D01*
X001531Y000745D01*
X001467Y000769D01*
X001405Y000796D01*
X001344Y000826D01*
X001286Y000859D01*
X001229Y000895D01*
X001174Y000935D01*
X001121Y000977D01*
X001070Y001023D01*
X001023Y001070D01*
X000977Y001121D01*
X000935Y001174D01*
X000895Y001229D01*
X000859Y001286D01*
X000826Y001344D01*
X000796Y001405D01*
X000769Y001467D01*
X000745Y001531D01*
X000726Y001596D01*
X000709Y001661D01*
X000696Y001728D01*
X000687Y001795D01*
X000682Y001862D01*
X000680Y001930D01*
X001305Y001930D02*
X001307Y001980D01*
X001313Y002029D01*
X001323Y002078D01*
X001336Y002125D01*
X001354Y002172D01*
X001375Y002217D01*
X001399Y002260D01*
X001427Y002301D01*
X001458Y002340D01*
X001492Y002376D01*
X001529Y002410D01*
X001569Y002440D01*
X001610Y002467D01*
X001654Y002491D01*
X001699Y002511D01*
X001746Y002527D01*
X001794Y002540D01*
X001843Y002549D01*
X001893Y002554D01*
X001942Y002555D01*
X001992Y002552D01*
X002041Y002545D01*
X002090Y002534D01*
X002137Y002520D01*
X002183Y002501D01*
X002228Y002479D01*
X002271Y002454D01*
X002311Y002425D01*
X002349Y002393D01*
X002385Y002359D01*
X002418Y002321D01*
X002447Y002281D01*
X002473Y002239D01*
X002496Y002195D01*
X002515Y002149D01*
X002531Y002102D01*
X002543Y002053D01*
X002551Y002004D01*
X002555Y001955D01*
X002555Y001905D01*
X002551Y001856D01*
X002543Y001807D01*
X002531Y001758D01*
X002515Y001711D01*
X002496Y001665D01*
X002473Y001621D01*
X002447Y001579D01*
X002418Y001539D01*
X002385Y001501D01*
X002349Y001467D01*
X002311Y001435D01*
X002271Y001406D01*
X002228Y001381D01*
X002183Y001359D01*
X002137Y001340D01*
X002090Y001326D01*
X002041Y001315D01*
X001992Y001308D01*
X001942Y001305D01*
X001893Y001306D01*
X001843Y001311D01*
X001794Y001320D01*
X001746Y001333D01*
X001699Y001349D01*
X001654Y001369D01*
X001610Y001393D01*
X001569Y001420D01*
X001529Y001450D01*
X001492Y001484D01*
X001458Y001520D01*
X001427Y001559D01*
X001399Y001600D01*
X001375Y001643D01*
X001354Y001688D01*
X001336Y001735D01*
X001323Y001782D01*
X001313Y001831D01*
X001307Y001880D01*
X001305Y001930D01*
X001305Y008680D02*
X001307Y008730D01*
X001313Y008779D01*
X001323Y008828D01*
X001336Y008875D01*
X001354Y008922D01*
X001375Y008967D01*
X001399Y009010D01*
X001427Y009051D01*
X001458Y009090D01*
X001492Y009126D01*
X001529Y009160D01*
X001569Y009190D01*
X001610Y009217D01*
X001654Y009241D01*
X001699Y009261D01*
X001746Y009277D01*
X001794Y009290D01*
X001843Y009299D01*
X001893Y009304D01*
X001942Y009305D01*
X001992Y009302D01*
X002041Y009295D01*
X002090Y009284D01*
X002137Y009270D01*
X002183Y009251D01*
X002228Y009229D01*
X002271Y009204D01*
X002311Y009175D01*
X002349Y009143D01*
X002385Y009109D01*
X002418Y009071D01*
X002447Y009031D01*
X002473Y008989D01*
X002496Y008945D01*
X002515Y008899D01*
X002531Y008852D01*
X002543Y008803D01*
X002551Y008754D01*
X002555Y008705D01*
X002555Y008655D01*
X002551Y008606D01*
X002543Y008557D01*
X002531Y008508D01*
X002515Y008461D01*
X002496Y008415D01*
X002473Y008371D01*
X002447Y008329D01*
X002418Y008289D01*
X002385Y008251D01*
X002349Y008217D01*
X002311Y008185D01*
X002271Y008156D01*
X002228Y008131D01*
X002183Y008109D01*
X002137Y008090D01*
X002090Y008076D01*
X002041Y008065D01*
X001992Y008058D01*
X001942Y008055D01*
X001893Y008056D01*
X001843Y008061D01*
X001794Y008070D01*
X001746Y008083D01*
X001699Y008099D01*
X001654Y008119D01*
X001610Y008143D01*
X001569Y008170D01*
X001529Y008200D01*
X001492Y008234D01*
X001458Y008270D01*
X001427Y008309D01*
X001399Y008350D01*
X001375Y008393D01*
X001354Y008438D01*
X001336Y008485D01*
X001323Y008532D01*
X001313Y008581D01*
X001307Y008630D01*
X001305Y008680D01*
X008055Y008680D02*
X008057Y008730D01*
X008063Y008779D01*
X008073Y008828D01*
X008086Y008875D01*
X008104Y008922D01*
X008125Y008967D01*
X008149Y009010D01*
X008177Y009051D01*
X008208Y009090D01*
X008242Y009126D01*
X008279Y009160D01*
X008319Y009190D01*
X008360Y009217D01*
X008404Y009241D01*
X008449Y009261D01*
X008496Y009277D01*
X008544Y009290D01*
X008593Y009299D01*
X008643Y009304D01*
X008692Y009305D01*
X008742Y009302D01*
X008791Y009295D01*
X008840Y009284D01*
X008887Y009270D01*
X008933Y009251D01*
X008978Y009229D01*
X009021Y009204D01*
X009061Y009175D01*
X009099Y009143D01*
X009135Y009109D01*
X009168Y009071D01*
X009197Y009031D01*
X009223Y008989D01*
X009246Y008945D01*
X009265Y008899D01*
X009281Y008852D01*
X009293Y008803D01*
X009301Y008754D01*
X009305Y008705D01*
X009305Y008655D01*
X009301Y008606D01*
X009293Y008557D01*
X009281Y008508D01*
X009265Y008461D01*
X009246Y008415D01*
X009223Y008371D01*
X009197Y008329D01*
X009168Y008289D01*
X009135Y008251D01*
X009099Y008217D01*
X009061Y008185D01*
X009021Y008156D01*
X008978Y008131D01*
X008933Y008109D01*
X008887Y008090D01*
X008840Y008076D01*
X008791Y008065D01*
X008742Y008058D01*
X008692Y008055D01*
X008643Y008056D01*
X008593Y008061D01*
X008544Y008070D01*
X008496Y008083D01*
X008449Y008099D01*
X008404Y008119D01*
X008360Y008143D01*
X008319Y008170D01*
X008279Y008200D01*
X008242Y008234D01*
X008208Y008270D01*
X008177Y008309D01*
X008149Y008350D01*
X008125Y008393D01*
X008104Y008438D01*
X008086Y008485D01*
X008073Y008532D01*
X008063Y008581D01*
X008057Y008630D01*
X008055Y008680D01*
X008055Y001930D02*
X008057Y001980D01*
X008063Y002029D01*
X008073Y002078D01*
X008086Y002125D01*
X008104Y002172D01*
X008125Y002217D01*
X008149Y002260D01*
X008177Y002301D01*
X008208Y002340D01*
X008242Y002376D01*
X008279Y002410D01*
X008319Y002440D01*
X008360Y002467D01*
X008404Y002491D01*
X008449Y002511D01*
X008496Y002527D01*
X008544Y002540D01*
X008593Y002549D01*
X008643Y002554D01*
X008692Y002555D01*
X008742Y002552D01*
X008791Y002545D01*
X008840Y002534D01*
X008887Y002520D01*
X008933Y002501D01*
X008978Y002479D01*
X009021Y002454D01*
X009061Y002425D01*
X009099Y002393D01*
X009135Y002359D01*
X009168Y002321D01*
X009197Y002281D01*
X009223Y002239D01*
X009246Y002195D01*
X009265Y002149D01*
X009281Y002102D01*
X009293Y002053D01*
X009301Y002004D01*
X009305Y001955D01*
X009305Y001905D01*
X009301Y001856D01*
X009293Y001807D01*
X009281Y001758D01*
X009265Y001711D01*
X009246Y001665D01*
X009223Y001621D01*
X009197Y001579D01*
X009168Y001539D01*
X009135Y001501D01*
X009099Y001467D01*
X009061Y001435D01*
X009021Y001406D01*
X008978Y001381D01*
X008933Y001359D01*
X008887Y001340D01*
X008840Y001326D01*
X008791Y001315D01*
X008742Y001308D01*
X008692Y001305D01*
X008643Y001306D01*
X008593Y001311D01*
X008544Y001320D01*
X008496Y001333D01*
X008449Y001349D01*
X008404Y001369D01*
X008360Y001393D01*
X008319Y001420D01*
X008279Y001450D01*
X008242Y001484D01*
X008208Y001520D01*
X008177Y001559D01*
X008149Y001600D01*
X008125Y001643D01*
X008104Y001688D01*
X008086Y001735D01*
X008073Y001782D01*
X008063Y001831D01*
X008057Y001880D01*
X008055Y001930D01*
D11*
X008680Y003805D03*
X006805Y008680D03*
X001930Y003805D03*
X003805Y001930D03*
D12*
X004805Y001930D03*
X005805Y001930D03*
X006805Y001930D03*
X008680Y004805D03*
X008680Y005805D03*
X008680Y006805D03*
X005805Y008680D03*
X004805Y008680D03*
X003805Y008680D03*
X001930Y006805D03*
X001930Y005805D03*
X001930Y004805D03*
D13*
X005305Y004805D01*
X005805Y005305D01*
X005805Y008680D01*
X006134Y008288D02*
X006255Y008288D01*
X006255Y008286D02*
X006267Y008241D01*
X006291Y008199D01*
X006324Y008166D01*
X006366Y008142D01*
X006411Y008130D01*
X006785Y008130D01*
X006785Y008660D01*
X006825Y008660D01*
X006825Y008700D01*
X006785Y008700D01*
X006785Y009230D01*
X006411Y009230D01*
X006366Y009218D01*
X006324Y009194D01*
X006291Y009161D01*
X006267Y009119D01*
X006255Y009074D01*
X006255Y008926D01*
X006237Y008969D01*
X006094Y009112D01*
X005906Y009190D01*
X005704Y009190D01*
X005516Y009112D01*
X005373Y008969D01*
X005305Y008806D01*
X005237Y008969D01*
X005094Y009112D01*
X004906Y009190D01*
X004704Y009190D01*
X004516Y009112D01*
X004373Y008969D01*
X004305Y008806D01*
X004237Y008969D01*
X004094Y009112D01*
X003906Y009190D01*
X003704Y009190D01*
X003516Y009112D01*
X003373Y008969D01*
X003295Y008781D01*
X003295Y008579D01*
X003373Y008391D01*
X003516Y008248D01*
X003704Y008170D01*
X003906Y008170D01*
X004094Y008248D01*
X004237Y008391D01*
X004305Y008554D01*
X004373Y008391D01*
X004516Y008248D01*
X004704Y008170D01*
X004906Y008170D01*
X005094Y008248D01*
X005237Y008391D01*
X005305Y008554D01*
X005373Y008391D01*
X005516Y008248D01*
X005585Y008219D01*
X005585Y005396D01*
X005214Y005025D01*
X002391Y005025D01*
X002362Y005094D01*
X002219Y005237D01*
X002056Y005305D01*
X002219Y005373D01*
X002362Y005516D01*
X002440Y005704D01*
X002440Y005906D01*
X002362Y006094D01*
X002219Y006237D01*
X002056Y006305D01*
X002219Y006373D01*
X002362Y006516D01*
X002440Y006704D01*
X002440Y006906D01*
X002362Y007094D01*
X002219Y007237D01*
X002031Y007315D01*
X001829Y007315D01*
X001641Y007237D01*
X001498Y007094D01*
X001420Y006906D01*
X001420Y006704D01*
X001498Y006516D01*
X001641Y006373D01*
X001804Y006305D01*
X001641Y006237D01*
X001498Y006094D01*
X001420Y005906D01*
X001420Y005704D01*
X001498Y005516D01*
X001641Y005373D01*
X001804Y005305D01*
X001641Y005237D01*
X001498Y005094D01*
X001420Y004906D01*
X001420Y004704D01*
X001498Y004516D01*
X001641Y004373D01*
X001684Y004355D01*
X001536Y004355D01*
X001491Y004343D01*
X001449Y004319D01*
X001416Y004286D01*
X001392Y004244D01*
X001380Y004199D01*
X001380Y003825D01*
X001910Y003825D01*
X001910Y003785D01*
X001950Y003785D01*
X001950Y003825D01*
X002480Y003825D01*
X002480Y004199D01*
X002468Y004244D01*
X002444Y004286D01*
X002411Y004319D01*
X002369Y004343D01*
X002324Y004355D01*
X002176Y004355D01*
X002219Y004373D01*
X002362Y004516D01*
X002391Y004585D01*
X004774Y004585D01*
X004585Y004396D01*
X004585Y002391D01*
X004516Y002362D01*
X004373Y002219D01*
X004355Y002176D01*
X004355Y002324D01*
X004343Y002369D01*
X004319Y002411D01*
X004286Y002444D01*
X004244Y002468D01*
X004199Y002480D01*
X003825Y002480D01*
X003825Y001950D01*
X003785Y001950D01*
X003785Y002480D01*
X003411Y002480D01*
X003366Y002468D01*
X003324Y002444D01*
X003291Y002411D01*
X003267Y002369D01*
X003255Y002324D01*
X003255Y001950D01*
X003785Y001950D01*
X003785Y001910D01*
X003825Y001910D01*
X003825Y001380D01*
X004199Y001380D01*
X004244Y001392D01*
X004286Y001416D01*
X004319Y001449D01*
X004343Y001491D01*
X004355Y001536D01*
X004355Y001684D01*
X004373Y001641D01*
X004516Y001498D01*
X004704Y001420D01*
X004906Y001420D01*
X005094Y001498D01*
X005237Y001641D01*
X005305Y001804D01*
X005373Y001641D01*
X005516Y001498D01*
X005704Y001420D01*
X005906Y001420D01*
X006094Y001498D01*
X006237Y001641D01*
X006305Y001804D01*
X006373Y001641D01*
X006516Y001498D01*
X006704Y001420D01*
X006906Y001420D01*
X007094Y001498D01*
X007237Y001641D01*
X007315Y001829D01*
X007315Y002031D01*
X007237Y002219D01*
X007094Y002362D01*
X006906Y002440D01*
X006704Y002440D01*
X006516Y002362D01*
X006373Y002219D01*
X006305Y002056D01*
X006237Y002219D01*
X006094Y002362D01*
X005906Y002440D01*
X005704Y002440D01*
X005516Y002362D01*
X005373Y002219D01*
X005305Y002056D01*
X005237Y002219D01*
X005094Y002362D01*
X005025Y002391D01*
X005025Y004214D01*
X005396Y004585D01*
X008219Y004585D01*
X008248Y004516D01*
X008391Y004373D01*
X008434Y004355D01*
X008286Y004355D01*
X008241Y004343D01*
X008199Y004319D01*
X008166Y004286D01*
X008142Y004244D01*
X008130Y004199D01*
X008130Y003825D01*
X008660Y003825D01*
X008660Y003785D01*
X008700Y003785D01*
X008700Y003825D01*
X009230Y003825D01*
X009230Y004199D01*
X009218Y004244D01*
X009194Y004286D01*
X009161Y004319D01*
X009119Y004343D01*
X009074Y004355D01*
X008926Y004355D01*
X008969Y004373D01*
X009112Y004516D01*
X009190Y004704D01*
X009190Y004906D01*
X009112Y005094D01*
X008969Y005237D01*
X008806Y005305D01*
X008969Y005373D01*
X009112Y005516D01*
X009190Y005704D01*
X009190Y005906D01*
X009112Y006094D01*
X008969Y006237D01*
X008806Y006305D01*
X008969Y006373D01*
X009112Y006516D01*
X009190Y006704D01*
X009190Y006906D01*
X009112Y007094D01*
X008969Y007237D01*
X008781Y007315D01*
X008579Y007315D01*
X008391Y007237D01*
X008248Y007094D01*
X008170Y006906D01*
X008170Y006704D01*
X008248Y006516D01*
X008391Y006373D01*
X008554Y006305D01*
X008391Y006237D01*
X008248Y006094D01*
X008170Y005906D01*
X008170Y005704D01*
X008248Y005516D01*
X008391Y005373D01*
X008554Y005305D01*
X008391Y005237D01*
X008248Y005094D01*
X008219Y005025D01*
X005836Y005025D01*
X006025Y005214D01*
X006025Y008219D01*
X006094Y008248D01*
X006237Y008391D01*
X006255Y008434D01*
X006255Y008286D01*
X006025Y008130D02*
X007742Y008130D01*
X007810Y008012D02*
X007666Y008260D01*
X007592Y008537D01*
X007592Y008823D01*
X007666Y009100D01*
X007810Y009348D01*
X008012Y009550D01*
X008260Y009694D01*
X008470Y009750D01*
X002140Y009750D01*
X002350Y009694D01*
X002598Y009550D01*
X002800Y009348D01*
X002944Y009100D01*
X003018Y008823D01*
X003018Y008537D01*
X002944Y008260D01*
X002800Y008012D01*
X002598Y007810D01*
X002350Y007666D01*
X002073Y007592D01*
X001787Y007592D01*
X001510Y007666D01*
X001262Y007810D01*
X001060Y008012D01*
X000916Y008260D01*
X000860Y008470D01*
X000860Y002140D01*
X000916Y002350D01*
X001060Y002598D01*
X001262Y002800D01*
X001510Y002944D01*
X001787Y003018D01*
X002073Y003018D01*
X002350Y002944D01*
X002598Y002800D01*
X002800Y002598D01*
X002944Y002350D01*
X003018Y002073D01*
X003018Y001787D01*
X002944Y001510D01*
X002800Y001262D01*
X002598Y001060D01*
X002350Y000916D01*
X002140Y000860D01*
X008470Y000860D01*
X008260Y000916D01*
X008012Y001060D01*
X007810Y001262D01*
X007666Y001510D01*
X007592Y001787D01*
X007592Y002073D01*
X007666Y002350D01*
X007810Y002598D01*
X008012Y002800D01*
X008260Y002944D01*
X008537Y003018D01*
X008823Y003018D01*
X009100Y002944D01*
X009348Y002800D01*
X009550Y002598D01*
X009694Y002350D01*
X009750Y002140D01*
X009750Y008470D01*
X009694Y008260D01*
X009550Y008012D01*
X009348Y007810D01*
X009100Y007666D01*
X008823Y007592D01*
X008537Y007592D01*
X008260Y007666D01*
X008012Y007810D01*
X007810Y008012D01*
X007851Y007971D02*
X006025Y007971D01*
X006025Y007813D02*
X008009Y007813D01*
X008306Y007654D02*
X006025Y007654D01*
X006025Y007496D02*
X009750Y007496D01*
X009750Y007337D02*
X006025Y007337D01*
X006025Y007179D02*
X008332Y007179D01*
X008217Y007020D02*
X006025Y007020D01*
X006025Y006862D02*
X008170Y006862D01*
X008170Y006703D02*
X006025Y006703D01*
X006025Y006545D02*
X008236Y006545D01*
X008378Y006386D02*
X006025Y006386D01*
X006025Y006228D02*
X008381Y006228D01*
X008237Y006069D02*
X006025Y006069D01*
X006025Y005911D02*
X008172Y005911D01*
X008170Y005752D02*
X006025Y005752D01*
X006025Y005594D02*
X008216Y005594D01*
X008329Y005435D02*
X006025Y005435D01*
X006025Y005277D02*
X008486Y005277D01*
X008272Y005118D02*
X005929Y005118D01*
X005585Y005435D02*
X002281Y005435D01*
X002394Y005594D02*
X005585Y005594D01*
X005585Y005752D02*
X002440Y005752D01*
X002438Y005911D02*
X005585Y005911D01*
X005585Y006069D02*
X002373Y006069D01*
X002229Y006228D02*
X005585Y006228D01*
X005585Y006386D02*
X002232Y006386D01*
X002374Y006545D02*
X005585Y006545D01*
X005585Y006703D02*
X002440Y006703D01*
X002440Y006862D02*
X005585Y006862D01*
X005585Y007020D02*
X002393Y007020D01*
X002278Y007179D02*
X005585Y007179D01*
X005585Y007337D02*
X000860Y007337D01*
X000860Y007496D02*
X005585Y007496D01*
X005585Y007654D02*
X002304Y007654D01*
X002601Y007813D02*
X005585Y007813D01*
X005585Y007971D02*
X002759Y007971D01*
X002868Y008130D02*
X005585Y008130D01*
X005476Y008288D02*
X005134Y008288D01*
X005260Y008447D02*
X005350Y008447D01*
X005353Y008922D02*
X005257Y008922D01*
X005126Y009081D02*
X005484Y009081D01*
X006126Y009081D02*
X006257Y009081D01*
X006785Y009081D02*
X006825Y009081D01*
X006825Y009230D02*
X006825Y008700D01*
X007355Y008700D01*
X007355Y009074D01*
X007343Y009119D01*
X007319Y009161D01*
X007286Y009194D01*
X007244Y009218D01*
X007199Y009230D01*
X006825Y009230D01*
X006825Y008922D02*
X006785Y008922D01*
X006785Y008764D02*
X006825Y008764D01*
X006825Y008660D02*
X007355Y008660D01*
X007355Y008286D01*
X007343Y008241D01*
X007319Y008199D01*
X007286Y008166D01*
X007244Y008142D01*
X007199Y008130D01*
X006825Y008130D01*
X006825Y008660D01*
X006825Y008605D02*
X006785Y008605D01*
X006785Y008447D02*
X006825Y008447D01*
X006825Y008288D02*
X006785Y008288D01*
X007355Y008288D02*
X007659Y008288D01*
X007616Y008447D02*
X007355Y008447D01*
X007355Y008605D02*
X007592Y008605D01*
X007592Y008764D02*
X007355Y008764D01*
X007355Y008922D02*
X007619Y008922D01*
X007661Y009081D02*
X007353Y009081D01*
X007747Y009239D02*
X002863Y009239D01*
X002751Y009398D02*
X007859Y009398D01*
X008022Y009556D02*
X002588Y009556D01*
X002272Y009715D02*
X008338Y009715D01*
X009744Y008447D02*
X009750Y008447D01*
X009750Y008288D02*
X009701Y008288D01*
X009750Y008130D02*
X009618Y008130D01*
X009509Y007971D02*
X009750Y007971D01*
X009750Y007813D02*
X009351Y007813D01*
X009054Y007654D02*
X009750Y007654D01*
X009750Y007179D02*
X009028Y007179D01*
X009143Y007020D02*
X009750Y007020D01*
X009750Y006862D02*
X009190Y006862D01*
X009190Y006703D02*
X009750Y006703D01*
X009750Y006545D02*
X009124Y006545D01*
X008982Y006386D02*
X009750Y006386D01*
X009750Y006228D02*
X008979Y006228D01*
X009123Y006069D02*
X009750Y006069D01*
X009750Y005911D02*
X009188Y005911D01*
X009190Y005752D02*
X009750Y005752D01*
X009750Y005594D02*
X009144Y005594D01*
X009031Y005435D02*
X009750Y005435D01*
X009750Y005277D02*
X008874Y005277D01*
X009088Y005118D02*
X009750Y005118D01*
X009750Y004960D02*
X009168Y004960D01*
X009190Y004801D02*
X009750Y004801D01*
X009750Y004643D02*
X009165Y004643D01*
X009080Y004484D02*
X009750Y004484D01*
X009750Y004326D02*
X009149Y004326D01*
X009230Y004167D02*
X009750Y004167D01*
X009750Y004009D02*
X009230Y004009D01*
X009230Y003850D02*
X009750Y003850D01*
X009750Y003692D02*
X009230Y003692D01*
X009230Y003785D02*
X008700Y003785D01*
X008700Y003255D01*
X009074Y003255D01*
X009119Y003267D01*
X009161Y003291D01*
X009194Y003324D01*
X009218Y003366D01*
X009230Y003411D01*
X009230Y003785D01*
X009230Y003533D02*
X009750Y003533D01*
X009750Y003375D02*
X009220Y003375D01*
X009177Y002899D02*
X009750Y002899D01*
X009750Y003058D02*
X005025Y003058D01*
X005025Y002899D02*
X008183Y002899D01*
X007952Y002741D02*
X005025Y002741D01*
X005025Y002582D02*
X007800Y002582D01*
X007709Y002424D02*
X006946Y002424D01*
X007191Y002265D02*
X007644Y002265D01*
X007601Y002107D02*
X007284Y002107D01*
X007315Y001948D02*
X007592Y001948D01*
X007592Y001790D02*
X007299Y001790D01*
X007227Y001631D02*
X007634Y001631D01*
X007688Y001473D02*
X007033Y001473D01*
X006577Y001473D02*
X006033Y001473D01*
X006227Y001631D02*
X006383Y001631D01*
X006311Y001790D02*
X006299Y001790D01*
X006284Y002107D02*
X006326Y002107D01*
X006419Y002265D02*
X006191Y002265D01*
X005946Y002424D02*
X006664Y002424D01*
X005664Y002424D02*
X005025Y002424D01*
X005191Y002265D02*
X005419Y002265D01*
X005326Y002107D02*
X005284Y002107D01*
X005299Y001790D02*
X005311Y001790D01*
X005383Y001631D02*
X005227Y001631D01*
X005033Y001473D02*
X005577Y001473D01*
X004805Y001930D02*
X004805Y004305D01*
X005305Y004805D01*
X008680Y004805D01*
X008280Y004484D02*
X005295Y004484D01*
X005137Y004326D02*
X008211Y004326D01*
X008130Y004167D02*
X005025Y004167D01*
X005025Y004009D02*
X008130Y004009D01*
X008130Y003850D02*
X005025Y003850D01*
X005025Y003692D02*
X008130Y003692D01*
X008130Y003785D02*
X008130Y003411D01*
X008142Y003366D01*
X008166Y003324D01*
X008199Y003291D01*
X008241Y003267D01*
X008286Y003255D01*
X008660Y003255D01*
X008660Y003785D01*
X008130Y003785D01*
X008130Y003533D02*
X005025Y003533D01*
X005025Y003375D02*
X008140Y003375D01*
X008660Y003375D02*
X008700Y003375D01*
X008700Y003533D02*
X008660Y003533D01*
X008660Y003692D02*
X008700Y003692D01*
X009408Y002741D02*
X009750Y002741D01*
X009750Y002582D02*
X009560Y002582D01*
X009651Y002424D02*
X009750Y002424D01*
X009750Y002265D02*
X009716Y002265D01*
X009750Y003216D02*
X005025Y003216D01*
X004585Y003216D02*
X000860Y003216D01*
X000860Y003375D02*
X001390Y003375D01*
X001392Y003366D02*
X001416Y003324D01*
X001449Y003291D01*
X001491Y003267D01*
X001536Y003255D01*
X001910Y003255D01*
X001910Y003785D01*
X001380Y003785D01*
X001380Y003411D01*
X001392Y003366D01*
X001380Y003533D02*
X000860Y003533D01*
X000860Y003692D02*
X001380Y003692D01*
X001380Y003850D02*
X000860Y003850D01*
X000860Y004009D02*
X001380Y004009D01*
X001380Y004167D02*
X000860Y004167D01*
X000860Y004326D02*
X001461Y004326D01*
X001530Y004484D02*
X000860Y004484D01*
X000860Y004643D02*
X001445Y004643D01*
X001420Y004801D02*
X000860Y004801D01*
X000860Y004960D02*
X001442Y004960D01*
X001522Y005118D02*
X000860Y005118D01*
X000860Y005277D02*
X001736Y005277D01*
X001579Y005435D02*
X000860Y005435D01*
X000860Y005594D02*
X001466Y005594D01*
X001420Y005752D02*
X000860Y005752D01*
X000860Y005911D02*
X001422Y005911D01*
X001487Y006069D02*
X000860Y006069D01*
X000860Y006228D02*
X001631Y006228D01*
X001628Y006386D02*
X000860Y006386D01*
X000860Y006545D02*
X001486Y006545D01*
X001420Y006703D02*
X000860Y006703D01*
X000860Y006862D02*
X001420Y006862D01*
X001467Y007020D02*
X000860Y007020D01*
X000860Y007179D02*
X001582Y007179D01*
X001556Y007654D02*
X000860Y007654D01*
X000860Y007813D02*
X001259Y007813D01*
X001101Y007971D02*
X000860Y007971D01*
X000860Y008130D02*
X000992Y008130D01*
X000909Y008288D02*
X000860Y008288D01*
X000860Y008447D02*
X000866Y008447D01*
X002951Y008288D02*
X003476Y008288D01*
X003350Y008447D02*
X002994Y008447D01*
X003018Y008605D02*
X003295Y008605D01*
X003295Y008764D02*
X003018Y008764D01*
X002991Y008922D02*
X003353Y008922D01*
X003484Y009081D02*
X002949Y009081D01*
X004126Y009081D02*
X004484Y009081D01*
X004353Y008922D02*
X004257Y008922D01*
X004260Y008447D02*
X004350Y008447D01*
X004476Y008288D02*
X004134Y008288D01*
X005465Y005277D02*
X002124Y005277D01*
X002338Y005118D02*
X005307Y005118D01*
X004673Y004484D02*
X002330Y004484D01*
X002399Y004326D02*
X004585Y004326D01*
X004585Y004167D02*
X002480Y004167D01*
X002480Y004009D02*
X004585Y004009D01*
X004585Y003850D02*
X002480Y003850D01*
X002480Y003785D02*
X001950Y003785D01*
X001950Y003255D01*
X002324Y003255D01*
X002369Y003267D01*
X002411Y003291D01*
X002444Y003324D01*
X002468Y003366D01*
X002480Y003411D01*
X002480Y003785D01*
X002480Y003692D02*
X004585Y003692D01*
X004585Y003533D02*
X002480Y003533D01*
X002470Y003375D02*
X004585Y003375D01*
X004585Y003058D02*
X000860Y003058D01*
X000860Y002899D02*
X001433Y002899D01*
X001202Y002741D02*
X000860Y002741D01*
X000860Y002582D02*
X001050Y002582D01*
X000959Y002424D02*
X000860Y002424D01*
X000860Y002265D02*
X000894Y002265D01*
X001910Y003375D02*
X001950Y003375D01*
X001950Y003533D02*
X001910Y003533D01*
X001910Y003692D02*
X001950Y003692D01*
X002427Y002899D02*
X004585Y002899D01*
X004585Y002741D02*
X002658Y002741D01*
X002810Y002582D02*
X004585Y002582D01*
X004585Y002424D02*
X004306Y002424D01*
X004355Y002265D02*
X004419Y002265D01*
X003825Y002265D02*
X003785Y002265D01*
X003785Y002424D02*
X003825Y002424D01*
X003825Y002107D02*
X003785Y002107D01*
X003785Y001948D02*
X003018Y001948D01*
X003009Y002107D02*
X003255Y002107D01*
X003255Y001910D02*
X003255Y001536D01*
X003267Y001491D01*
X003291Y001449D01*
X003324Y001416D01*
X003366Y001392D01*
X003411Y001380D01*
X003785Y001380D01*
X003785Y001910D01*
X003255Y001910D01*
X003255Y001790D02*
X003018Y001790D01*
X002976Y001631D02*
X003255Y001631D01*
X003278Y001473D02*
X002922Y001473D01*
X002830Y001314D02*
X007780Y001314D01*
X007916Y001156D02*
X002694Y001156D01*
X002490Y000997D02*
X008120Y000997D01*
X004577Y001473D02*
X004332Y001473D01*
X004355Y001631D02*
X004383Y001631D01*
X003825Y001631D02*
X003785Y001631D01*
X003785Y001790D02*
X003825Y001790D01*
X003825Y001473D02*
X003785Y001473D01*
X003255Y002265D02*
X002966Y002265D01*
X002901Y002424D02*
X003304Y002424D01*
D14*
X004055Y004055D03*
X006680Y004055D03*
X006680Y006680D03*
X003930Y006680D03*
M02*
