G75*
G70*
%OFA0B0*%
%FSLAX24Y24*%
%IPPOS*%
%LPD*%
%AMOC8*
5,1,8,0,0,1.08239X$1,22.5*
%
%ADD10C,0.0000*%
%ADD11C,0.0060*%
%ADD12C,0.0120*%
%ADD13C,0.0100*%
%ADD14R,0.0110X0.0005*%
%ADD15R,0.0210X0.0005*%
%ADD16R,0.0280X0.0005*%
%ADD17R,0.0325X0.0005*%
%ADD18R,0.0365X0.0005*%
%ADD19R,0.0410X0.0005*%
%ADD20R,0.0440X0.0005*%
%ADD21R,0.0470X0.0005*%
%ADD22R,0.0505X0.0005*%
%ADD23R,0.0530X0.0005*%
%ADD24R,0.0555X0.0005*%
%ADD25R,0.0580X0.0005*%
%ADD26R,0.0600X0.0005*%
%ADD27R,0.0625X0.0005*%
%ADD28R,0.0645X0.0005*%
%ADD29R,0.0665X0.0005*%
%ADD30R,0.0685X0.0005*%
%ADD31R,0.0705X0.0005*%
%ADD32R,0.0715X0.0005*%
%ADD33R,0.0735X0.0005*%
%ADD34R,0.0755X0.0005*%
%ADD35R,0.0090X0.0005*%
%ADD36R,0.0770X0.0005*%
%ADD37R,0.0190X0.0005*%
%ADD38R,0.0355X0.0005*%
%ADD39R,0.0360X0.0005*%
%ADD40R,0.0260X0.0005*%
%ADD41R,0.0315X0.0005*%
%ADD42R,0.0320X0.0005*%
%ADD43R,0.0295X0.0005*%
%ADD44R,0.0275X0.0005*%
%ADD45R,0.0400X0.0005*%
%ADD46R,0.0265X0.0005*%
%ADD47R,0.0435X0.0005*%
%ADD48R,0.0255X0.0005*%
%ADD49R,0.0465X0.0005*%
%ADD50R,0.0245X0.0005*%
%ADD51R,0.0495X0.0005*%
%ADD52R,0.0235X0.0005*%
%ADD53R,0.0525X0.0005*%
%ADD54R,0.0230X0.0005*%
%ADD55R,0.0240X0.0005*%
%ADD56R,0.0545X0.0005*%
%ADD57R,0.0820X0.0005*%
%ADD58R,0.0220X0.0005*%
%ADD59R,0.0025X0.0005*%
%ADD60R,0.0795X0.0005*%
%ADD61R,0.0215X0.0005*%
%ADD62R,0.0035X0.0005*%
%ADD63R,0.0040X0.0005*%
%ADD64R,0.0800X0.0005*%
%ADD65R,0.0205X0.0005*%
%ADD66R,0.0050X0.0005*%
%ADD67R,0.0805X0.0005*%
%ADD68R,0.0165X0.0005*%
%ADD69R,0.0055X0.0005*%
%ADD70R,0.0200X0.0005*%
%ADD71R,0.0060X0.0005*%
%ADD72R,0.0300X0.0005*%
%ADD73R,0.0195X0.0005*%
%ADD74R,0.0065X0.0005*%
%ADD75R,0.0345X0.0005*%
%ADD76R,0.0070X0.0005*%
%ADD77R,0.0385X0.0005*%
%ADD78R,0.0080X0.0005*%
%ADD79R,0.0425X0.0005*%
%ADD80R,0.0185X0.0005*%
%ADD81R,0.0085X0.0005*%
%ADD82R,0.0635X0.0005*%
%ADD83R,0.0810X0.0005*%
%ADD84R,0.0095X0.0005*%
%ADD85R,0.0335X0.0005*%
%ADD86R,0.0655X0.0005*%
%ADD87R,0.0105X0.0005*%
%ADD88R,0.0290X0.0005*%
%ADD89R,0.0660X0.0005*%
%ADD90R,0.0115X0.0005*%
%ADD91R,0.0285X0.0005*%
%ADD92R,0.0120X0.0005*%
%ADD93R,0.0270X0.0005*%
%ADD94R,0.0675X0.0005*%
%ADD95R,0.0130X0.0005*%
%ADD96R,0.0680X0.0005*%
%ADD97R,0.0135X0.0005*%
%ADD98R,0.0250X0.0005*%
%ADD99R,0.0140X0.0005*%
%ADD100R,0.0180X0.0005*%
%ADD101R,0.0695X0.0005*%
%ADD102R,0.0150X0.0005*%
%ADD103R,0.0160X0.0005*%
%ADD104R,0.0155X0.0005*%
%ADD105R,0.0145X0.0005*%
%ADD106R,0.0700X0.0005*%
%ADD107R,0.0225X0.0005*%
%ADD108R,0.0170X0.0005*%
%ADD109R,0.0100X0.0005*%
%ADD110R,0.0075X0.0005*%
%ADD111R,0.0720X0.0005*%
%ADD112R,0.0725X0.0005*%
%ADD113R,0.0340X0.0005*%
%ADD114R,0.0305X0.0005*%
%ADD115R,0.0175X0.0005*%
%ADD116R,0.0005X0.0005*%
%ADD117R,0.0010X0.0005*%
%ADD118R,0.0015X0.0005*%
%ADD119R,0.0020X0.0005*%
%ADD120R,0.0030X0.0005*%
%ADD121R,0.0125X0.0005*%
%ADD122R,0.0045X0.0005*%
%ADD123R,0.0370X0.0005*%
%ADD124R,0.0375X0.0005*%
%ADD125R,0.0350X0.0005*%
%ADD126R,0.0330X0.0005*%
%ADD127R,0.0485X0.0005*%
%ADD128R,0.0480X0.0005*%
%ADD129R,0.0460X0.0005*%
%ADD130R,0.0445X0.0005*%
%ADD131R,0.0310X0.0005*%
%ADD132R,0.0380X0.0005*%
%ADD133R,0.0415X0.0005*%
%ADD134R,0.0450X0.0005*%
%ADD135R,0.0490X0.0005*%
%ADD136R,0.0965X0.0005*%
%ADD137R,0.0975X0.0005*%
%ADD138R,0.0980X0.0005*%
%ADD139R,0.0990X0.0005*%
%ADD140R,0.1005X0.0005*%
%ADD141R,0.0615X0.0005*%
%ADD142R,0.0640X0.0005*%
%ADD143R,0.0605X0.0005*%
%ADD144R,0.0620X0.0005*%
%ADD145R,0.0590X0.0005*%
%ADD146R,0.0570X0.0005*%
%ADD147R,0.0540X0.0005*%
%ADD148R,0.0515X0.0005*%
%ADD149R,0.0565X0.0005*%
%ADD150R,0.0535X0.0005*%
%ADD151R,0.0395X0.0005*%
%ADD152R,0.0520X0.0005*%
%ADD153R,0.0500X0.0005*%
%ADD154R,0.0430X0.0005*%
%ADD155C,0.0080*%
D10*
X000680Y001930D02*
X000680Y008680D01*
X000682Y008748D01*
X000687Y008815D01*
X000696Y008882D01*
X000709Y008949D01*
X000726Y009014D01*
X000745Y009079D01*
X000769Y009143D01*
X000796Y009205D01*
X000826Y009266D01*
X000859Y009324D01*
X000895Y009381D01*
X000935Y009436D01*
X000977Y009489D01*
X001023Y009540D01*
X001070Y009587D01*
X001121Y009633D01*
X001174Y009675D01*
X001229Y009715D01*
X001286Y009751D01*
X001344Y009784D01*
X001405Y009814D01*
X001467Y009841D01*
X001531Y009865D01*
X001596Y009884D01*
X001661Y009901D01*
X001728Y009914D01*
X001795Y009923D01*
X001862Y009928D01*
X001930Y009930D01*
X008680Y009930D01*
X008748Y009928D01*
X008815Y009923D01*
X008882Y009914D01*
X008949Y009901D01*
X009014Y009884D01*
X009079Y009865D01*
X009143Y009841D01*
X009205Y009814D01*
X009266Y009784D01*
X009324Y009751D01*
X009381Y009715D01*
X009436Y009675D01*
X009489Y009633D01*
X009540Y009587D01*
X009587Y009540D01*
X009633Y009489D01*
X009675Y009436D01*
X009715Y009381D01*
X009751Y009324D01*
X009784Y009266D01*
X009814Y009205D01*
X009841Y009143D01*
X009865Y009079D01*
X009884Y009014D01*
X009901Y008949D01*
X009914Y008882D01*
X009923Y008815D01*
X009928Y008748D01*
X009930Y008680D01*
X009930Y001930D01*
X009928Y001862D01*
X009923Y001795D01*
X009914Y001728D01*
X009901Y001661D01*
X009884Y001596D01*
X009865Y001531D01*
X009841Y001467D01*
X009814Y001405D01*
X009784Y001344D01*
X009751Y001286D01*
X009715Y001229D01*
X009675Y001174D01*
X009633Y001121D01*
X009587Y001070D01*
X009540Y001023D01*
X009489Y000977D01*
X009436Y000935D01*
X009381Y000895D01*
X009324Y000859D01*
X009266Y000826D01*
X009205Y000796D01*
X009143Y000769D01*
X009079Y000745D01*
X009014Y000726D01*
X008949Y000709D01*
X008882Y000696D01*
X008815Y000687D01*
X008748Y000682D01*
X008680Y000680D01*
X001930Y000680D01*
X001862Y000682D01*
X001795Y000687D01*
X001728Y000696D01*
X001661Y000709D01*
X001596Y000726D01*
X001531Y000745D01*
X001467Y000769D01*
X001405Y000796D01*
X001344Y000826D01*
X001286Y000859D01*
X001229Y000895D01*
X001174Y000935D01*
X001121Y000977D01*
X001070Y001023D01*
X001023Y001070D01*
X000977Y001121D01*
X000935Y001174D01*
X000895Y001229D01*
X000859Y001286D01*
X000826Y001344D01*
X000796Y001405D01*
X000769Y001467D01*
X000745Y001531D01*
X000726Y001596D01*
X000709Y001661D01*
X000696Y001728D01*
X000687Y001795D01*
X000682Y001862D01*
X000680Y001930D01*
X001305Y001930D02*
X001307Y001980D01*
X001313Y002029D01*
X001323Y002078D01*
X001336Y002125D01*
X001354Y002172D01*
X001375Y002217D01*
X001399Y002260D01*
X001427Y002301D01*
X001458Y002340D01*
X001492Y002376D01*
X001529Y002410D01*
X001569Y002440D01*
X001610Y002467D01*
X001654Y002491D01*
X001699Y002511D01*
X001746Y002527D01*
X001794Y002540D01*
X001843Y002549D01*
X001893Y002554D01*
X001942Y002555D01*
X001992Y002552D01*
X002041Y002545D01*
X002090Y002534D01*
X002137Y002520D01*
X002183Y002501D01*
X002228Y002479D01*
X002271Y002454D01*
X002311Y002425D01*
X002349Y002393D01*
X002385Y002359D01*
X002418Y002321D01*
X002447Y002281D01*
X002473Y002239D01*
X002496Y002195D01*
X002515Y002149D01*
X002531Y002102D01*
X002543Y002053D01*
X002551Y002004D01*
X002555Y001955D01*
X002555Y001905D01*
X002551Y001856D01*
X002543Y001807D01*
X002531Y001758D01*
X002515Y001711D01*
X002496Y001665D01*
X002473Y001621D01*
X002447Y001579D01*
X002418Y001539D01*
X002385Y001501D01*
X002349Y001467D01*
X002311Y001435D01*
X002271Y001406D01*
X002228Y001381D01*
X002183Y001359D01*
X002137Y001340D01*
X002090Y001326D01*
X002041Y001315D01*
X001992Y001308D01*
X001942Y001305D01*
X001893Y001306D01*
X001843Y001311D01*
X001794Y001320D01*
X001746Y001333D01*
X001699Y001349D01*
X001654Y001369D01*
X001610Y001393D01*
X001569Y001420D01*
X001529Y001450D01*
X001492Y001484D01*
X001458Y001520D01*
X001427Y001559D01*
X001399Y001600D01*
X001375Y001643D01*
X001354Y001688D01*
X001336Y001735D01*
X001323Y001782D01*
X001313Y001831D01*
X001307Y001880D01*
X001305Y001930D01*
X001305Y008680D02*
X001307Y008730D01*
X001313Y008779D01*
X001323Y008828D01*
X001336Y008875D01*
X001354Y008922D01*
X001375Y008967D01*
X001399Y009010D01*
X001427Y009051D01*
X001458Y009090D01*
X001492Y009126D01*
X001529Y009160D01*
X001569Y009190D01*
X001610Y009217D01*
X001654Y009241D01*
X001699Y009261D01*
X001746Y009277D01*
X001794Y009290D01*
X001843Y009299D01*
X001893Y009304D01*
X001942Y009305D01*
X001992Y009302D01*
X002041Y009295D01*
X002090Y009284D01*
X002137Y009270D01*
X002183Y009251D01*
X002228Y009229D01*
X002271Y009204D01*
X002311Y009175D01*
X002349Y009143D01*
X002385Y009109D01*
X002418Y009071D01*
X002447Y009031D01*
X002473Y008989D01*
X002496Y008945D01*
X002515Y008899D01*
X002531Y008852D01*
X002543Y008803D01*
X002551Y008754D01*
X002555Y008705D01*
X002555Y008655D01*
X002551Y008606D01*
X002543Y008557D01*
X002531Y008508D01*
X002515Y008461D01*
X002496Y008415D01*
X002473Y008371D01*
X002447Y008329D01*
X002418Y008289D01*
X002385Y008251D01*
X002349Y008217D01*
X002311Y008185D01*
X002271Y008156D01*
X002228Y008131D01*
X002183Y008109D01*
X002137Y008090D01*
X002090Y008076D01*
X002041Y008065D01*
X001992Y008058D01*
X001942Y008055D01*
X001893Y008056D01*
X001843Y008061D01*
X001794Y008070D01*
X001746Y008083D01*
X001699Y008099D01*
X001654Y008119D01*
X001610Y008143D01*
X001569Y008170D01*
X001529Y008200D01*
X001492Y008234D01*
X001458Y008270D01*
X001427Y008309D01*
X001399Y008350D01*
X001375Y008393D01*
X001354Y008438D01*
X001336Y008485D01*
X001323Y008532D01*
X001313Y008581D01*
X001307Y008630D01*
X001305Y008680D01*
X008055Y008680D02*
X008057Y008730D01*
X008063Y008779D01*
X008073Y008828D01*
X008086Y008875D01*
X008104Y008922D01*
X008125Y008967D01*
X008149Y009010D01*
X008177Y009051D01*
X008208Y009090D01*
X008242Y009126D01*
X008279Y009160D01*
X008319Y009190D01*
X008360Y009217D01*
X008404Y009241D01*
X008449Y009261D01*
X008496Y009277D01*
X008544Y009290D01*
X008593Y009299D01*
X008643Y009304D01*
X008692Y009305D01*
X008742Y009302D01*
X008791Y009295D01*
X008840Y009284D01*
X008887Y009270D01*
X008933Y009251D01*
X008978Y009229D01*
X009021Y009204D01*
X009061Y009175D01*
X009099Y009143D01*
X009135Y009109D01*
X009168Y009071D01*
X009197Y009031D01*
X009223Y008989D01*
X009246Y008945D01*
X009265Y008899D01*
X009281Y008852D01*
X009293Y008803D01*
X009301Y008754D01*
X009305Y008705D01*
X009305Y008655D01*
X009301Y008606D01*
X009293Y008557D01*
X009281Y008508D01*
X009265Y008461D01*
X009246Y008415D01*
X009223Y008371D01*
X009197Y008329D01*
X009168Y008289D01*
X009135Y008251D01*
X009099Y008217D01*
X009061Y008185D01*
X009021Y008156D01*
X008978Y008131D01*
X008933Y008109D01*
X008887Y008090D01*
X008840Y008076D01*
X008791Y008065D01*
X008742Y008058D01*
X008692Y008055D01*
X008643Y008056D01*
X008593Y008061D01*
X008544Y008070D01*
X008496Y008083D01*
X008449Y008099D01*
X008404Y008119D01*
X008360Y008143D01*
X008319Y008170D01*
X008279Y008200D01*
X008242Y008234D01*
X008208Y008270D01*
X008177Y008309D01*
X008149Y008350D01*
X008125Y008393D01*
X008104Y008438D01*
X008086Y008485D01*
X008073Y008532D01*
X008063Y008581D01*
X008057Y008630D01*
X008055Y008680D01*
X008055Y001930D02*
X008057Y001980D01*
X008063Y002029D01*
X008073Y002078D01*
X008086Y002125D01*
X008104Y002172D01*
X008125Y002217D01*
X008149Y002260D01*
X008177Y002301D01*
X008208Y002340D01*
X008242Y002376D01*
X008279Y002410D01*
X008319Y002440D01*
X008360Y002467D01*
X008404Y002491D01*
X008449Y002511D01*
X008496Y002527D01*
X008544Y002540D01*
X008593Y002549D01*
X008643Y002554D01*
X008692Y002555D01*
X008742Y002552D01*
X008791Y002545D01*
X008840Y002534D01*
X008887Y002520D01*
X008933Y002501D01*
X008978Y002479D01*
X009021Y002454D01*
X009061Y002425D01*
X009099Y002393D01*
X009135Y002359D01*
X009168Y002321D01*
X009197Y002281D01*
X009223Y002239D01*
X009246Y002195D01*
X009265Y002149D01*
X009281Y002102D01*
X009293Y002053D01*
X009301Y002004D01*
X009305Y001955D01*
X009305Y001905D01*
X009301Y001856D01*
X009293Y001807D01*
X009281Y001758D01*
X009265Y001711D01*
X009246Y001665D01*
X009223Y001621D01*
X009197Y001579D01*
X009168Y001539D01*
X009135Y001501D01*
X009099Y001467D01*
X009061Y001435D01*
X009021Y001406D01*
X008978Y001381D01*
X008933Y001359D01*
X008887Y001340D01*
X008840Y001326D01*
X008791Y001315D01*
X008742Y001308D01*
X008692Y001305D01*
X008643Y001306D01*
X008593Y001311D01*
X008544Y001320D01*
X008496Y001333D01*
X008449Y001349D01*
X008404Y001369D01*
X008360Y001393D01*
X008319Y001420D01*
X008279Y001450D01*
X008242Y001484D01*
X008208Y001520D01*
X008177Y001559D01*
X008149Y001600D01*
X008125Y001643D01*
X008104Y001688D01*
X008086Y001735D01*
X008073Y001782D01*
X008063Y001831D01*
X008057Y001880D01*
X008055Y001930D01*
D11*
X007050Y002662D02*
X006993Y002605D01*
X007050Y002662D02*
X007050Y002775D01*
X006993Y002832D01*
X006937Y002832D01*
X006880Y002775D01*
X006880Y002662D01*
X006823Y002605D01*
X006766Y002605D01*
X006710Y002662D01*
X006710Y002775D01*
X006766Y002832D01*
X006710Y002973D02*
X006710Y003144D01*
X006766Y003200D01*
X006993Y003200D01*
X007050Y003144D01*
X007050Y002973D01*
X006710Y002973D01*
X006823Y003342D02*
X006710Y003455D01*
X006823Y003569D01*
X007050Y003569D01*
X007162Y003685D02*
X007275Y003685D01*
X007332Y003742D01*
X007332Y003855D01*
X007218Y003855D01*
X007105Y003969D02*
X007162Y004025D01*
X007275Y004025D01*
X007332Y003969D01*
X007473Y004025D02*
X007700Y003685D01*
X007700Y004025D01*
X007842Y004025D02*
X008012Y004025D01*
X008069Y003969D01*
X008069Y003742D01*
X008012Y003685D01*
X007842Y003685D01*
X007842Y004025D01*
X007473Y004025D02*
X007473Y003685D01*
X007162Y003685D02*
X007105Y003742D01*
X007105Y003969D01*
X006880Y003569D02*
X006880Y003342D01*
X006823Y003342D02*
X007050Y003342D01*
X006050Y003342D02*
X006050Y003569D01*
X006050Y003342D02*
X005710Y003342D01*
X005766Y003200D02*
X005710Y003144D01*
X005710Y003030D01*
X005766Y002973D01*
X005993Y002973D01*
X006050Y003030D01*
X006050Y003144D01*
X005993Y003200D01*
X005993Y002832D02*
X005937Y002832D01*
X005880Y002775D01*
X005880Y002662D01*
X005823Y002605D01*
X005766Y002605D01*
X005710Y002662D01*
X005710Y002775D01*
X005766Y002832D01*
X005993Y002832D02*
X006050Y002775D01*
X006050Y002662D01*
X005993Y002605D01*
X005050Y002718D02*
X004937Y002832D01*
X004710Y002832D01*
X004766Y002973D02*
X004993Y002973D01*
X005050Y003030D01*
X005050Y003144D01*
X004993Y003200D01*
X004993Y003342D02*
X005050Y003398D01*
X005050Y003512D01*
X004993Y003569D01*
X004993Y003342D02*
X004766Y003342D01*
X004710Y003398D01*
X004710Y003512D01*
X004766Y003569D01*
X004766Y003200D02*
X004710Y003144D01*
X004710Y003030D01*
X004766Y002973D01*
X005050Y002718D02*
X004937Y002605D01*
X004710Y002605D01*
X004050Y002662D02*
X004050Y002775D01*
X003993Y002832D01*
X003880Y002832D01*
X003880Y002718D01*
X003993Y002605D02*
X003766Y002605D01*
X003710Y002662D01*
X003710Y002775D01*
X003766Y002832D01*
X003710Y002973D02*
X004050Y003200D01*
X003710Y003200D01*
X003710Y003342D02*
X003710Y003512D01*
X003766Y003569D01*
X003993Y003569D01*
X004050Y003512D01*
X004050Y003342D01*
X003710Y003342D01*
X003710Y002973D02*
X004050Y002973D01*
X004050Y002662D02*
X003993Y002605D01*
X001275Y003142D02*
X001275Y003255D01*
X001218Y003312D01*
X001105Y003312D01*
X001105Y003198D01*
X001218Y003085D02*
X000991Y003085D01*
X000935Y003142D01*
X000935Y003255D01*
X000991Y003312D01*
X000935Y003453D02*
X001275Y003680D01*
X000935Y003680D01*
X000935Y003822D02*
X000935Y003992D01*
X000991Y004048D01*
X001218Y004048D01*
X001275Y003992D01*
X001275Y003822D01*
X000935Y003822D01*
X000935Y003453D02*
X001275Y003453D01*
X001275Y003142D02*
X001218Y003085D01*
X001162Y004335D02*
X000935Y004335D01*
X001162Y004335D02*
X001275Y004448D01*
X001162Y004562D01*
X000935Y004562D01*
X000991Y004703D02*
X000935Y004760D01*
X000935Y004873D01*
X000991Y004930D01*
X000991Y005072D02*
X001218Y005072D01*
X001275Y005128D01*
X001275Y005242D01*
X001218Y005298D01*
X000991Y005298D02*
X000935Y005242D01*
X000935Y005128D01*
X000991Y005072D01*
X001218Y004930D02*
X001275Y004873D01*
X001275Y004760D01*
X001218Y004703D01*
X000991Y004703D01*
X002585Y005642D02*
X002642Y005585D01*
X002755Y005585D01*
X002812Y005642D01*
X002812Y005698D01*
X002755Y005755D01*
X002642Y005755D01*
X002585Y005812D01*
X002585Y005869D01*
X002642Y005925D01*
X002755Y005925D01*
X002812Y005869D01*
X002953Y005869D02*
X002953Y005642D01*
X003010Y005585D01*
X003123Y005585D01*
X003180Y005642D01*
X003322Y005585D02*
X003322Y005925D01*
X003180Y005869D02*
X003123Y005925D01*
X003010Y005925D01*
X002953Y005869D01*
X003322Y005585D02*
X003548Y005585D01*
X003548Y006585D02*
X003548Y006812D01*
X003435Y006925D01*
X003322Y006812D01*
X003322Y006585D01*
X003322Y006755D02*
X003548Y006755D01*
X003741Y007085D02*
X003798Y007085D01*
X003855Y007142D01*
X003855Y007255D01*
X003912Y007312D01*
X003968Y007312D01*
X004025Y007255D01*
X004025Y007142D01*
X003968Y007085D01*
X003741Y007085D02*
X003685Y007142D01*
X003685Y007255D01*
X003741Y007312D01*
X003685Y007453D02*
X003685Y007623D01*
X003741Y007680D01*
X003968Y007680D01*
X004025Y007623D01*
X004025Y007453D01*
X003685Y007453D01*
X003798Y007822D02*
X003685Y007935D01*
X003798Y008048D01*
X004025Y008048D01*
X003855Y008048D02*
X003855Y007822D01*
X003798Y007822D02*
X004025Y007822D01*
X004685Y007822D02*
X005025Y007822D01*
X005025Y008048D01*
X004968Y007680D02*
X005025Y007623D01*
X005025Y007510D01*
X004968Y007453D01*
X004741Y007453D01*
X004685Y007510D01*
X004685Y007623D01*
X004741Y007680D01*
X004741Y007312D02*
X004685Y007255D01*
X004685Y007142D01*
X004741Y007085D01*
X004798Y007085D01*
X004855Y007142D01*
X004855Y007255D01*
X004912Y007312D01*
X004968Y007312D01*
X005025Y007255D01*
X005025Y007142D01*
X004968Y007085D01*
X005685Y007085D02*
X005912Y007085D01*
X006025Y007198D01*
X005912Y007312D01*
X005685Y007312D01*
X005741Y007453D02*
X005685Y007510D01*
X005685Y007623D01*
X005741Y007680D01*
X005741Y007822D02*
X005968Y007822D01*
X006025Y007878D01*
X006025Y007992D01*
X005968Y008048D01*
X005741Y008048D02*
X005685Y007992D01*
X005685Y007878D01*
X005741Y007822D01*
X005968Y007680D02*
X006025Y007623D01*
X006025Y007510D01*
X005968Y007453D01*
X005741Y007453D01*
X006685Y007453D02*
X007025Y007680D01*
X006685Y007680D01*
X006685Y007822D02*
X006685Y007992D01*
X006741Y008048D01*
X006968Y008048D01*
X007025Y007992D01*
X007025Y007822D01*
X006685Y007822D01*
X006685Y007453D02*
X007025Y007453D01*
X006968Y007312D02*
X006855Y007312D01*
X006855Y007198D01*
X006968Y007085D02*
X006741Y007085D01*
X006685Y007142D01*
X006685Y007255D01*
X006741Y007312D01*
X006968Y007312D02*
X007025Y007255D01*
X007025Y007142D01*
X006968Y007085D01*
X007105Y006969D02*
X007105Y006912D01*
X007162Y006855D01*
X007275Y006855D01*
X007332Y006798D01*
X007332Y006742D01*
X007275Y006685D01*
X007162Y006685D01*
X007105Y006742D01*
X007105Y006969D02*
X007162Y007025D01*
X007275Y007025D01*
X007332Y006969D01*
X007473Y007025D02*
X007644Y007025D01*
X007700Y006969D01*
X007700Y006742D01*
X007644Y006685D01*
X007473Y006685D01*
X007473Y007025D01*
X007842Y006912D02*
X007842Y006685D01*
X007842Y006855D02*
X008069Y006855D01*
X008069Y006912D02*
X008069Y006685D01*
X008069Y006912D02*
X007955Y007025D01*
X007842Y006912D01*
X007842Y006025D02*
X007842Y005685D01*
X008069Y005685D01*
X007700Y005742D02*
X007644Y005685D01*
X007530Y005685D01*
X007473Y005742D01*
X007473Y005969D01*
X007530Y006025D01*
X007644Y006025D01*
X007700Y005969D01*
X007332Y005969D02*
X007275Y006025D01*
X007162Y006025D01*
X007105Y005969D01*
X007105Y005912D01*
X007162Y005855D01*
X007275Y005855D01*
X007332Y005798D01*
X007332Y005742D01*
X007275Y005685D01*
X007162Y005685D01*
X007105Y005742D01*
X007105Y005025D02*
X007105Y004798D01*
X007218Y004685D01*
X007332Y004798D01*
X007332Y005025D01*
X007473Y004969D02*
X007473Y004742D01*
X007530Y004685D01*
X007644Y004685D01*
X007700Y004742D01*
X007842Y004742D02*
X007898Y004685D01*
X008012Y004685D01*
X008069Y004742D01*
X008069Y004969D02*
X008012Y005025D01*
X007898Y005025D01*
X007842Y004969D01*
X007842Y004742D01*
X007700Y004969D02*
X007644Y005025D01*
X007530Y005025D01*
X007473Y004969D01*
X003180Y006642D02*
X003180Y006869D01*
X003123Y006925D01*
X002953Y006925D01*
X002953Y006585D01*
X003123Y006585D01*
X003180Y006642D01*
X002812Y006642D02*
X002755Y006585D01*
X002642Y006585D01*
X002585Y006642D01*
X002642Y006755D02*
X002755Y006755D01*
X002812Y006698D01*
X002812Y006642D01*
X002642Y006755D02*
X002585Y006812D01*
X002585Y006869D01*
X002642Y006925D01*
X002755Y006925D01*
X002812Y006869D01*
D12*
X001930Y007805D02*
X001872Y007807D01*
X001813Y007813D01*
X001756Y007823D01*
X001699Y007836D01*
X001643Y007853D01*
X001588Y007874D01*
X001535Y007899D01*
X001484Y007927D01*
X001435Y007959D01*
X001388Y007993D01*
X001343Y008031D01*
X001301Y008072D01*
X001262Y008115D01*
X001226Y008161D01*
X001192Y008209D01*
X001163Y008259D01*
X001136Y008312D01*
X001113Y008366D01*
X001094Y008421D01*
X001079Y008477D01*
X001067Y008534D01*
X001059Y008592D01*
X001055Y008651D01*
X001055Y008709D01*
X001059Y008768D01*
X001067Y008826D01*
X001079Y008883D01*
X001094Y008939D01*
X001113Y008994D01*
X001136Y009048D01*
X001163Y009101D01*
X001192Y009151D01*
X001226Y009199D01*
X001262Y009245D01*
X001301Y009288D01*
X001343Y009329D01*
X001388Y009367D01*
X001435Y009401D01*
X001484Y009433D01*
X001535Y009461D01*
X001588Y009486D01*
X001643Y009507D01*
X001699Y009524D01*
X001756Y009537D01*
X001813Y009547D01*
X001872Y009553D01*
X001930Y009555D01*
X001988Y009553D01*
X002047Y009547D01*
X002104Y009537D01*
X002161Y009524D01*
X002217Y009507D01*
X002272Y009486D01*
X002325Y009461D01*
X002376Y009433D01*
X002425Y009401D01*
X002472Y009367D01*
X002517Y009329D01*
X002559Y009288D01*
X002598Y009245D01*
X002634Y009199D01*
X002668Y009151D01*
X002697Y009101D01*
X002724Y009048D01*
X002747Y008994D01*
X002766Y008939D01*
X002781Y008883D01*
X002793Y008826D01*
X002801Y008768D01*
X002805Y008709D01*
X002805Y008651D01*
X002801Y008592D01*
X002793Y008534D01*
X002781Y008477D01*
X002766Y008421D01*
X002747Y008366D01*
X002724Y008312D01*
X002697Y008259D01*
X002668Y008209D01*
X002634Y008161D01*
X002598Y008115D01*
X002559Y008072D01*
X002517Y008031D01*
X002472Y007993D01*
X002425Y007959D01*
X002376Y007927D01*
X002325Y007899D01*
X002272Y007874D01*
X002217Y007853D01*
X002161Y007836D01*
X002104Y007823D01*
X002047Y007813D01*
X001988Y007807D01*
X001930Y007805D01*
X001930Y002805D02*
X001872Y002803D01*
X001813Y002797D01*
X001756Y002787D01*
X001699Y002774D01*
X001643Y002757D01*
X001588Y002736D01*
X001535Y002711D01*
X001484Y002683D01*
X001435Y002651D01*
X001388Y002617D01*
X001343Y002579D01*
X001301Y002538D01*
X001262Y002495D01*
X001226Y002449D01*
X001192Y002401D01*
X001163Y002351D01*
X001136Y002298D01*
X001113Y002244D01*
X001094Y002189D01*
X001079Y002133D01*
X001067Y002076D01*
X001059Y002018D01*
X001055Y001959D01*
X001055Y001901D01*
X001059Y001842D01*
X001067Y001784D01*
X001079Y001727D01*
X001094Y001671D01*
X001113Y001616D01*
X001136Y001562D01*
X001163Y001509D01*
X001192Y001459D01*
X001226Y001411D01*
X001262Y001365D01*
X001301Y001322D01*
X001343Y001281D01*
X001388Y001243D01*
X001435Y001209D01*
X001484Y001177D01*
X001535Y001149D01*
X001588Y001124D01*
X001643Y001103D01*
X001699Y001086D01*
X001756Y001073D01*
X001813Y001063D01*
X001872Y001057D01*
X001930Y001055D01*
X001988Y001057D01*
X002047Y001063D01*
X002104Y001073D01*
X002161Y001086D01*
X002217Y001103D01*
X002272Y001124D01*
X002325Y001149D01*
X002376Y001177D01*
X002425Y001209D01*
X002472Y001243D01*
X002517Y001281D01*
X002559Y001322D01*
X002598Y001365D01*
X002634Y001411D01*
X002668Y001459D01*
X002697Y001509D01*
X002724Y001562D01*
X002747Y001616D01*
X002766Y001671D01*
X002781Y001727D01*
X002793Y001784D01*
X002801Y001842D01*
X002805Y001901D01*
X002805Y001959D01*
X002801Y002018D01*
X002793Y002076D01*
X002781Y002133D01*
X002766Y002189D01*
X002747Y002244D01*
X002724Y002298D01*
X002697Y002351D01*
X002668Y002401D01*
X002634Y002449D01*
X002598Y002495D01*
X002559Y002538D01*
X002517Y002579D01*
X002472Y002617D01*
X002425Y002651D01*
X002376Y002683D01*
X002325Y002711D01*
X002272Y002736D01*
X002217Y002757D01*
X002161Y002774D01*
X002104Y002787D01*
X002047Y002797D01*
X001988Y002803D01*
X001930Y002805D01*
X008680Y002805D02*
X008622Y002803D01*
X008563Y002797D01*
X008506Y002787D01*
X008449Y002774D01*
X008393Y002757D01*
X008338Y002736D01*
X008285Y002711D01*
X008234Y002683D01*
X008185Y002651D01*
X008138Y002617D01*
X008093Y002579D01*
X008051Y002538D01*
X008012Y002495D01*
X007976Y002449D01*
X007942Y002401D01*
X007913Y002351D01*
X007886Y002298D01*
X007863Y002244D01*
X007844Y002189D01*
X007829Y002133D01*
X007817Y002076D01*
X007809Y002018D01*
X007805Y001959D01*
X007805Y001901D01*
X007809Y001842D01*
X007817Y001784D01*
X007829Y001727D01*
X007844Y001671D01*
X007863Y001616D01*
X007886Y001562D01*
X007913Y001509D01*
X007942Y001459D01*
X007976Y001411D01*
X008012Y001365D01*
X008051Y001322D01*
X008093Y001281D01*
X008138Y001243D01*
X008185Y001209D01*
X008234Y001177D01*
X008285Y001149D01*
X008338Y001124D01*
X008393Y001103D01*
X008449Y001086D01*
X008506Y001073D01*
X008563Y001063D01*
X008622Y001057D01*
X008680Y001055D01*
X008738Y001057D01*
X008797Y001063D01*
X008854Y001073D01*
X008911Y001086D01*
X008967Y001103D01*
X009022Y001124D01*
X009075Y001149D01*
X009126Y001177D01*
X009175Y001209D01*
X009222Y001243D01*
X009267Y001281D01*
X009309Y001322D01*
X009348Y001365D01*
X009384Y001411D01*
X009418Y001459D01*
X009447Y001509D01*
X009474Y001562D01*
X009497Y001616D01*
X009516Y001671D01*
X009531Y001727D01*
X009543Y001784D01*
X009551Y001842D01*
X009555Y001901D01*
X009555Y001959D01*
X009551Y002018D01*
X009543Y002076D01*
X009531Y002133D01*
X009516Y002189D01*
X009497Y002244D01*
X009474Y002298D01*
X009447Y002351D01*
X009418Y002401D01*
X009384Y002449D01*
X009348Y002495D01*
X009309Y002538D01*
X009267Y002579D01*
X009222Y002617D01*
X009175Y002651D01*
X009126Y002683D01*
X009075Y002711D01*
X009022Y002736D01*
X008967Y002757D01*
X008911Y002774D01*
X008854Y002787D01*
X008797Y002797D01*
X008738Y002803D01*
X008680Y002805D01*
X008680Y007805D02*
X008622Y007807D01*
X008563Y007813D01*
X008506Y007823D01*
X008449Y007836D01*
X008393Y007853D01*
X008338Y007874D01*
X008285Y007899D01*
X008234Y007927D01*
X008185Y007959D01*
X008138Y007993D01*
X008093Y008031D01*
X008051Y008072D01*
X008012Y008115D01*
X007976Y008161D01*
X007942Y008209D01*
X007913Y008259D01*
X007886Y008312D01*
X007863Y008366D01*
X007844Y008421D01*
X007829Y008477D01*
X007817Y008534D01*
X007809Y008592D01*
X007805Y008651D01*
X007805Y008709D01*
X007809Y008768D01*
X007817Y008826D01*
X007829Y008883D01*
X007844Y008939D01*
X007863Y008994D01*
X007886Y009048D01*
X007913Y009101D01*
X007942Y009151D01*
X007976Y009199D01*
X008012Y009245D01*
X008051Y009288D01*
X008093Y009329D01*
X008138Y009367D01*
X008185Y009401D01*
X008234Y009433D01*
X008285Y009461D01*
X008338Y009486D01*
X008393Y009507D01*
X008449Y009524D01*
X008506Y009537D01*
X008563Y009547D01*
X008622Y009553D01*
X008680Y009555D01*
X008738Y009553D01*
X008797Y009547D01*
X008854Y009537D01*
X008911Y009524D01*
X008967Y009507D01*
X009022Y009486D01*
X009075Y009461D01*
X009126Y009433D01*
X009175Y009401D01*
X009222Y009367D01*
X009267Y009329D01*
X009309Y009288D01*
X009348Y009245D01*
X009384Y009199D01*
X009418Y009151D01*
X009447Y009101D01*
X009474Y009048D01*
X009497Y008994D01*
X009516Y008939D01*
X009531Y008883D01*
X009543Y008826D01*
X009551Y008768D01*
X009555Y008709D01*
X009555Y008651D01*
X009551Y008592D01*
X009543Y008534D01*
X009531Y008477D01*
X009516Y008421D01*
X009497Y008366D01*
X009474Y008312D01*
X009447Y008259D01*
X009418Y008209D01*
X009384Y008161D01*
X009348Y008115D01*
X009309Y008072D01*
X009267Y008031D01*
X009222Y007993D01*
X009175Y007959D01*
X009126Y007927D01*
X009075Y007899D01*
X009022Y007874D01*
X008967Y007853D01*
X008911Y007836D01*
X008854Y007823D01*
X008797Y007813D01*
X008738Y007807D01*
X008680Y007805D01*
D13*
X009430Y007055D02*
X009680Y006805D01*
X009430Y006555D01*
X009430Y007055D01*
X009430Y006055D02*
X009680Y005805D01*
X009430Y005555D01*
X009430Y006055D01*
X005055Y009430D02*
X004805Y009680D01*
X004555Y009430D01*
X005055Y009430D01*
X004055Y009430D02*
X003805Y009680D01*
X003555Y009430D01*
X004055Y009430D01*
X001180Y006805D02*
X000930Y006555D01*
X000930Y007055D01*
X001180Y006805D01*
X000930Y006055D02*
X001180Y005805D01*
X000930Y005555D01*
X000930Y006055D01*
X005555Y001180D02*
X005805Y000930D01*
X006055Y001180D01*
X005555Y001180D01*
X006555Y001180D02*
X006805Y000930D01*
X007055Y001180D01*
X006555Y001180D01*
D14*
X005374Y004371D03*
X005479Y004646D03*
X005464Y004656D03*
X005459Y004661D03*
X005454Y004666D03*
X005439Y004676D03*
X005394Y004706D03*
X005379Y004716D03*
X005374Y004721D03*
X005359Y004731D03*
X005344Y004741D03*
X005339Y004746D03*
X005329Y004751D03*
X005324Y004756D03*
X005319Y004761D03*
X005309Y004766D03*
X005304Y004771D03*
X005294Y004776D03*
X005289Y004781D03*
X005274Y004791D03*
X005494Y005021D03*
X005614Y005176D03*
X005614Y005181D03*
X005619Y005186D03*
X005619Y005191D03*
X005089Y005331D03*
X005089Y005336D03*
X004929Y005356D03*
X004929Y005361D03*
X004869Y004886D03*
X004899Y004691D03*
X005244Y005896D03*
X005244Y005901D03*
D15*
X005374Y006096D03*
X004964Y006291D03*
X004024Y005786D03*
X004024Y005246D03*
X004029Y005241D03*
X004284Y004721D03*
X005014Y004541D03*
X005374Y004376D03*
X006479Y004646D03*
X006564Y005676D03*
X006279Y005826D03*
D16*
X006314Y005806D03*
X005649Y004496D03*
X005374Y004381D03*
X004119Y005836D03*
X004964Y006286D03*
D17*
X004966Y006281D03*
X005386Y006126D03*
X006346Y004586D03*
X005376Y004386D03*
D18*
X005376Y004391D03*
X006371Y005761D03*
D19*
X005374Y004396D03*
X004279Y005891D03*
D20*
X004269Y005881D03*
X005374Y004401D03*
D21*
X005374Y004406D03*
X004259Y005866D03*
D22*
X004976Y006251D03*
X005376Y004411D03*
D23*
X005374Y004416D03*
D24*
X005376Y004421D03*
X005001Y006231D03*
D25*
X005019Y006216D03*
X005374Y004426D03*
D26*
X005374Y004431D03*
X005029Y006206D03*
D27*
X005376Y004436D03*
D28*
X005376Y004441D03*
X004731Y004586D03*
D29*
X004701Y004601D03*
X005376Y004446D03*
D30*
X005376Y004451D03*
X004676Y004616D03*
D31*
X004646Y004636D03*
X005376Y004456D03*
D32*
X005376Y004461D03*
X004641Y004641D03*
X004636Y004646D03*
D33*
X005376Y004466D03*
D34*
X005376Y004471D03*
D35*
X005559Y004581D03*
X005494Y004996D03*
X005629Y005226D03*
X005634Y005236D03*
X005634Y005241D03*
X005089Y005356D03*
X004924Y005331D03*
X004869Y004861D03*
X004904Y004696D03*
X006109Y004471D03*
X005249Y005926D03*
D36*
X005374Y004476D03*
D37*
X005294Y004806D03*
X006109Y004476D03*
X006584Y005131D03*
X006589Y005136D03*
X006594Y005146D03*
X006599Y005151D03*
X006604Y005156D03*
X006609Y005161D03*
X006614Y005636D03*
X006609Y005641D03*
X006604Y005646D03*
X006269Y005831D03*
X006144Y006051D03*
X006139Y006056D03*
X006134Y006061D03*
X004154Y005146D03*
X003994Y005271D03*
X003989Y005276D03*
X003989Y005756D03*
X003994Y005761D03*
X004239Y004756D03*
X004244Y004751D03*
D38*
X005161Y004481D03*
X006111Y004491D03*
X006356Y005771D03*
D39*
X006364Y005766D03*
X006414Y005736D03*
X005179Y006186D03*
X004299Y005911D03*
X004179Y005851D03*
X005589Y004481D03*
D40*
X006109Y004481D03*
X006409Y004606D03*
X006304Y005811D03*
X006024Y006131D03*
X005379Y006111D03*
X004354Y004681D03*
D41*
X005131Y004486D03*
X005621Y004486D03*
X005211Y006181D03*
D42*
X004154Y005846D03*
X006109Y004486D03*
X006444Y005731D03*
X006334Y005791D03*
D43*
X006321Y005801D03*
X006461Y005726D03*
X005636Y004491D03*
X005116Y004491D03*
X004136Y005841D03*
D44*
X004331Y005936D03*
X005301Y004831D03*
X005101Y004496D03*
X004846Y004661D03*
X004371Y004676D03*
D45*
X004284Y005896D03*
X006109Y004496D03*
D46*
X005846Y004596D03*
X005666Y004501D03*
X005311Y004821D03*
X005086Y004501D03*
X004106Y005831D03*
X006491Y005716D03*
D47*
X006111Y004501D03*
D48*
X005676Y004506D03*
X005311Y004816D03*
X005076Y004506D03*
X004346Y004686D03*
X004096Y005826D03*
X006501Y005711D03*
D49*
X006111Y004506D03*
X004951Y006266D03*
D50*
X006046Y006121D03*
X006511Y005706D03*
X005686Y004511D03*
X005066Y004511D03*
X004336Y004691D03*
X004121Y005181D03*
X004116Y005186D03*
X004081Y005211D03*
D51*
X006111Y004511D03*
D52*
X005696Y004516D03*
X005056Y004516D03*
X004651Y004556D03*
X004316Y004701D03*
X004131Y005171D03*
X004126Y005176D03*
X004066Y005811D03*
X006056Y006116D03*
X006531Y005696D03*
D53*
X006111Y004516D03*
D54*
X006439Y004621D03*
X006449Y004626D03*
X006539Y005691D03*
X006289Y005821D03*
X006064Y006111D03*
X005049Y004521D03*
X005039Y004526D03*
X004064Y005221D03*
X004054Y005226D03*
X004054Y005806D03*
D55*
X004074Y005816D03*
X004074Y005216D03*
X004324Y004696D03*
X005314Y004836D03*
X005704Y004521D03*
X005839Y004601D03*
X006429Y004616D03*
X006524Y005701D03*
X005379Y006106D03*
D56*
X004996Y006236D03*
X006111Y004521D03*
D57*
X005989Y004526D03*
D58*
X006464Y004636D03*
X006549Y005686D03*
X006079Y006101D03*
X006074Y006106D03*
X005029Y004531D03*
X004299Y004711D03*
X004039Y005796D03*
D59*
X004906Y005246D03*
X004906Y005241D03*
X005081Y005421D03*
X005261Y006011D03*
X005261Y006016D03*
X005681Y005396D03*
X005681Y005391D03*
X005481Y004896D03*
X005481Y004891D03*
X005586Y004531D03*
X004861Y004791D03*
D60*
X006011Y004531D03*
X006021Y004536D03*
D61*
X005831Y004606D03*
X005326Y004841D03*
X005021Y004536D03*
X004291Y004716D03*
X004141Y005161D03*
X004036Y005236D03*
X004031Y005791D03*
X006086Y006096D03*
X006556Y005681D03*
X006471Y004641D03*
D62*
X005671Y005361D03*
X005676Y005371D03*
X005676Y005376D03*
X005081Y005411D03*
X005081Y005416D03*
X004906Y005256D03*
X004906Y004706D03*
X005581Y004536D03*
X005256Y005996D03*
D63*
X005259Y005991D03*
X005084Y005406D03*
X004909Y005266D03*
X004909Y005261D03*
X004864Y004811D03*
X004864Y004806D03*
X005484Y004916D03*
X005484Y004921D03*
X005809Y004651D03*
X005579Y004541D03*
X005669Y005351D03*
X005669Y005356D03*
X005674Y005366D03*
D64*
X006059Y004556D03*
X006049Y004551D03*
X006029Y004541D03*
D65*
X006486Y004651D03*
X006491Y004656D03*
X006571Y005671D03*
X006101Y006086D03*
X006096Y006091D03*
X005001Y004551D03*
X005006Y004546D03*
X004276Y004726D03*
X004146Y005156D03*
X004016Y005251D03*
X004016Y005781D03*
D66*
X004914Y005281D03*
X005084Y005396D03*
X004864Y004826D03*
X004864Y004821D03*
X004864Y004816D03*
X005579Y004546D03*
X005664Y005331D03*
X005664Y005336D03*
X005254Y005976D03*
D67*
X006081Y004571D03*
X006076Y004566D03*
X006066Y004561D03*
X006041Y004546D03*
X006091Y004576D03*
D68*
X006571Y004736D03*
X006576Y004741D03*
X006576Y004746D03*
X006581Y004751D03*
X006586Y005076D03*
X006581Y005086D03*
X006576Y005091D03*
X006576Y005096D03*
X006571Y005106D03*
X006571Y005111D03*
X006671Y005231D03*
X006676Y005236D03*
X006681Y005246D03*
X006676Y005561D03*
X006671Y005571D03*
X006666Y005576D03*
X006256Y005836D03*
X006201Y005981D03*
X006196Y005986D03*
X006196Y005991D03*
X006191Y005996D03*
X006186Y006001D03*
X005526Y004631D03*
X004651Y004551D03*
X004186Y004816D03*
X004181Y004821D03*
X004181Y004826D03*
X004176Y004831D03*
X004171Y004841D03*
X004161Y005136D03*
X003936Y005331D03*
X003931Y005341D03*
X003926Y005346D03*
X003921Y005351D03*
X003916Y005361D03*
X003916Y005671D03*
X003921Y005681D03*
X003926Y005686D03*
X003931Y005691D03*
X003936Y005701D03*
D69*
X004771Y006126D03*
X004771Y006131D03*
X004766Y006156D03*
X004766Y006161D03*
X004776Y006101D03*
X004776Y006096D03*
X004781Y006071D03*
X004786Y006041D03*
X004791Y006011D03*
X004796Y005981D03*
X004746Y006281D03*
X004746Y006286D03*
X005256Y005971D03*
X005086Y005391D03*
X004911Y005286D03*
X005486Y004941D03*
X005486Y004936D03*
X005576Y004551D03*
X005656Y005311D03*
X005656Y005316D03*
X005661Y005321D03*
X005661Y005326D03*
D70*
X005829Y004611D03*
X006499Y004661D03*
X006584Y005661D03*
X006579Y005666D03*
X006109Y006081D03*
X004834Y006186D03*
X004364Y005951D03*
X004009Y005776D03*
X004004Y005771D03*
X004004Y005261D03*
X004009Y005256D03*
X004149Y005151D03*
X004264Y004736D03*
X004269Y004731D03*
X004874Y004671D03*
X004994Y004556D03*
D71*
X004864Y004831D03*
X004864Y004836D03*
X004824Y004941D03*
X004814Y004966D03*
X004804Y004991D03*
X004794Y005016D03*
X004769Y005081D03*
X004759Y005106D03*
X004749Y005131D03*
X004739Y005156D03*
X004714Y005221D03*
X004704Y005246D03*
X004694Y005271D03*
X004684Y005296D03*
X004659Y005361D03*
X004649Y005386D03*
X004639Y005411D03*
X004629Y005436D03*
X004594Y005526D03*
X004584Y005551D03*
X004574Y005576D03*
X004564Y005601D03*
X004539Y005666D03*
X004529Y005691D03*
X004519Y005716D03*
X004509Y005741D03*
X004499Y005766D03*
X004489Y005791D03*
X004484Y005806D03*
X004474Y005831D03*
X004809Y005896D03*
X004809Y005901D03*
X004809Y005906D03*
X004809Y005911D03*
X004809Y005916D03*
X004809Y005921D03*
X004804Y005926D03*
X004804Y005931D03*
X004804Y005936D03*
X004804Y005941D03*
X004804Y005946D03*
X004804Y005951D03*
X004799Y005956D03*
X004799Y005961D03*
X004799Y005966D03*
X004799Y005971D03*
X004799Y005976D03*
X004794Y005986D03*
X004794Y005991D03*
X004794Y005996D03*
X004794Y006001D03*
X004794Y006006D03*
X004789Y006016D03*
X004789Y006021D03*
X004789Y006026D03*
X004789Y006031D03*
X004789Y006036D03*
X004784Y006046D03*
X004784Y006051D03*
X004784Y006056D03*
X004784Y006061D03*
X004784Y006066D03*
X004779Y006076D03*
X004779Y006081D03*
X004779Y006086D03*
X004779Y006091D03*
X004774Y006106D03*
X004774Y006111D03*
X004774Y006116D03*
X004774Y006121D03*
X004769Y006136D03*
X004769Y006141D03*
X004769Y006146D03*
X004769Y006151D03*
X004744Y006291D03*
X004744Y006296D03*
X004814Y005891D03*
X004814Y005886D03*
X004814Y005881D03*
X004814Y005876D03*
X004814Y005871D03*
X004814Y005866D03*
X004819Y005856D03*
X004819Y005851D03*
X004819Y005846D03*
X004819Y005841D03*
X004819Y005836D03*
X004824Y005826D03*
X004824Y005821D03*
X004824Y005816D03*
X004824Y005811D03*
X004829Y005801D03*
X004829Y005796D03*
X004829Y005791D03*
X004829Y005786D03*
X004829Y005781D03*
X004834Y005771D03*
X004834Y005766D03*
X004834Y005761D03*
X004834Y005756D03*
X004834Y005751D03*
X004839Y005741D03*
X004839Y005736D03*
X004839Y005731D03*
X004839Y005726D03*
X004839Y005721D03*
X004844Y005711D03*
X004844Y005706D03*
X004844Y005701D03*
X004844Y005696D03*
X004849Y005686D03*
X004849Y005681D03*
X004849Y005676D03*
X004849Y005671D03*
X004849Y005666D03*
X004854Y005656D03*
X004854Y005651D03*
X004854Y005646D03*
X004854Y005641D03*
X004854Y005636D03*
X004859Y005626D03*
X004859Y005621D03*
X004859Y005616D03*
X004859Y005611D03*
X004859Y005606D03*
X004864Y005596D03*
X004864Y005591D03*
X004864Y005586D03*
X004864Y005581D03*
X004864Y005576D03*
X004869Y005566D03*
X004869Y005561D03*
X004869Y005556D03*
X004869Y005551D03*
X004874Y005541D03*
X004874Y005536D03*
X004874Y005531D03*
X004874Y005526D03*
X004874Y005521D03*
X004879Y005511D03*
X004879Y005506D03*
X004879Y005501D03*
X004879Y005496D03*
X004879Y005491D03*
X004884Y005481D03*
X004884Y005476D03*
X004884Y005471D03*
X004884Y005466D03*
X004884Y005461D03*
X004889Y005451D03*
X004889Y005446D03*
X004889Y005441D03*
X004889Y005436D03*
X004894Y005426D03*
X004894Y005421D03*
X004894Y005416D03*
X004894Y005411D03*
X004894Y005406D03*
X004914Y005291D03*
X005034Y005251D03*
X005024Y005226D03*
X005014Y005201D03*
X005044Y005276D03*
X005084Y005386D03*
X005369Y005461D03*
X005374Y005441D03*
X005379Y005421D03*
X005384Y005396D03*
X005389Y005376D03*
X005394Y005356D03*
X005399Y005331D03*
X005404Y005311D03*
X005409Y005291D03*
X005414Y005266D03*
X005419Y005246D03*
X005424Y005226D03*
X005429Y005201D03*
X005434Y005181D03*
X005439Y005161D03*
X005444Y005136D03*
X005449Y005121D03*
X005449Y005116D03*
X005454Y005106D03*
X005454Y005101D03*
X005454Y005096D03*
X005459Y005081D03*
X005459Y005076D03*
X005459Y005071D03*
X005464Y005061D03*
X005464Y005056D03*
X005489Y004951D03*
X005489Y004946D03*
X005609Y004911D03*
X005609Y004906D03*
X005609Y004901D03*
X005609Y004896D03*
X005604Y004886D03*
X005604Y004881D03*
X005604Y004876D03*
X005604Y004871D03*
X005604Y004866D03*
X005604Y004861D03*
X005604Y004856D03*
X005604Y004851D03*
X005604Y004846D03*
X005599Y004841D03*
X005599Y004836D03*
X005599Y004831D03*
X005599Y004826D03*
X005599Y004821D03*
X005599Y004816D03*
X005599Y004811D03*
X005599Y004806D03*
X005599Y004801D03*
X005599Y004796D03*
X005594Y004791D03*
X005594Y004786D03*
X005594Y004781D03*
X005594Y004776D03*
X005594Y004771D03*
X005594Y004766D03*
X005594Y004761D03*
X005594Y004756D03*
X005594Y004751D03*
X005594Y004746D03*
X005589Y004741D03*
X005589Y004736D03*
X005589Y004731D03*
X005589Y004726D03*
X005589Y004721D03*
X005589Y004716D03*
X005589Y004711D03*
X005589Y004706D03*
X005589Y004701D03*
X005589Y004696D03*
X005584Y004691D03*
X005584Y004686D03*
X005584Y004681D03*
X005584Y004676D03*
X005584Y004671D03*
X005584Y004666D03*
X005584Y004661D03*
X005584Y004656D03*
X005584Y004651D03*
X005584Y004646D03*
X005579Y004641D03*
X005574Y004556D03*
X005614Y004946D03*
X005614Y004951D03*
X005614Y004956D03*
X005619Y004996D03*
X005619Y005001D03*
X005624Y005026D03*
X005624Y005031D03*
X005624Y005036D03*
X005624Y005041D03*
X005624Y005046D03*
X005629Y005056D03*
X005629Y005061D03*
X005629Y005066D03*
X005629Y005071D03*
X005629Y005076D03*
X005629Y005081D03*
X005629Y005086D03*
X005629Y005091D03*
X005634Y005101D03*
X005634Y005106D03*
X005634Y005111D03*
X005634Y005116D03*
X005634Y005121D03*
X005634Y005126D03*
X005654Y005301D03*
X005654Y005306D03*
X005364Y005486D03*
X005359Y005506D03*
X005354Y005526D03*
X005349Y005551D03*
X005344Y005571D03*
X005339Y005591D03*
X005334Y005616D03*
X005329Y005636D03*
X005324Y005656D03*
X005319Y005681D03*
X005314Y005701D03*
X005309Y005721D03*
X005304Y005746D03*
X005299Y005766D03*
X005294Y005786D03*
X005289Y005806D03*
X005289Y005811D03*
X005284Y005831D03*
X005279Y005851D03*
X005254Y005961D03*
X005254Y005966D03*
D72*
X005384Y006121D03*
X005729Y006251D03*
X006369Y004591D03*
X004649Y004561D03*
D73*
X004976Y004571D03*
X004981Y004566D03*
X004986Y004561D03*
X004256Y004741D03*
X004251Y004746D03*
X003996Y005266D03*
X004001Y005766D03*
X006116Y006076D03*
X006121Y006071D03*
X006126Y006066D03*
X006591Y005656D03*
X006596Y005651D03*
X006516Y004676D03*
X006511Y004671D03*
X006506Y004666D03*
D74*
X005626Y005051D03*
X005621Y005021D03*
X005621Y005016D03*
X005621Y005011D03*
X005621Y005006D03*
X005616Y004991D03*
X005616Y004986D03*
X005616Y004981D03*
X005616Y004976D03*
X005616Y004971D03*
X005616Y004966D03*
X005616Y004961D03*
X005611Y004941D03*
X005611Y004936D03*
X005611Y004931D03*
X005611Y004926D03*
X005611Y004921D03*
X005611Y004916D03*
X005606Y004891D03*
X005486Y004956D03*
X005531Y005056D03*
X005536Y005066D03*
X005541Y005076D03*
X005546Y005086D03*
X005551Y005096D03*
X005556Y005106D03*
X005561Y005116D03*
X005566Y005126D03*
X005631Y005096D03*
X005651Y005291D03*
X005651Y005296D03*
X005421Y005241D03*
X005421Y005236D03*
X005421Y005231D03*
X005426Y005221D03*
X005426Y005216D03*
X005426Y005211D03*
X005426Y005206D03*
X005431Y005196D03*
X005431Y005191D03*
X005431Y005186D03*
X005436Y005176D03*
X005436Y005171D03*
X005436Y005166D03*
X005441Y005156D03*
X005441Y005151D03*
X005441Y005146D03*
X005441Y005141D03*
X005446Y005131D03*
X005446Y005126D03*
X005451Y005111D03*
X005456Y005091D03*
X005456Y005086D03*
X005461Y005066D03*
X005416Y005251D03*
X005416Y005256D03*
X005416Y005261D03*
X005411Y005271D03*
X005411Y005276D03*
X005411Y005281D03*
X005411Y005286D03*
X005406Y005296D03*
X005406Y005301D03*
X005406Y005306D03*
X005401Y005316D03*
X005401Y005321D03*
X005401Y005326D03*
X005396Y005336D03*
X005396Y005341D03*
X005396Y005346D03*
X005396Y005351D03*
X005391Y005361D03*
X005391Y005366D03*
X005391Y005371D03*
X005386Y005381D03*
X005386Y005386D03*
X005386Y005391D03*
X005381Y005401D03*
X005381Y005406D03*
X005381Y005411D03*
X005381Y005416D03*
X005376Y005426D03*
X005376Y005431D03*
X005376Y005436D03*
X005371Y005446D03*
X005371Y005451D03*
X005371Y005456D03*
X005366Y005466D03*
X005366Y005471D03*
X005366Y005476D03*
X005366Y005481D03*
X005361Y005491D03*
X005361Y005496D03*
X005361Y005501D03*
X005356Y005511D03*
X005356Y005516D03*
X005356Y005521D03*
X005351Y005531D03*
X005351Y005536D03*
X005351Y005541D03*
X005351Y005546D03*
X005346Y005556D03*
X005346Y005561D03*
X005346Y005566D03*
X005341Y005576D03*
X005341Y005581D03*
X005341Y005586D03*
X005336Y005596D03*
X005336Y005601D03*
X005336Y005606D03*
X005336Y005611D03*
X005331Y005621D03*
X005331Y005626D03*
X005331Y005631D03*
X005326Y005641D03*
X005326Y005646D03*
X005326Y005651D03*
X005321Y005661D03*
X005321Y005666D03*
X005321Y005671D03*
X005321Y005676D03*
X005316Y005686D03*
X005316Y005691D03*
X005316Y005696D03*
X005311Y005706D03*
X005311Y005711D03*
X005311Y005716D03*
X005306Y005726D03*
X005306Y005731D03*
X005306Y005736D03*
X005306Y005741D03*
X005301Y005751D03*
X005301Y005756D03*
X005301Y005761D03*
X005296Y005771D03*
X005296Y005776D03*
X005296Y005781D03*
X005291Y005791D03*
X005291Y005796D03*
X005291Y005801D03*
X005286Y005816D03*
X005286Y005821D03*
X005286Y005826D03*
X005281Y005836D03*
X005281Y005841D03*
X005281Y005846D03*
X005276Y005856D03*
X005276Y005861D03*
X005276Y005866D03*
X005206Y005866D03*
X005201Y005856D03*
X005196Y005846D03*
X005191Y005836D03*
X005186Y005826D03*
X005181Y005816D03*
X005176Y005806D03*
X005171Y005796D03*
X005166Y005786D03*
X005161Y005776D03*
X005156Y005766D03*
X005151Y005756D03*
X005146Y005746D03*
X005141Y005736D03*
X005136Y005726D03*
X005131Y005716D03*
X005126Y005706D03*
X005121Y005696D03*
X005116Y005686D03*
X005111Y005676D03*
X005106Y005666D03*
X005101Y005661D03*
X005101Y005656D03*
X005096Y005651D03*
X005096Y005646D03*
X005091Y005641D03*
X005091Y005636D03*
X005086Y005631D03*
X005086Y005626D03*
X005081Y005621D03*
X005076Y005611D03*
X005071Y005601D03*
X005066Y005591D03*
X005061Y005581D03*
X005056Y005571D03*
X005051Y005561D03*
X005046Y005551D03*
X005041Y005541D03*
X005036Y005531D03*
X004881Y005486D03*
X004886Y005456D03*
X004891Y005431D03*
X004896Y005401D03*
X004916Y005296D03*
X005036Y005261D03*
X005036Y005256D03*
X005031Y005246D03*
X005031Y005241D03*
X005026Y005236D03*
X005026Y005231D03*
X005021Y005221D03*
X005021Y005216D03*
X005016Y005211D03*
X005016Y005206D03*
X005011Y005196D03*
X005011Y005191D03*
X005006Y005186D03*
X005006Y005181D03*
X005006Y005176D03*
X005001Y005171D03*
X005001Y005166D03*
X004996Y005161D03*
X004996Y005156D03*
X004996Y005151D03*
X004991Y005141D03*
X004986Y005131D03*
X004986Y005126D03*
X004981Y005116D03*
X004976Y005106D03*
X004976Y005101D03*
X004971Y005091D03*
X004966Y005081D03*
X004961Y005071D03*
X004961Y005066D03*
X004956Y005056D03*
X004951Y005046D03*
X004951Y005041D03*
X004946Y005031D03*
X004941Y005021D03*
X004941Y005016D03*
X004936Y005006D03*
X004931Y004996D03*
X004926Y004981D03*
X004921Y004971D03*
X004911Y004946D03*
X004831Y004926D03*
X004826Y004931D03*
X004826Y004936D03*
X004821Y004946D03*
X004821Y004951D03*
X004816Y004956D03*
X004816Y004961D03*
X004811Y004971D03*
X004811Y004976D03*
X004806Y004981D03*
X004806Y004986D03*
X004801Y004996D03*
X004801Y005001D03*
X004796Y005006D03*
X004796Y005011D03*
X004791Y005021D03*
X004791Y005026D03*
X004786Y005031D03*
X004786Y005036D03*
X004786Y005041D03*
X004781Y005046D03*
X004781Y005051D03*
X004776Y005056D03*
X004776Y005061D03*
X004776Y005066D03*
X004771Y005071D03*
X004771Y005076D03*
X004766Y005086D03*
X004766Y005091D03*
X004761Y005096D03*
X004761Y005101D03*
X004756Y005111D03*
X004756Y005116D03*
X004751Y005121D03*
X004751Y005126D03*
X004746Y005136D03*
X004746Y005141D03*
X004741Y005146D03*
X004741Y005151D03*
X004736Y005161D03*
X004736Y005166D03*
X004731Y005171D03*
X004731Y005176D03*
X004731Y005181D03*
X004726Y005186D03*
X004726Y005191D03*
X004721Y005196D03*
X004721Y005201D03*
X004721Y005206D03*
X004716Y005211D03*
X004716Y005216D03*
X004711Y005226D03*
X004711Y005231D03*
X004706Y005236D03*
X004706Y005241D03*
X004701Y005251D03*
X004701Y005256D03*
X004696Y005261D03*
X004696Y005266D03*
X004691Y005276D03*
X004691Y005281D03*
X004686Y005286D03*
X004686Y005291D03*
X004681Y005301D03*
X004681Y005306D03*
X004676Y005311D03*
X004676Y005316D03*
X004676Y005321D03*
X004671Y005326D03*
X004671Y005331D03*
X004666Y005336D03*
X004666Y005341D03*
X004666Y005346D03*
X004661Y005351D03*
X004661Y005356D03*
X004656Y005366D03*
X004656Y005371D03*
X004651Y005376D03*
X004651Y005381D03*
X004646Y005391D03*
X004646Y005396D03*
X004641Y005401D03*
X004641Y005406D03*
X004636Y005416D03*
X004636Y005421D03*
X004631Y005426D03*
X004631Y005431D03*
X004626Y005441D03*
X004626Y005446D03*
X004621Y005451D03*
X004621Y005456D03*
X004621Y005461D03*
X004616Y005466D03*
X004616Y005471D03*
X004611Y005476D03*
X004611Y005481D03*
X004611Y005486D03*
X004606Y005491D03*
X004606Y005496D03*
X004601Y005501D03*
X004601Y005506D03*
X004601Y005511D03*
X004596Y005516D03*
X004596Y005521D03*
X004591Y005531D03*
X004591Y005536D03*
X004586Y005541D03*
X004586Y005546D03*
X004581Y005556D03*
X004581Y005561D03*
X004576Y005566D03*
X004576Y005571D03*
X004571Y005581D03*
X004571Y005586D03*
X004566Y005591D03*
X004566Y005596D03*
X004561Y005606D03*
X004561Y005611D03*
X004556Y005616D03*
X004556Y005621D03*
X004556Y005626D03*
X004551Y005631D03*
X004551Y005636D03*
X004546Y005641D03*
X004546Y005646D03*
X004546Y005651D03*
X004541Y005656D03*
X004541Y005661D03*
X004536Y005671D03*
X004536Y005676D03*
X004531Y005681D03*
X004531Y005686D03*
X004526Y005696D03*
X004526Y005701D03*
X004521Y005706D03*
X004521Y005711D03*
X004516Y005721D03*
X004516Y005726D03*
X004511Y005731D03*
X004511Y005736D03*
X004506Y005746D03*
X004506Y005751D03*
X004501Y005756D03*
X004501Y005761D03*
X004496Y005771D03*
X004496Y005776D03*
X004491Y005781D03*
X004491Y005786D03*
X004486Y005796D03*
X004486Y005801D03*
X004481Y005811D03*
X004481Y005816D03*
X004476Y005821D03*
X004476Y005826D03*
X004471Y005836D03*
X004471Y005841D03*
X004466Y005846D03*
X004421Y005966D03*
X004421Y005971D03*
X004416Y005981D03*
X004411Y005996D03*
X004406Y006006D03*
X004401Y006021D03*
X004396Y006031D03*
X004391Y006046D03*
X004381Y006071D03*
X004371Y006096D03*
X004366Y006111D03*
X004361Y006121D03*
X004356Y006136D03*
X004351Y006146D03*
X004346Y006161D03*
X004341Y006171D03*
X004336Y006186D03*
X004331Y006196D03*
X004326Y006211D03*
X004321Y006221D03*
X004316Y006236D03*
X004311Y006246D03*
X004311Y006251D03*
X004306Y006261D03*
X004301Y006271D03*
X004301Y006276D03*
X004301Y006281D03*
X004296Y006286D03*
X004296Y006291D03*
X004291Y006296D03*
X004816Y005861D03*
X004821Y005831D03*
X004826Y005806D03*
X004831Y005776D03*
X004836Y005746D03*
X004841Y005716D03*
X004846Y005691D03*
X004851Y005661D03*
X004856Y005631D03*
X004861Y005601D03*
X004866Y005571D03*
X004871Y005546D03*
X004876Y005516D03*
X005086Y005381D03*
X005051Y005301D03*
X005051Y005296D03*
X005051Y005291D03*
X005046Y005286D03*
X005046Y005281D03*
X005041Y005271D03*
X005041Y005266D03*
X004901Y004701D03*
X005571Y004561D03*
X005251Y005951D03*
X005251Y005956D03*
X005366Y006051D03*
D75*
X004651Y004566D03*
D76*
X004864Y004841D03*
X004864Y004846D03*
X004904Y004926D03*
X004904Y004931D03*
X004909Y004936D03*
X004909Y004941D03*
X004914Y004951D03*
X004914Y004956D03*
X004919Y004961D03*
X004919Y004966D03*
X004924Y004976D03*
X004929Y004986D03*
X004929Y004991D03*
X004934Y005001D03*
X004939Y005011D03*
X004944Y005026D03*
X004949Y005036D03*
X004954Y005051D03*
X004959Y005061D03*
X004964Y005076D03*
X004969Y005086D03*
X004974Y005096D03*
X004979Y005111D03*
X004984Y005121D03*
X004989Y005136D03*
X004994Y005146D03*
X004919Y005301D03*
X004919Y005306D03*
X004969Y005401D03*
X004974Y005411D03*
X004979Y005421D03*
X004984Y005426D03*
X004984Y005431D03*
X004989Y005436D03*
X004989Y005441D03*
X004994Y005446D03*
X004994Y005451D03*
X004999Y005456D03*
X004999Y005461D03*
X005004Y005466D03*
X005004Y005471D03*
X005009Y005476D03*
X005009Y005481D03*
X005014Y005486D03*
X005014Y005491D03*
X005019Y005496D03*
X005019Y005501D03*
X005024Y005506D03*
X005024Y005511D03*
X005029Y005516D03*
X005029Y005521D03*
X005034Y005526D03*
X005039Y005536D03*
X005044Y005546D03*
X005049Y005556D03*
X005054Y005566D03*
X005059Y005576D03*
X005064Y005586D03*
X005069Y005596D03*
X005074Y005606D03*
X005079Y005616D03*
X005109Y005671D03*
X005114Y005681D03*
X005119Y005691D03*
X005124Y005701D03*
X005129Y005711D03*
X005134Y005721D03*
X005139Y005731D03*
X005144Y005741D03*
X005149Y005751D03*
X005154Y005761D03*
X005159Y005771D03*
X005164Y005781D03*
X005169Y005791D03*
X005174Y005801D03*
X005179Y005811D03*
X005184Y005821D03*
X005189Y005831D03*
X005194Y005841D03*
X005199Y005851D03*
X005204Y005861D03*
X005084Y005376D03*
X005149Y005261D03*
X005164Y005236D03*
X005179Y005211D03*
X005184Y005201D03*
X005194Y005186D03*
X005199Y005176D03*
X005204Y005166D03*
X005209Y005161D03*
X005214Y005151D03*
X005219Y005141D03*
X005224Y005136D03*
X005229Y005126D03*
X005234Y005116D03*
X005239Y005106D03*
X005244Y005101D03*
X005244Y005096D03*
X005249Y005091D03*
X005249Y005086D03*
X005254Y005081D03*
X005259Y005076D03*
X005259Y005071D03*
X005264Y005066D03*
X005264Y005061D03*
X005269Y005056D03*
X005274Y005051D03*
X005274Y005046D03*
X005279Y005041D03*
X005279Y005036D03*
X005284Y005031D03*
X005289Y005026D03*
X005289Y005021D03*
X005294Y005016D03*
X005294Y005011D03*
X005299Y005006D03*
X005304Y005001D03*
X005304Y004996D03*
X005309Y004991D03*
X005309Y004986D03*
X005314Y004981D03*
X005319Y004976D03*
X005319Y004971D03*
X005324Y004966D03*
X005324Y004961D03*
X005329Y004956D03*
X005334Y004951D03*
X005334Y004946D03*
X005339Y004941D03*
X005339Y004936D03*
X005344Y004931D03*
X005349Y004926D03*
X005349Y004921D03*
X005354Y004916D03*
X005354Y004911D03*
X005359Y004906D03*
X005364Y004901D03*
X005364Y004896D03*
X005369Y004891D03*
X005369Y004886D03*
X005374Y004881D03*
X005379Y004876D03*
X005379Y004871D03*
X005384Y004866D03*
X005489Y004961D03*
X005489Y004966D03*
X005534Y005061D03*
X005539Y005071D03*
X005544Y005081D03*
X005549Y005091D03*
X005554Y005101D03*
X005559Y005111D03*
X005564Y005121D03*
X005649Y005286D03*
X005569Y004566D03*
X004419Y005976D03*
X004414Y005986D03*
X004414Y005991D03*
X004409Y006001D03*
X004404Y006011D03*
X004404Y006016D03*
X004399Y006026D03*
X004394Y006036D03*
X004394Y006041D03*
X004389Y006051D03*
X004389Y006056D03*
X004384Y006061D03*
X004384Y006066D03*
X004379Y006076D03*
X004379Y006081D03*
X004374Y006086D03*
X004374Y006091D03*
X004369Y006101D03*
X004369Y006106D03*
X004364Y006116D03*
X004359Y006126D03*
X004359Y006131D03*
X004354Y006141D03*
X004349Y006151D03*
X004349Y006156D03*
X004344Y006166D03*
X004339Y006176D03*
X004339Y006181D03*
X004334Y006191D03*
X004329Y006201D03*
X004329Y006206D03*
X004324Y006216D03*
X004319Y006226D03*
X004319Y006231D03*
X004314Y006241D03*
X004309Y006256D03*
X004304Y006266D03*
D77*
X004286Y005901D03*
X004651Y004571D03*
D78*
X004864Y004856D03*
X004919Y005311D03*
X004919Y005316D03*
X005379Y004861D03*
X005564Y004571D03*
X005639Y005256D03*
X005639Y005261D03*
X005249Y005936D03*
X005249Y005941D03*
D79*
X005731Y006236D03*
X004276Y005886D03*
X004651Y004576D03*
D80*
X004971Y004576D03*
X004236Y004761D03*
X004231Y004766D03*
X003981Y005281D03*
X003976Y005286D03*
X003971Y005291D03*
X003971Y005741D03*
X003976Y005746D03*
X003981Y005751D03*
X005371Y006091D03*
X006621Y005631D03*
X006626Y005626D03*
X006631Y005181D03*
X006626Y005176D03*
X006621Y005171D03*
X006616Y005166D03*
X006591Y005141D03*
X006581Y005126D03*
X006531Y004691D03*
X006526Y004686D03*
X006521Y004681D03*
D81*
X005636Y005246D03*
X005636Y005251D03*
X005491Y004991D03*
X005491Y004986D03*
X005491Y004981D03*
X005561Y004576D03*
X005086Y005361D03*
X004921Y005326D03*
X004921Y005321D03*
X005246Y005931D03*
X005366Y006056D03*
D82*
X004741Y004581D03*
D83*
X006099Y004581D03*
D84*
X005556Y004586D03*
X005491Y005001D03*
X005626Y005216D03*
X005626Y005221D03*
X005631Y005231D03*
X005086Y005351D03*
X004926Y005336D03*
X004866Y004866D03*
X005246Y005916D03*
X005246Y005921D03*
X004781Y006171D03*
D85*
X006346Y005781D03*
X005866Y004586D03*
D86*
X004716Y004591D03*
D87*
X004866Y004881D03*
X004926Y005346D03*
X004926Y005351D03*
X005246Y005906D03*
X005246Y005911D03*
X004966Y006296D03*
X004406Y005961D03*
X005496Y005016D03*
X005621Y005196D03*
X005621Y005201D03*
X005351Y004736D03*
X005366Y004726D03*
X005386Y004711D03*
X005401Y004701D03*
X005406Y004696D03*
X005416Y004691D03*
X005471Y004651D03*
X005486Y004641D03*
X005551Y004591D03*
D88*
X005854Y004591D03*
X004384Y004671D03*
X004324Y005931D03*
D89*
X004709Y004596D03*
X005729Y006191D03*
D90*
X004931Y005366D03*
X004866Y004891D03*
X005281Y004786D03*
X005366Y004856D03*
X005426Y004686D03*
X005431Y004681D03*
X005446Y004671D03*
X005551Y004596D03*
X005811Y004636D03*
X005496Y005026D03*
X005496Y005031D03*
X005496Y005036D03*
X005611Y005166D03*
X005611Y005171D03*
D91*
X006381Y004596D03*
X006476Y005721D03*
X005996Y006141D03*
X005381Y006116D03*
D92*
X005369Y006066D03*
X005244Y005891D03*
X005244Y005886D03*
X004794Y006176D03*
X004929Y005371D03*
X005089Y005326D03*
X004869Y004901D03*
X004869Y004896D03*
X005274Y004796D03*
X005499Y005041D03*
X005609Y005156D03*
X005609Y005161D03*
X005549Y004601D03*
D93*
X005304Y004826D03*
X006394Y004601D03*
X006014Y006136D03*
D94*
X004691Y004606D03*
D95*
X004894Y004686D03*
X004869Y004911D03*
X004934Y005386D03*
X004934Y005391D03*
X005239Y005871D03*
X005369Y006071D03*
X005604Y005141D03*
X005599Y005131D03*
X005499Y005051D03*
X005544Y004606D03*
X005814Y004631D03*
D96*
X004684Y004611D03*
X005729Y006186D03*
D97*
X005091Y005311D03*
X005091Y005306D03*
X004936Y005396D03*
X004866Y004916D03*
X005541Y004611D03*
D98*
X006419Y004611D03*
X006299Y005816D03*
X006034Y006126D03*
X005729Y006256D03*
X004339Y005941D03*
X004084Y005821D03*
X004089Y005206D03*
X004099Y005201D03*
X004104Y005196D03*
X004109Y005191D03*
D99*
X004869Y004921D03*
X005539Y004616D03*
D100*
X005824Y004616D03*
X005339Y004846D03*
X004884Y004676D03*
X004224Y004771D03*
X004219Y004776D03*
X004214Y004781D03*
X003969Y005736D03*
X005729Y006261D03*
X006149Y006046D03*
X006154Y006041D03*
X006159Y006036D03*
X006164Y006031D03*
X006629Y005621D03*
X006634Y005616D03*
X006639Y005611D03*
X006634Y005186D03*
X006579Y005121D03*
X006539Y004696D03*
D101*
X004666Y004621D03*
X004661Y004626D03*
D102*
X004889Y004681D03*
X005534Y004621D03*
X006614Y004816D03*
X006619Y004826D03*
X006619Y004831D03*
X006619Y004836D03*
X006624Y004846D03*
X006624Y004851D03*
X006624Y004856D03*
X006629Y004866D03*
X006629Y004871D03*
X006629Y004876D03*
X006629Y004881D03*
X006629Y004886D03*
X006634Y004926D03*
X006634Y004931D03*
X006634Y004936D03*
X006629Y004956D03*
X006629Y004961D03*
X006629Y004966D03*
X006629Y004971D03*
X006629Y004976D03*
X006624Y004981D03*
X006624Y004986D03*
X006624Y004991D03*
X006624Y004996D03*
X006619Y005001D03*
X006619Y005006D03*
X006614Y005021D03*
X006704Y005291D03*
X006709Y005306D03*
X006714Y005316D03*
X006714Y005321D03*
X006714Y005326D03*
X006719Y005336D03*
X006719Y005341D03*
X006719Y005346D03*
X006719Y005351D03*
X006724Y005366D03*
X006724Y005371D03*
X006724Y005376D03*
X006724Y005381D03*
X006724Y005386D03*
X006724Y005391D03*
X006724Y005396D03*
X006724Y005401D03*
X006724Y005406D03*
X006724Y005411D03*
X006724Y005416D03*
X006724Y005421D03*
X006724Y005426D03*
X006724Y005431D03*
X006719Y005451D03*
X006719Y005456D03*
X006719Y005461D03*
X006719Y005466D03*
X006714Y005471D03*
X006714Y005476D03*
X006714Y005481D03*
X006709Y005491D03*
X006709Y005496D03*
X006249Y005841D03*
X006249Y005846D03*
X006249Y005851D03*
X006244Y005866D03*
X006244Y005871D03*
X006244Y005876D03*
X006244Y005881D03*
X006239Y005891D03*
X006239Y005896D03*
X006239Y005901D03*
X006234Y005911D03*
X006229Y005926D03*
X004144Y005091D03*
X004139Y005081D03*
X004139Y005076D03*
X004139Y005071D03*
X004134Y005061D03*
X004134Y005056D03*
X004134Y005051D03*
X004134Y005046D03*
X004129Y005036D03*
X004129Y005031D03*
X004129Y005026D03*
X004129Y005021D03*
X004129Y005016D03*
X004129Y005011D03*
X004129Y005006D03*
X004129Y005001D03*
X004129Y004996D03*
X004129Y004991D03*
X004129Y004986D03*
X004129Y004981D03*
X004129Y004976D03*
X004129Y004971D03*
X004129Y004966D03*
X004129Y004961D03*
X004129Y004956D03*
X004134Y004941D03*
X004134Y004936D03*
X004134Y004931D03*
X004134Y004926D03*
X004139Y004921D03*
X004139Y004916D03*
X004139Y004911D03*
X004144Y004901D03*
X003889Y005421D03*
X003884Y005436D03*
X003884Y005441D03*
X003884Y005446D03*
X003879Y005451D03*
X003879Y005456D03*
X003879Y005461D03*
X003879Y005466D03*
X003874Y005476D03*
X003874Y005481D03*
X003874Y005486D03*
X003874Y005491D03*
X003874Y005496D03*
X003874Y005501D03*
X003874Y005506D03*
X003874Y005511D03*
X003874Y005516D03*
X003874Y005521D03*
X003874Y005526D03*
X003874Y005531D03*
X003874Y005536D03*
X003874Y005541D03*
X003874Y005546D03*
X003874Y005551D03*
X003879Y005566D03*
X003879Y005571D03*
X003879Y005576D03*
X003879Y005581D03*
X003884Y005586D03*
X003884Y005591D03*
X003884Y005596D03*
X003889Y005606D03*
X003889Y005611D03*
D103*
X003899Y005636D03*
X003904Y005646D03*
X003909Y005656D03*
X003914Y005666D03*
X003919Y005676D03*
X003899Y005396D03*
X003904Y005386D03*
X003909Y005376D03*
X003914Y005366D03*
X003919Y005356D03*
X004159Y005126D03*
X004154Y005116D03*
X004159Y004861D03*
X004164Y004851D03*
X004169Y004846D03*
X004174Y004836D03*
X005369Y006081D03*
X006204Y005976D03*
X006209Y005971D03*
X006209Y005966D03*
X006214Y005961D03*
X006214Y005956D03*
X006674Y005566D03*
X006679Y005556D03*
X006684Y005551D03*
X006684Y005546D03*
X006689Y005541D03*
X006694Y005531D03*
X006689Y005261D03*
X006689Y005256D03*
X006684Y005251D03*
X006679Y005241D03*
X006574Y005101D03*
X006584Y005081D03*
X006589Y005071D03*
X006594Y005066D03*
X006599Y005056D03*
X006604Y005046D03*
X006604Y004791D03*
X006599Y004781D03*
X006594Y004771D03*
X006589Y004766D03*
X006589Y004761D03*
X006584Y004756D03*
X005819Y004621D03*
D104*
X005531Y004626D03*
X005281Y004801D03*
X004161Y004856D03*
X004156Y004866D03*
X004156Y004871D03*
X004151Y004876D03*
X004151Y004881D03*
X004146Y004886D03*
X004146Y004891D03*
X004146Y004896D03*
X004141Y004906D03*
X004136Y005066D03*
X004141Y005086D03*
X004146Y005096D03*
X004146Y005101D03*
X004151Y005106D03*
X004151Y005111D03*
X004156Y005121D03*
X004161Y005131D03*
X003911Y005371D03*
X003906Y005381D03*
X003901Y005391D03*
X003896Y005401D03*
X003896Y005406D03*
X003891Y005411D03*
X003891Y005416D03*
X003886Y005426D03*
X003886Y005431D03*
X003886Y005601D03*
X003891Y005616D03*
X003891Y005621D03*
X003896Y005626D03*
X003896Y005631D03*
X003901Y005641D03*
X003906Y005651D03*
X003911Y005661D03*
X006216Y005951D03*
X006221Y005946D03*
X006221Y005941D03*
X006226Y005936D03*
X006226Y005931D03*
X006231Y005921D03*
X006231Y005916D03*
X006236Y005906D03*
X006691Y005536D03*
X006696Y005526D03*
X006696Y005521D03*
X006701Y005516D03*
X006701Y005511D03*
X006706Y005506D03*
X006706Y005501D03*
X006711Y005486D03*
X006716Y005331D03*
X006711Y005311D03*
X006706Y005301D03*
X006706Y005296D03*
X006701Y005286D03*
X006701Y005281D03*
X006696Y005276D03*
X006696Y005271D03*
X006691Y005266D03*
X006596Y005061D03*
X006601Y005051D03*
X006606Y005041D03*
X006606Y005036D03*
X006611Y005031D03*
X006611Y005026D03*
X006616Y005016D03*
X006616Y005011D03*
X006621Y004841D03*
X006616Y004821D03*
X006611Y004811D03*
X006611Y004806D03*
X006606Y004801D03*
X006606Y004796D03*
X006601Y004786D03*
X006596Y004776D03*
D105*
X006626Y004861D03*
X006631Y004891D03*
X006631Y004896D03*
X006631Y004901D03*
X006631Y004906D03*
X006631Y004911D03*
X006631Y004916D03*
X006631Y004921D03*
X006631Y004941D03*
X006631Y004946D03*
X006631Y004951D03*
X006721Y005356D03*
X006721Y005361D03*
X006721Y005436D03*
X006721Y005441D03*
X006721Y005446D03*
X006246Y005856D03*
X006246Y005861D03*
X006241Y005886D03*
X005371Y006076D03*
X004806Y006181D03*
X003876Y005561D03*
X003876Y005556D03*
X003876Y005471D03*
X004131Y005041D03*
X004131Y004951D03*
X004131Y004946D03*
X005351Y004851D03*
X005816Y004626D03*
D106*
X004654Y004631D03*
X005729Y006181D03*
D107*
X005376Y006101D03*
X004351Y005946D03*
X004046Y005801D03*
X004046Y005231D03*
X004136Y005166D03*
X004306Y004706D03*
X004866Y004666D03*
X005301Y004811D03*
X006456Y004631D03*
D108*
X006559Y004721D03*
X006564Y004726D03*
X006569Y004731D03*
X006649Y005201D03*
X006654Y005206D03*
X006659Y005211D03*
X006659Y005216D03*
X006664Y005221D03*
X006669Y005226D03*
X006664Y005581D03*
X006659Y005586D03*
X006654Y005591D03*
X006654Y005596D03*
X006184Y006006D03*
X006179Y006011D03*
X005524Y004636D03*
X004199Y004801D03*
X004194Y004806D03*
X004189Y004811D03*
X003949Y005316D03*
X003944Y005321D03*
X003939Y005326D03*
X003934Y005336D03*
X003934Y005696D03*
X003939Y005706D03*
X003944Y005711D03*
X003949Y005716D03*
X004374Y005956D03*
D109*
X004924Y005341D03*
X005089Y005341D03*
X005089Y005346D03*
X005494Y005011D03*
X005494Y005006D03*
X005624Y005206D03*
X005624Y005211D03*
X005809Y004641D03*
X004869Y004871D03*
X004869Y004876D03*
X005369Y006061D03*
D110*
X005251Y005946D03*
X004771Y006166D03*
X004461Y005851D03*
X004976Y005416D03*
X004971Y005406D03*
X005086Y005371D03*
X005086Y005366D03*
X005126Y005301D03*
X005126Y005296D03*
X005131Y005291D03*
X005136Y005286D03*
X005136Y005281D03*
X005141Y005276D03*
X005141Y005271D03*
X005146Y005266D03*
X005151Y005256D03*
X005156Y005251D03*
X005156Y005246D03*
X005161Y005241D03*
X005166Y005231D03*
X005171Y005226D03*
X005171Y005221D03*
X005176Y005216D03*
X005181Y005206D03*
X005186Y005196D03*
X005191Y005191D03*
X005196Y005181D03*
X005201Y005171D03*
X005211Y005156D03*
X005216Y005146D03*
X005226Y005131D03*
X005231Y005121D03*
X005236Y005111D03*
X005491Y004976D03*
X005491Y004971D03*
X005641Y005266D03*
X005641Y005271D03*
X005646Y005276D03*
X005646Y005281D03*
X005811Y004646D03*
X004866Y004851D03*
D111*
X004629Y004651D03*
D112*
X004621Y004656D03*
D113*
X004424Y004661D03*
X004304Y005916D03*
D114*
X004396Y004666D03*
X005981Y006146D03*
X006326Y005796D03*
D115*
X006176Y006016D03*
X006171Y006021D03*
X006166Y006026D03*
X006641Y005606D03*
X006646Y005601D03*
X006646Y005196D03*
X006641Y005191D03*
X006576Y005116D03*
X006556Y004716D03*
X006551Y004711D03*
X006546Y004706D03*
X006541Y004701D03*
X005371Y006086D03*
X004156Y005141D03*
X003966Y005296D03*
X003961Y005301D03*
X003956Y005306D03*
X003951Y005311D03*
X003951Y005721D03*
X003956Y005726D03*
X003961Y005731D03*
X004201Y004796D03*
X004206Y004791D03*
X004211Y004786D03*
D116*
X004861Y004766D03*
X004901Y005211D03*
X004901Y005216D03*
X005481Y004866D03*
X005696Y005441D03*
X005696Y005446D03*
X005366Y006046D03*
D117*
X005264Y006036D03*
X005264Y006031D03*
X005079Y005441D03*
X005079Y005436D03*
X004904Y005221D03*
X004864Y004771D03*
X005479Y004871D03*
X005479Y004876D03*
X005694Y005431D03*
X005694Y005436D03*
D118*
X005691Y005426D03*
X005691Y005421D03*
X005481Y004886D03*
X005481Y004881D03*
X004901Y005226D03*
X005081Y005431D03*
X005261Y006021D03*
X005261Y006026D03*
X005726Y006266D03*
X004861Y004776D03*
D119*
X004864Y004781D03*
X004864Y004786D03*
X004904Y005231D03*
X004904Y005236D03*
X005079Y005426D03*
X005684Y005406D03*
X005684Y005401D03*
X005689Y005411D03*
X005689Y005416D03*
D120*
X005679Y005386D03*
X005679Y005381D03*
X005484Y004911D03*
X005484Y004906D03*
X005484Y004901D03*
X004909Y005251D03*
X004864Y004801D03*
X004864Y004796D03*
X005259Y006001D03*
X005259Y006006D03*
D121*
X005241Y005881D03*
X005241Y005876D03*
X005091Y005321D03*
X005091Y005316D03*
X004931Y005376D03*
X004931Y005381D03*
X004866Y004906D03*
X005496Y005046D03*
X005601Y005136D03*
X005606Y005146D03*
X005606Y005151D03*
D122*
X005666Y005341D03*
X005666Y005346D03*
X005486Y004931D03*
X005486Y004926D03*
X005081Y005401D03*
X004911Y005276D03*
X004911Y005271D03*
X005256Y005981D03*
X005256Y005986D03*
D123*
X006379Y005756D03*
X006394Y005746D03*
X006404Y005741D03*
D124*
X006386Y005751D03*
X004291Y005906D03*
D125*
X005389Y006131D03*
X005729Y006246D03*
X006354Y005776D03*
D126*
X006339Y005786D03*
X005964Y006151D03*
X004309Y005921D03*
D127*
X004251Y005856D03*
X004961Y006261D03*
D128*
X004254Y005861D03*
D129*
X004264Y005871D03*
X005729Y006231D03*
D130*
X004266Y005876D03*
D131*
X004314Y005926D03*
D132*
X005394Y006136D03*
D133*
X005396Y006141D03*
D134*
X005404Y006146D03*
X004944Y006271D03*
D135*
X005414Y006151D03*
X005729Y006226D03*
D136*
X005636Y006156D03*
D137*
X005626Y006161D03*
D138*
X005614Y006166D03*
D139*
X005599Y006171D03*
D140*
X005581Y006176D03*
D141*
X005041Y006191D03*
X005036Y006196D03*
D142*
X005729Y006196D03*
D143*
X005031Y006201D03*
D144*
X005729Y006201D03*
D145*
X005729Y006206D03*
X005024Y006211D03*
D146*
X005014Y006221D03*
X005729Y006211D03*
D147*
X005729Y006216D03*
D148*
X005731Y006221D03*
D149*
X005006Y006226D03*
D150*
X004991Y006241D03*
D151*
X005731Y006241D03*
D152*
X004984Y006246D03*
D153*
X004969Y006256D03*
D154*
X004934Y006276D03*
D155*
X005055Y008180D02*
X004555Y008180D01*
X004305Y008430D01*
X004055Y008180D01*
X003555Y008180D01*
X003305Y008430D01*
X003305Y008930D01*
X003555Y009180D01*
X004055Y009180D01*
X004305Y008930D01*
X004555Y009180D01*
X005055Y009180D01*
X005305Y008930D01*
X005555Y009180D01*
X006055Y009180D01*
X006305Y008930D01*
X006555Y009180D01*
X007055Y009180D01*
X007305Y008930D01*
X007305Y008430D01*
X007055Y008180D01*
X006555Y008180D01*
X006305Y008430D01*
X006055Y008180D01*
X005555Y008180D01*
X005305Y008430D01*
X005055Y008180D01*
X002430Y007055D02*
X002430Y006555D01*
X002180Y006305D01*
X002430Y006055D01*
X002430Y005555D01*
X002180Y005305D01*
X002430Y005055D01*
X002430Y004555D01*
X002180Y004305D01*
X002430Y004055D01*
X002430Y003555D01*
X002180Y003305D01*
X001680Y003305D01*
X001430Y003555D01*
X001430Y004055D01*
X001680Y004305D01*
X001430Y004555D01*
X001430Y005055D01*
X001680Y005305D01*
X001430Y005555D01*
X001430Y006055D01*
X001680Y006305D01*
X001430Y006555D01*
X001430Y007055D01*
X001680Y007305D01*
X002180Y007305D01*
X002430Y007055D01*
X002894Y003303D02*
X002824Y003233D01*
X002824Y002953D01*
X002894Y002883D01*
X003034Y002883D01*
X003104Y002953D01*
X003285Y002883D02*
X003565Y002883D01*
X003425Y002883D02*
X003425Y003303D01*
X003285Y003163D01*
X003104Y003233D02*
X003034Y003303D01*
X002894Y003303D01*
X003555Y002430D02*
X003305Y002180D01*
X003305Y001680D01*
X003555Y001430D01*
X004055Y001430D01*
X004305Y001680D01*
X004555Y001430D01*
X005055Y001430D01*
X005305Y001680D01*
X005555Y001430D01*
X006055Y001430D01*
X006305Y001680D01*
X006555Y001430D01*
X007055Y001430D01*
X007305Y001680D01*
X007305Y002180D01*
X007055Y002430D01*
X006555Y002430D01*
X006305Y002180D01*
X006055Y002430D01*
X005555Y002430D01*
X005305Y002180D01*
X005055Y002430D01*
X004555Y002430D01*
X004305Y002180D01*
X004055Y002430D01*
X003555Y002430D01*
X008180Y003555D02*
X008430Y003305D01*
X008930Y003305D01*
X009180Y003555D01*
X009180Y004055D01*
X008930Y004305D01*
X009180Y004555D01*
X009180Y005055D01*
X008930Y005305D01*
X009180Y005555D01*
X009180Y006055D01*
X008930Y006305D01*
X009180Y006555D01*
X009180Y007055D01*
X008930Y007305D01*
X008430Y007305D01*
X008180Y007055D01*
X008180Y006555D01*
X008430Y006305D01*
X008180Y006055D01*
X008180Y005555D01*
X008430Y005305D01*
X008180Y005055D01*
X008180Y004555D01*
X008430Y004305D01*
X008180Y004055D01*
X008180Y003555D01*
M02*
